<svg width="49" height="48" viewBox="0 0 49 48" fill="none" xmlns="http://www.w3.org/2000/svg">
<g clip-path="url(#clip0_656_5036)">
<path d="M24.5 48C37.7548 48 48.5 37.2548 48.5 24C48.5 10.7452 37.7548 0 24.5 0C11.2452 0 0.5 10.7452 0.5 24C0.5 37.2548 11.2452 48 24.5 48Z" fill="#FFBF0B"/>
<path d="M24.5 48C37.7548 48 48.5 37.2548 48.5 24C48.5 10.7452 37.7548 0 24.5 0C11.2452 0 0.5 10.7452 0.5 24C0.5 37.2548 11.2452 48 24.5 48Z" fill="#FFBF0B"/>
<path d="M8 41.3999C10.325 43.6499 13.175 45.3749 16.25 46.4999V14.7749L8 15.5249V41.3999Z" fill="#0B85FF"/>
<path d="M41.0752 41.3999C38.7502 43.6499 35.9002 45.3749 32.8252 46.4999V14.7749L41.0752 15.5249V41.3999Z" fill="#0B85FF"/>
<path d="M20.6 30.0001C20.3 30.0751 20 29.8501 20 29.5501C20 28.3501 20 25.6501 20 25.6501C20 22.8751 22.025 20.8501 24.5 20.8501H24.575C27.05 20.8501 29 22.8001 29 25.2751C29 26.9251 29 28.6501 29 29.4751C29 29.7751 28.7 30.0001 28.4 29.9251C25.775 29.2501 23.225 29.2501 20.6 30.0001Z" fill="#1A1A54"/>
<path d="M24.5 26.1748C22.85 26.1748 21.35 26.9998 20 28.5748C20 28.9498 20 29.3248 20 29.6248C20 29.9248 20.3 30.1498 20.6 30.0748C23.225 29.3248 25.85 29.3248 28.4 30.0748C28.7 30.1498 29 29.9248 29 29.6248C29 29.3248 29 29.0248 29 28.5748C27.65 27.0748 26.15 26.1748 24.5 26.1748Z" fill="#DC2863"/>
<path d="M7.4751 15.4502C8.2251 14.4752 9.2001 13.8752 10.2501 13.4252C11.3001 12.9752 12.5001 12.8252 13.6251 12.8252C14.7501 12.9002 15.8751 13.1252 16.9251 13.5752C17.4501 13.8002 17.9001 14.1002 18.3501 14.4002C18.8001 14.7002 19.1751 15.0752 19.5501 15.5252C19.7751 15.8252 19.7751 16.2752 19.4751 16.5002C19.3251 16.5752 19.1751 16.6502 19.0251 16.6502H18.9501C18.4251 16.6502 17.9001 16.5752 17.4501 16.5752C17.0001 16.5752 16.5501 16.5002 16.1001 16.4252C15.2001 16.3502 14.3751 16.3502 13.4751 16.2752C12.6501 16.2752 11.8251 16.3502 10.9251 16.4252C10.1001 16.5002 9.1251 16.6502 8.2251 16.7252H8.0001C7.5501 16.8002 7.1751 16.4252 7.1001 15.9752C7.2501 15.8252 7.3251 15.6752 7.4751 15.4502Z" fill="#1A1A54"/>
<path d="M40.6249 16.7999C39.7249 16.7249 38.8249 16.5749 37.9249 16.4999C37.0999 16.4249 36.1999 16.3499 35.3749 16.3499C34.5499 16.3499 33.6499 16.3499 32.7499 16.4999C32.2999 16.4999 31.8499 16.5749 31.3999 16.6499C30.9499 16.6499 30.4249 16.7999 29.8999 16.7249H29.8249C29.4499 16.7249 29.1499 16.4249 29.1499 16.0499C29.1499 15.8999 29.2249 15.7499 29.2999 15.5999C29.6749 15.1499 30.0499 14.7749 30.4999 14.4749C30.9499 14.1749 31.3999 13.8749 31.9249 13.6499C32.9749 13.1999 34.0999 12.9749 35.2249 12.8999C36.3499 12.8999 37.5499 13.0499 38.5999 13.4999C39.6499 13.9499 40.6249 14.5499 41.3749 15.5249C41.6749 15.8999 41.5999 16.4249 41.2249 16.6499C41.0749 16.7999 40.8499 16.7999 40.6249 16.7999Z" fill="#1A1A54"/>
</g>
<defs>
<clipPath id="clip0_656_5036">
<rect width="48" height="48" fill="white" transform="translate(0.5)"/>
</clipPath>
</defs>
</svg>
