<svg width="1001" height="1001" viewBox="0 0 1001 1001" fill="none" xmlns="http://www.w3.org/2000/svg">
<rect width="1001" height="1001" fill="white"/>
<path d="M476.495 376.001C476.495 306.965 399.785 251 305.158 251V376.001H476.495Z" fill="#00B5EF"/>
<path d="M611.767 393.846H335.879C318.916 393.846 305.164 407.597 305.164 424.56V720.276C305.164 737.239 318.916 750.99 335.879 750.99H611.767V393.846Z" fill="#FF9F31"/>
<path d="M611.767 393.846H335.879C318.916 393.846 305.164 407.597 305.164 424.56V720.276C305.164 737.239 318.916 750.99 335.879 750.99H611.767V393.846Z" fill="#FF9F31"/>
<mask id="mask0_513_4473" style="mask-type:alpha" maskUnits="userSpaceOnUse" x="305" y="393" width="307" height="358">
<path d="M611.762 393.855H335.873C318.91 393.855 305.159 407.607 305.159 424.57V720.286C305.159 737.249 318.91 751 335.873 751H611.762V393.855Z" fill="black"/>
</mask>
<g mask="url(#mask0_513_4473)">
<ellipse cx="510.684" cy="501.01" rx="205.52" ry="203.489" fill="#FFB901"/>
</g>
<path d="M629.805 572.418V393.846H729L661.592 472.417L720.208 523.132L629.805 572.418Z" fill="#00B5EF"/>
<path d="M470.002 482.445C470.002 513.328 495.29 538.381 526.507 538.381C557.723 538.381 583.012 513.328 583.012 482.445C583.012 451.561 557.723 426.508 526.507 426.508C495.29 426.508 470.002 451.561 470.002 482.445Z" fill="black" stroke="white" stroke-width="2"/>
<path fill-rule="evenodd" clip-rule="evenodd" d="M629.798 750.982C664.658 750.982 692.92 724.598 692.92 692.053C692.92 649.195 629.797 590.266 629.797 590.266C629.797 590.266 629.795 590.267 629.792 590.27H629.798V750.982Z" fill="#00B5EF"/>
<path d="M611.768 376.004C611.768 321.761 551.207 277.789 476.502 277.789V376.004H611.768Z" fill="#00B5EF"/>
<path d="M211.208 425.422L328.649 425.422" stroke="#FFB901" stroke-width="2" stroke-linecap="round"/>
<path d="M187.718 652.167L269.926 652.167" stroke="#FFB901" stroke-width="2" stroke-linecap="round"/>
<path d="M129 501.001L269.928 501.001" stroke="#FFB901" stroke-width="2" stroke-linecap="round"/>
<path d="M170.102 576.579L234.694 576.579" stroke="#FFB901" stroke-width="2" stroke-linecap="round"/>
<path d="M708.904 235.096H683.752L679.72 247H662.536L686.92 179.608H705.928L730.312 247H712.936L708.904 235.096ZM704.68 222.424L696.328 197.752L688.072 222.424H704.68ZM754.437 179.608V247H738.021V179.608H754.437Z" fill="#00B5EF"/>
</svg>
