<svg width="149" height="56" viewBox="0 0 149 56" fill="none" xmlns="http://www.w3.org/2000/svg">
<g filter="url(#filter0_d_535_6241)">
<g clip-path="url(#clip0_535_6241)">
<rect x="6" y="6" width="133" height="40" rx="20" fill="url(#paint0_linear_535_6241)"/>
<path d="M12.9173 24.4985C12.0046 18.9746 5.32587 15.478 -2 16.6885L-0.347328 26.6903L12.9173 24.4985Z" fill="#F4F9FF"/>
<path d="M23.626 24.1968L14.1775 25.758C6.28632 27.0619 0.94626 34.5161 2.25018 42.4073C3.55411 50.2985 11.0082 55.6386 18.8994 54.3346L28.3479 52.7734L23.626 24.1968Z" fill="#F4F9FF"/>
<path d="M23.626 24.1968L14.1775 25.758C6.28632 27.0619 0.94626 34.5161 2.25018 42.4073C3.55411 50.2985 11.0082 55.6386 18.8994 54.3346L28.3479 52.7734L23.626 24.1968Z" fill="#F4F9FF"/>
<mask id="mask0_535_6241" style="mask-type:alpha" maskUnits="userSpaceOnUse" x="2" y="24" width="27" height="31">
<path d="M23.6294 24.1968L14.181 25.758C6.28974 27.0619 0.949678 34.5161 2.2536 42.4073C3.55752 50.2985 11.0117 55.6386 18.9029 54.3346L28.3513 52.7734L23.6294 24.1968Z" fill="white"/>
</mask>
<g mask="url(#mask0_535_6241)">
<ellipse cx="17.2191" cy="34.067" rx="16.1268" ry="16.5028" transform="rotate(-9.38262 17.2191 34.067)" fill="#F4F9FF"/>
</g>
<path d="M27.3841 38.2574L25.0231 23.9691L32.7026 22.7002L28.5229 29.8494L33.7313 33.1574L27.3841 38.2574Z" fill="#F4F9FF"/>
<path d="M14.6757 32.9553C15.01 34.9778 16.8715 36.3168 18.7963 35.9987C20.7212 35.6807 22.0531 33.8141 21.7189 31.7915C21.3847 29.769 19.5231 28.43 17.5983 28.7481C15.6735 29.0661 14.3415 30.9327 14.6757 32.9553Z" fill="#F4F9FF" stroke="#0BA5F6" stroke-width="1.88603"/>
<path fill-rule="evenodd" clip-rule="evenodd" d="M24.1939 49.3175C24.1226 49.0979 24.067 48.8703 24.0284 48.6359C23.9944 48.4292 23.9774 48.2149 23.9753 47.9947L24.1939 49.3175ZM29.7451 52.5295C32.4032 52.0543 34.2068 49.6001 33.7819 47.0175C33.2533 43.8053 28.258 40.175 27.6301 39.7299L29.7451 52.5295ZM27.5768 39.6923C27.5692 39.6871 27.5654 39.6844 27.5654 39.6844C27.5654 39.6844 27.5626 39.6882 27.5571 39.6956L27.5768 39.6923Z" fill="#F4F9FF"/>
<path d="M23.3898 22.7649C22.6726 18.4247 17.4027 15.6811 11.6191 16.6367L12.9177 24.4953L23.3898 22.7649Z" fill="#F4F9FF"/>
<path d="M36.1499 27.1123L40.6959 26.3611" stroke="#F4F9FF" stroke-width="1.41452" stroke-linecap="round"/>
<path d="M35.6127 23.8576L38.7927 22.3764" stroke="#F4F9FF" stroke-width="1.41452" stroke-linecap="round"/>
<path d="M36.689 30.3652L40.1765 30.7448" stroke="#F4F9FF" stroke-width="1.41452" stroke-linecap="round"/>
<path d="M60.8853 20.976V31.334H58.3622V27.0698H54.4374V31.334H51.9143V20.976H54.4374V25.0336H58.3622V20.976H60.8853ZM62.2051 27.2026C62.2051 26.3567 62.3624 25.614 62.6772 24.9746C63.0018 24.3352 63.4395 23.8434 63.9904 23.4991C64.5412 23.1548 65.156 22.9827 65.8348 22.9827C66.4151 22.9827 66.9217 23.1007 67.3545 23.3368C67.7972 23.5729 68.1365 23.8828 68.3726 24.2664V23.1007H70.8957V31.334H68.3726V30.1683C68.1267 30.552 67.7824 30.8618 67.3398 31.0979C66.907 31.334 66.4004 31.452 65.82 31.452C65.1511 31.452 64.5412 31.2799 63.9904 30.9356C63.4395 30.5815 63.0018 30.0847 62.6772 29.4454C62.3624 28.7961 62.2051 28.0486 62.2051 27.2026ZM68.3726 27.2174C68.3726 26.5878 68.1955 26.0911 67.8414 25.7271C67.4971 25.3632 67.0742 25.1812 66.5725 25.1812C66.0708 25.1812 65.6429 25.3632 65.2888 25.7271C64.9445 26.0812 64.7724 26.5731 64.7724 27.2026C64.7724 27.8322 64.9445 28.3338 65.2888 28.7076C65.6429 29.0716 66.0708 29.2535 66.5725 29.2535C67.0742 29.2535 67.4971 29.0716 67.8414 28.7076C68.1955 28.3437 68.3726 27.8469 68.3726 27.2174ZM75.2441 20.4154V31.334H72.721V20.4154H75.2441ZM80.8203 31.452C80.0137 31.452 79.2858 31.2799 78.6366 30.9356C77.9972 30.5913 77.4906 30.0995 77.1168 29.4601C76.7529 28.8207 76.5709 28.0732 76.5709 27.2174C76.5709 26.3714 76.7578 25.6288 77.1316 24.9894C77.5054 24.3402 78.0169 23.8434 78.6661 23.4991C79.3153 23.1548 80.0432 22.9827 80.8498 22.9827C81.6564 22.9827 82.3843 23.1548 83.0336 23.4991C83.6828 23.8434 84.1943 24.3402 84.5681 24.9894C84.9419 25.6288 85.1288 26.3714 85.1288 27.2174C85.1288 28.0633 84.9369 28.8109 84.5533 29.4601C84.1795 30.0995 83.6631 30.5913 83.0041 30.9356C82.3548 31.2799 81.6269 31.452 80.8203 31.452ZM80.8203 29.2683C81.3023 29.2683 81.7105 29.0912 82.045 28.7371C82.3893 28.383 82.5614 27.8764 82.5614 27.2174C82.5614 26.5583 82.3942 26.0517 82.0597 25.6976C81.7351 25.3435 81.3318 25.1664 80.8498 25.1664C80.358 25.1664 79.9498 25.3435 79.6252 25.6976C79.3006 26.0419 79.1383 26.5485 79.1383 27.2174C79.1383 27.8764 79.2957 28.383 79.6104 28.7371C79.935 29.0912 80.3383 29.2683 80.8203 29.2683ZM91.7496 31.334L89.5953 27.4239H88.9904V31.334H86.4673V20.976H90.702C91.5184 20.976 92.2119 21.1187 92.7824 21.4039C93.3628 21.6892 93.7956 22.0827 94.0808 22.5843C94.3661 23.0762 94.5087 23.627 94.5087 24.2369C94.5087 24.9254 94.312 25.5402 93.9185 26.0812C93.5349 26.6223 92.9644 27.0059 92.207 27.2321L94.5973 31.334H91.7496ZM88.9904 25.6386H90.5544C91.0167 25.6386 91.361 25.5255 91.5873 25.2992C91.8233 25.073 91.9414 24.7533 91.9414 24.3402C91.9414 23.9467 91.8233 23.6368 91.5873 23.4106C91.361 23.1844 91.0167 23.0712 90.5544 23.0712H88.9904V25.6386ZM103.854 27.0846C103.854 27.3207 103.839 27.5666 103.809 27.8223H98.0992C98.1386 28.3338 98.3009 28.7273 98.5862 29.0027C98.8812 29.2683 99.2403 29.4011 99.6633 29.4011C100.293 29.4011 100.731 29.1355 100.976 28.6043H103.662C103.524 29.1453 103.273 29.6323 102.909 30.0651C102.555 30.4979 102.108 30.8372 101.567 31.0832C101.026 31.3291 100.421 31.452 99.7518 31.452C98.9452 31.452 98.2271 31.2799 97.5976 30.9356C96.968 30.5913 96.4762 30.0995 96.1221 29.4601C95.768 28.8207 95.5909 28.0732 95.5909 27.2174C95.5909 26.3616 95.763 25.614 96.1073 24.9746C96.4614 24.3352 96.9533 23.8434 97.5828 23.4991C98.2124 23.1548 98.9354 22.9827 99.7518 22.9827C100.549 22.9827 101.257 23.1499 101.876 23.4844C102.496 23.8188 102.978 24.2959 103.322 24.9156C103.677 25.5353 103.854 26.2583 103.854 27.0846ZM101.272 26.4206C101.272 25.9878 101.124 25.6435 100.829 25.3878C100.534 25.132 100.165 25.0041 99.7223 25.0041C99.2993 25.0041 98.9403 25.1271 98.6452 25.373C98.3599 25.6189 98.1829 25.9681 98.114 26.4206H101.272ZM110.216 31.334L107.708 27.8813V31.334H105.185V20.4154H107.708V26.4501L110.201 23.1007H113.315L109.892 27.2321L113.344 31.334H110.216ZM117.764 25.0769H115.188L114.745 26.334H113.692L115.896 20.1723H117.065L119.269 26.334H118.207L117.764 25.0769ZM117.481 24.2535L116.481 21.394L115.471 24.2535H117.481ZM121.502 20.1812V26.334H120.493V20.1812H121.502Z" fill="white"/>
</g>
</g>
<defs>
<filter id="filter0_d_535_6241" x="0" y="0" width="149" height="56" filterUnits="userSpaceOnUse" color-interpolation-filters="sRGB">
<feFlood flood-opacity="0" result="BackgroundImageFix"/>
<feColorMatrix in="SourceAlpha" type="matrix" values="0 0 0 0 0 0 0 0 0 0 0 0 0 0 0 0 0 0 127 0" result="hardAlpha"/>
<feOffset dx="2" dy="2"/>
<feGaussianBlur stdDeviation="4"/>
<feComposite in2="hardAlpha" operator="out"/>
<feColorMatrix type="matrix" values="0 0 0 0 0 0 0 0 0 0 0 0 0 0 0 0 0 0 0.25 0"/>
<feBlend mode="normal" in2="BackgroundImageFix" result="effect1_dropShadow_535_6241"/>
<feBlend mode="normal" in="SourceGraphic" in2="effect1_dropShadow_535_6241" result="shape"/>
</filter>
<linearGradient id="paint0_linear_535_6241" x1="6" y1="26" x2="49.8947" y2="-36.54" gradientUnits="userSpaceOnUse">
<stop stop-color="#1B8DFF"/>
<stop offset="1" stop-color="#00B5EF"/>
</linearGradient>
<clipPath id="clip0_535_6241">
<rect x="6" y="6" width="133" height="40" rx="20" fill="white"/>
</clipPath>
</defs>
</svg>
