<svg width="304" height="305" viewBox="0 0 304 305" fill="none" xmlns="http://www.w3.org/2000/svg">
<mask id="mask0_529_5003" style="mask-type:alpha" maskUnits="userSpaceOnUse" x="0" y="0" width="329" height="302">
<ellipse cx="164.593" cy="151.144" rx="168.505" ry="145.434" transform="rotate(-26.9491 164.593 151.144)" fill="#D9D9D9"/>
</mask>
<g mask="url(#mask0_529_5003)">
<path d="M288.902 203.37C301.711 180.819 300.985 138.3 298.279 134.933C297.162 133.543 288.964 139.145 279.138 146.298C277.874 181.449 275.145 201.193 265.277 236.498C273.616 226.505 282.426 214.771 288.902 203.37Z" fill="#1BA3C4"/>
<path d="M243.037 170.557C232.634 172.256 189.007 193.125 186.441 214.18C184.387 231.024 224.483 250.998 244.787 258.88C249.418 254.377 257.122 246.27 265.277 236.498C275.145 201.193 277.874 181.449 279.138 146.298C265.174 156.463 247.922 169.759 243.037 170.557Z" fill="#0289A6"/>
<path d="M289.719 152.332C257.704 196.726 245.069 221.656 225.949 264.558" stroke="black" stroke-width="1.8109" stroke-linecap="round"/>
<path d="M185.631 207.102C176.541 251.54 190.295 253.067 194.54 265.968L257.068 246.233C259.002 242.395 264.592 231.824 267.045 221.825L205.98 163.257C196.489 177.501 188.59 192.632 185.631 207.102Z" fill="#0EB2B6"/>
<path fill-rule="evenodd" clip-rule="evenodd" d="M257.707 80.5089C259.438 80.2923 263.509 81.8965 265.942 90.0453C268.983 100.231 271.204 119.039 273.393 138.527C275.99 161.638 273.131 197.008 267.045 221.825C260.506 199.413 252.492 185.693 245.456 167.718C245.427 167.646 245.399 167.573 245.37 167.5C241.166 156.781 236.195 145.51 229.654 132.102C233.454 127.549 237.102 123.303 240.411 119.452L240.412 119.452C248.223 110.361 254.143 103.471 255.705 99.9239C259.951 90.2766 258.809 82.9609 257.707 80.5089Z" fill="#37CFD2"/>
<path fill-rule="evenodd" clip-rule="evenodd" d="M220.786 143.011C231.723 147.376 239.187 155.247 245.37 167.5C245.399 167.573 245.427 167.646 245.456 167.718C241.234 156.934 236.239 145.601 229.654 132.102C226.758 135.572 223.775 139.221 220.786 143.011Z" fill="#37CFD2"/>
<path d="M205.98 163.257L267.045 221.825C260.506 199.413 252.492 185.693 245.456 167.718L245.37 167.5C239.187 155.247 231.723 147.376 220.786 143.011C215.731 149.42 210.662 156.231 205.98 163.257Z" fill="#0EB2B6"/>
<path d="M257.686 119.192C232.283 168.687 223.386 195.667 210.713 241.697" stroke="black" stroke-width="1.18228" stroke-linecap="round"/>
<path d="M47.1628 168.597C50.0125 165.522 54.07 161.791 57.2865 158.957L56.9888 148.833L51.3314 158.361C48.6516 163.125 47.1628 168.597 47.1628 168.597Z" fill="#F4B689"/>
<rect x="55.739" y="118.513" width="38.8777" height="73.5032" rx="4.76408" transform="rotate(-1.14613 55.739 118.513)" fill="#CED6DE"/>
<circle cx="62.4832" cy="125.144" r="3.57306" transform="rotate(-1.14613 62.4832 125.144)" fill="#07042D"/>
<circle cx="62.6499" cy="133.48" r="3.57306" transform="rotate(-1.14613 62.6499 133.48)" fill="#07042D"/>
<circle cx="69.7114" cy="129.169" r="2.38204" transform="rotate(-1.14613 69.7114 129.169)" fill="#07042D"/>
<path d="M58.4775 207.788C66.9734 207.411 72.277 207.592 76.3618 207.876C76.6595 207.897 76.9506 207.918 77.236 207.94V195.878C79.3203 193.992 83.8462 189.804 85.2754 188.137C87.062 186.052 88.5507 181.884 88.5507 180.097C88.5507 178.668 86.7642 177.517 85.8709 177.12C87.062 175.929 89.5036 172.951 89.7418 170.569C89.98 168.187 87.2605 166.996 85.8709 166.698C86.8635 165.408 88.6103 162.172 87.6575 159.552C86.7047 156.932 82.8934 156.475 81.1069 156.575C82.2979 154.689 83.9653 150.381 81.1069 148.237C77.5338 145.558 69.1967 149.131 64.7303 152.704C62.8616 154.199 60.4938 156.13 57.2864 158.957C54.0699 161.791 50.0124 165.522 47.1628 168.597C46.0625 169.784 45.0535 170.948 44.1852 172.058C39.8975 177.537 42.9942 199.468 45.0785 209.749C47.4525 208.913 51.1586 208.114 58.4775 207.788Z" fill="#FFCAA6"/>
<path fill-rule="evenodd" clip-rule="evenodd" d="M162.99 201.536V192.603C162.99 192.603 174.007 194.687 185.321 192.603C196.636 190.519 207.951 177.12 207.951 177.12V187.541V201.536H162.99Z" fill="#FFCAA6"/>
<path d="M207.951 161.041H162.99V190.221V192.603C162.99 192.603 174.007 194.687 185.321 192.603C196.636 190.519 207.951 177.12 207.951 177.12V161.041Z" fill="#F4B689"/>
<path d="M35.2526 255.131C35.5503 278.059 37.8331 296.122 39.1234 311.109L73.9631 318.146L88.3736 319.256L111.478 321.035C111.478 321.035 112.073 283.716 112.967 266.148C113.86 248.581 118.624 221.485 118.624 221.485C105.979 228.357 97.6483 239.121 91.0547 246.747C90.5063 247.381 89.9699 247.994 89.444 248.581L87.6575 214.637L83.4889 214.041C83.4889 214.041 72.472 214.041 61.7528 215.232C51.0336 216.423 40.6121 218.21 40.6121 218.21L36.1458 219.103C35.8481 227.44 34.9548 232.204 35.2526 255.131Z" fill="#7595DE"/>
<path d="M215.692 214.041V201.536H207.951H162.99H153.164L152.568 212.553C150.848 212.553 149.268 212.568 147.804 212.603C147.804 212.603 144.826 239.053 143.338 262.278C141.849 285.503 142.444 321.035 142.444 321.035H216.585V262.278C216.585 245.603 219.483 214.041 219.483 214.041H215.692Z" fill="#7595DE"/>
<path d="M252.316 321.035H293.704C293.704 321.035 289.238 288.182 278.816 263.171C268.395 238.159 251.721 227.143 251.721 227.143C251.721 227.143 250.827 248.879 250.827 266.148C250.827 283.418 252.316 321.035 252.316 321.035Z" fill="#7595DE"/>
<path d="M298.17 321.035C295.987 309.72 291.143 275.855 289.238 270.615C288.026 267.281 283.498 256.545 276.242 245.901C274.023 242.645 271.548 239.397 268.835 236.373C262.989 229.857 256.037 224.378 248.148 222.081C248.148 222.081 248.743 249.325 248.743 266.148C248.743 282.972 248.148 321.035 248.148 321.035H252.316C252.316 321.035 250.827 283.418 250.827 266.148C250.827 248.879 251.721 227.143 251.721 227.143C251.721 227.143 268.395 238.159 278.816 263.171C289.238 288.182 293.704 321.035 293.704 321.035H298.17Z" fill="#6277C6"/>
<path d="M139.765 262.278C139.169 272.997 138.574 321.035 138.574 321.035H142.444C142.444 321.035 141.849 285.503 143.338 262.278C144.826 239.053 147.804 212.603 147.804 212.603C147.082 212.62 146.388 212.643 145.72 212.67C145.72 212.67 140.36 251.558 139.765 262.278Z" fill="#6277C6"/>
<path d="M40.6121 211.659V218.21C40.6121 218.21 51.0336 216.423 61.7528 215.232C72.472 214.041 83.4889 214.041 83.4889 214.041L82.5956 208.384C80.9137 208.257 79.2116 208.089 77.236 207.94C76.9506 207.918 76.6595 207.897 76.3618 207.876C72.277 207.592 66.9734 207.411 58.4775 207.788C51.1586 208.114 47.4525 208.913 45.0785 209.749C43.1063 210.444 42.0534 211.164 40.6121 211.659Z" fill="#6277C6"/>
<path d="M216.585 321.035H248.148C248.148 321.035 248.743 282.972 248.743 266.148C248.743 249.325 248.148 222.081 248.148 222.081C248.148 222.081 249.934 217.614 235.046 213.446C220.159 209.277 219.483 214.041 219.483 214.041C219.483 214.041 216.585 245.603 216.585 262.278V321.035Z" fill="#FFCE5D"/>
<path d="M111.478 321.035H138.574C138.574 321.035 139.169 272.997 139.765 262.278C140.36 251.558 145.72 212.67 145.72 212.67C143.635 211.659 134.669 211.873 129.641 214.041C128.814 214.398 127.641 214.914 126.366 215.531C122.965 217.176 118.841 219.536 118.624 221.485C118.624 221.485 113.86 248.581 112.967 266.148C112.073 283.716 111.478 321.035 111.478 321.035Z" fill="#FFCE5D"/>
<path d="M152.568 212.553L153.164 201.536H162.99V192.603V190.221C162.99 190.221 151.079 190.221 142.444 193.198C133.81 196.176 126.068 201.833 126.068 201.833L126.366 215.531C127.641 214.914 128.814 214.398 129.641 214.041C134.669 211.873 143.635 211.659 145.72 212.67C146.388 212.643 147.082 212.62 147.804 212.603C149.268 212.568 150.848 212.553 152.568 212.553Z" fill="#FFAB4B"/>
<path d="M215.692 201.536V214.041H219.483C219.483 214.041 220.159 209.277 235.046 213.446C249.934 217.614 248.148 222.081 248.148 222.081C256.037 224.378 262.989 229.857 268.835 236.373C267.894 232.403 265.834 221.664 265.12 210.468C264.405 199.273 272.365 194.29 276.434 193.198C276.434 193.198 265.12 188.434 242.788 187.541C220.456 186.648 207.951 187.541 207.951 187.541V201.536H215.692Z" fill="#FFAB4B"/>
<path d="M290.429 212.553C289.238 199.213 280.603 194.092 276.434 193.198C272.365 194.29 264.405 199.273 265.12 210.468C265.834 221.664 267.894 232.403 268.835 236.373C271.548 239.397 274.023 242.645 276.242 245.901C278.589 246.199 284.057 246.258 287.153 244.115C288.301 243.32 289.187 241.688 289.827 239.35C291.345 233.803 291.476 224.283 290.429 212.553Z" fill="#FFCE5D"/>
<path d="M289.238 270.615C291.143 275.855 295.987 309.72 298.17 321.035L301.743 311.109C301.743 311.109 302.637 298.008 300.552 274.188C298.468 250.367 294.002 239.35 294.002 239.35H289.827C289.187 241.688 288.301 243.32 287.153 244.115C284.057 246.258 278.589 246.199 276.242 245.901C283.498 256.545 288.026 267.281 289.238 270.615Z" fill="#FFCE5D"/>
<path d="M77.8312 158.063L64.73 164.614" stroke="#F4B689" stroke-width="1.78653" stroke-linecap="round"/>
<path d="M80.8085 169.378L67.7073 175.333" stroke="#F4B689" stroke-width="1.78653" stroke-linecap="round"/>
<path d="M82 178.905L70.6853 186.647" stroke="#F4B689" stroke-width="1.78653" stroke-linecap="round"/>
<path opacity="0.4" d="M89.1467 253.941C89.1467 253.941 88.2534 257.514 88.2534 278.655C88.2534 299.796 90.9332 304.858 90.9332 304.858" stroke="#6277C6" stroke-width="1.78653" stroke-linecap="round"/>
<path opacity="0.4" d="M155.546 217.02C155.546 217.02 158.822 214.34 184.131 214.936C209.44 215.531 212.715 217.02 212.715 217.02" stroke="#6277C6" stroke-width="1.78653" stroke-linecap="round"/>
<path d="M182.18 109.497V115.503C182.18 115.503 187.811 114.377 193.442 115.878C199.073 117.38 203.577 121.134 203.577 121.134C203.577 121.134 201.7 112.875 195.319 110.623C188.937 108.371 182.18 109.497 182.18 109.497Z" fill="#593235"/>
<path d="M158.906 109.121V115.878C158.906 115.878 154.402 113.626 149.522 114.001C144.642 114.377 141.263 117.005 141.263 117.005C141.263 117.005 142.014 110.248 147.269 109.121C152.525 107.995 158.906 109.121 158.906 109.121Z" fill="#593235"/>
<path d="M224.224 127.515C231.356 125.639 236.236 129.392 238.488 132.396C240.365 127.515 243.969 115.053 243.368 104.241C242.618 90.7275 236.611 74.5858 232.858 66.3273C231.666 63.7047 229.338 59.7193 226.56 55.441C222.778 51.9374 214.013 44.8551 209.208 44.5548C204.403 44.2545 201.2 48.9343 200.199 51.3118C194.943 46.8071 182.631 37.6477 175.423 37.047C168.216 36.4464 165.913 43.5537 165.663 47.1825C162.16 45.5558 153.801 43.5037 148.395 48.3087C142.99 53.1136 144.141 63.8247 145.392 68.5796C144.141 68.3293 140.737 68.054 137.134 68.955C133.818 69.784 130.671 73.4314 129.215 75.5682C129.462 80.9495 132.728 87.023 134.805 89.9767C134.728 87.9824 134.774 86.3294 134.881 85.4721C135.182 83.0696 136.758 76.8381 139.386 74.2104H215.214C215.214 74.2104 216.341 76.0874 216.716 80.9674C217.091 85.8474 216.716 87.349 216.716 87.349L222.806 127.891C223.258 127.77 223.73 127.645 224.224 127.515Z" fill="#593235"/>
<path d="M209.208 34.4193C204.328 32.5424 199.073 34.7947 199.073 37.7978C199.073 40.2003 199.323 42.5527 199.448 43.4286C195.069 39.2994 184.808 30.9658 178.802 30.6654C171.294 30.2901 163.036 32.5424 162.285 35.5455C161.684 37.948 162.785 40.0501 163.411 40.8009C159.157 40.1753 149.747 39.1492 146.143 40.0501C141.638 41.1763 138.26 44.9302 138.26 51.6871C138.26 57.0927 141.013 62.198 142.389 64.0749C139.386 63.8247 132.704 64.8257 130.001 70.8319C129.357 72.2646 129.138 73.8825 129.215 75.5682C130.671 73.4314 133.818 69.784 137.134 68.955C140.737 68.054 144.141 68.3293 145.392 68.5796C144.141 63.8247 142.99 53.1136 148.395 48.3087C153.801 43.5037 162.16 45.5558 165.663 47.1825C165.913 43.5537 168.216 36.4464 175.423 37.047C182.631 37.6477 194.943 46.8071 200.199 51.3118C201.2 48.9343 204.403 44.2545 209.208 44.5548C214.013 44.8551 222.778 51.9374 226.56 55.441C220.589 46.247 212.539 35.7002 209.208 34.4193Z" fill="#785048"/>
<path d="M177.3 87.349C177.601 84.9465 178.927 80.3418 179.553 78.3397L173.922 77.9643C173.672 80.2166 173.021 85.1717 172.42 86.9736C172.248 87.4894 171.939 88.2807 171.541 89.2259H177.124C177.173 88.4965 177.237 87.858 177.3 87.349Z" fill="#573333"/>
<path d="M212.211 117.38C212.812 122.185 214.213 127.891 214.839 130.143C215.335 129.978 216.779 129.54 219.344 128.83L213.713 92.6044C213.098 93.4428 212.316 94.4834 211.445 95.6075C211.445 95.6075 211.847 100.112 211.841 106.869C211.836 113.626 212.211 117.38 212.211 117.38Z" fill="#593235"/>
<path d="M138.635 104.241C135.953 102.096 134.996 94.9675 134.805 89.9767L135.218 106.306L135.632 122.635C135.632 122.635 136.383 128.642 136.758 129.955C137.134 131.269 137.885 137.276 137.885 137.276C137.885 137.276 138.635 126.014 138.635 120.383C138.635 114.752 140.512 105.494 140.512 105.494C139.864 105.141 139.24 104.725 138.635 104.241Z" fill="#593235"/>
<path fill-rule="evenodd" clip-rule="evenodd" d="M219.719 154.168C217.842 158.673 211.385 169.934 200.574 178.944C193.169 185.115 185.459 186.824 179.928 186.846C178.552 186.965 173.772 186.827 165.663 185.325C155.528 183.448 146.894 171.436 142.765 163.177C139.461 156.57 138.635 150.414 138.635 148.162L137.885 137.276C137.885 137.276 138.635 126.014 138.635 120.383C138.635 114.752 140.512 105.494 140.512 105.494C143.889 107.336 147.922 107.499 153.275 106.869C159.657 106.118 164.537 101.989 166.414 99.3614C167.861 97.3354 170.201 92.4085 171.541 89.2259H177.124C176.884 92.8001 176.995 98.5598 179.177 101.989C181.805 106.118 185.934 106.869 191.94 107.245C196.745 107.545 200.95 106.118 202.451 105.368C204.317 104.435 208.417 99.5165 211.445 95.6075C211.445 95.6075 211.847 100.112 211.841 106.869C211.836 113.626 212.211 117.38 212.211 117.38C212.812 122.185 214.213 127.891 214.839 130.143C215.335 129.978 216.779 129.54 219.344 128.83C220.329 128.557 221.48 128.244 222.806 127.891C223.258 127.77 223.73 127.645 224.224 127.515C231.356 125.639 236.236 129.392 238.488 132.396C240.741 135.399 243.744 141.78 237.362 148.913C232.257 154.618 223.473 154.794 219.719 154.168ZM158.906 109.121V115.878C158.906 115.878 154.402 113.626 149.522 114.001C144.642 114.377 141.263 117.005 141.263 117.005C141.263 117.005 142.014 110.248 147.269 109.121C152.525 107.995 158.906 109.121 158.906 109.121ZM182.18 109.497V115.503C182.18 115.503 187.811 114.377 193.442 115.878C199.073 117.38 203.577 121.134 203.577 121.134C203.577 121.134 201.7 112.875 195.319 110.623C188.937 108.371 182.18 109.497 182.18 109.497ZM185.559 150.414C185.855 152.102 186.057 154.197 186.038 156.42C186.013 159.371 185.598 162.548 184.496 165.298C182.92 169.233 179.936 172.292 174.673 172.562C170.479 172.777 167.54 171.651 165.517 169.887C162.771 167.491 161.715 163.918 161.504 160.93C161.437 159.973 161.456 159.076 161.534 158.297C161.534 158.297 166.789 158.297 173.922 156.42C181.054 154.543 185.559 150.414 185.559 150.414Z" fill="#FFCAA6"/>
<path d="M135.632 122.635C131.253 122.51 122.494 124.738 122.494 134.648C122.494 144.558 133.255 147.786 138.635 148.162L137.885 137.276C137.885 137.276 137.134 131.269 136.758 129.955C136.383 128.642 135.632 122.635 135.632 122.635Z" fill="#FFCAA6"/>
<path fill-rule="evenodd" clip-rule="evenodd" d="M211.445 79.4659L184.808 79.0905C183.329 80.8464 180.881 84.7593 180.066 89.2259H211.445V90.4724C213.176 85.9238 212.275 81.4266 211.445 79.4659Z" fill="#593235"/>
<path fill-rule="evenodd" clip-rule="evenodd" d="M167.916 79.0905H141.638C140.387 80.3418 137.809 84.421 137.509 90.7275C137.289 95.3582 138.493 99.2117 141.198 101.679L143.438 89.2259H168.422C169.892 84.5048 168.782 80.6069 167.916 79.0905Z" fill="#593235"/>
<path fill-rule="evenodd" clip-rule="evenodd" d="M213.713 92.6044L219.344 128.83C220.329 128.557 221.48 128.244 222.806 127.891L216.716 87.349C216.716 87.349 217.091 85.8474 216.716 80.9674C216.341 76.0874 215.214 74.2104 215.214 74.2104H139.386C136.758 76.8381 135.182 83.0696 134.881 85.4721C134.774 86.3294 134.728 87.9824 134.805 89.9767C134.996 94.9675 135.953 102.096 138.635 104.241C139.24 104.725 139.864 105.141 140.512 105.494L141.198 101.679C138.493 99.2117 137.289 95.3582 137.509 90.7275C137.809 84.421 140.387 80.3418 141.638 79.0905H167.916C168.782 80.6069 169.892 84.5048 168.422 89.2259H171.541C171.939 88.2807 172.248 87.4894 172.42 86.9736C173.021 85.1717 173.672 80.2166 173.922 77.9643L179.553 78.3397C178.927 80.3418 177.601 84.9465 177.3 87.349C177.237 87.858 177.173 88.4965 177.124 89.2259H180.066C180.881 84.7593 183.329 80.8464 184.808 79.0905L211.445 79.4659C212.275 81.4266 213.176 85.9238 211.445 90.4724V95.6075C212.316 94.4834 213.098 93.4428 213.713 92.6044Z" fill="#593235"/>
<path d="M149.146 104.617C157.405 104.992 164.162 98.6106 167.54 91.4783C167.903 90.7115 168.194 89.9588 168.422 89.2259H143.438L141.198 101.679C143.098 103.412 145.739 104.462 149.146 104.617Z" fill="#FFCAA6"/>
<path d="M153.275 106.869C159.657 106.118 164.537 101.989 166.414 99.3614C167.861 97.3354 170.201 92.4085 171.541 89.2259H168.422C168.194 89.9588 167.903 90.7115 167.54 91.4783C164.162 98.6106 157.405 104.992 149.146 104.617C145.739 104.462 143.098 103.412 141.198 101.679L140.512 105.494C143.889 107.336 147.922 107.499 153.275 106.869Z" fill="#FFCAA6"/>
<path d="M202.451 105.368C204.317 104.435 208.417 99.5165 211.445 95.6075V90.4724C211.077 91.4389 210.591 92.4078 209.959 93.3552C205.454 100.112 199.448 104.992 193.442 104.617C187.436 104.241 181.054 101.989 179.928 94.106C179.692 92.4573 179.777 90.8069 180.066 89.2259H177.124C176.884 92.8001 176.995 98.5598 179.177 101.989C181.805 106.118 185.934 106.869 191.94 107.245C196.745 107.545 200.95 106.118 202.451 105.368Z" fill="#FFCAA6"/>
<path d="M193.442 104.617C199.448 104.992 205.454 100.112 209.959 93.3552C210.591 92.4078 211.077 91.4389 211.445 90.4724V89.2259H180.066C179.777 90.8069 179.692 92.4573 179.928 94.106C181.054 101.989 187.436 104.241 193.442 104.617Z" fill="#FFCAA6"/>
<path d="M173.922 156.42C166.789 158.297 161.534 158.297 161.534 158.297C161.456 159.076 161.437 159.973 161.504 160.93C163.13 161.812 168.102 163.118 174.985 161.283C181.868 159.447 185.222 157.276 186.038 156.42C186.057 154.197 185.855 152.102 185.559 150.414C185.559 150.414 181.054 154.543 173.922 156.42Z" fill="white"/>
<path d="M174.985 161.283C168.102 163.118 163.13 161.812 161.504 160.93C161.715 163.918 162.771 167.491 165.517 169.887C166.261 168.299 168.965 164.93 173.838 164.151C178.71 163.372 182.974 164.591 184.496 165.298C185.598 162.548 186.013 159.371 186.038 156.42C185.222 157.276 181.868 159.447 174.985 161.283Z" fill="#9C3A2D"/>
<path d="M165.517 169.887C167.54 171.651 170.479 172.777 174.673 172.562C179.936 172.292 182.92 169.233 184.496 165.298C182.974 164.591 178.71 163.372 173.838 164.151C168.965 164.93 166.261 168.299 165.517 169.887Z" fill="#D86F5C"/>
<ellipse cx="151.399" cy="132.019" rx="2.62771" ry="4.50465" fill="#07042D"/>
<ellipse cx="189.689" cy="132.019" rx="2.62771" ry="4.50465" fill="#07042D"/>
<path d="M162.989 127.097C162.989 127.097 163.584 130.967 162.989 138.114C162.393 145.26 159.416 142.878 159.416 147.046C159.416 151.215 163.584 153.895 163.584 153.895" stroke="#D89B6E" stroke-width="1.19102" stroke-linecap="round"/>
<g opacity="0.4">
<path d="M181.307 260.946C181.307 255.423 175.231 250.946 167.736 250.946V260.946H181.307Z" fill="white"/>
<path d="M192.021 262.375H182.021C174.132 262.375 167.736 268.771 167.736 276.661C167.736 284.551 174.132 290.946 182.021 290.946H192.021V262.375Z" fill="white"/>
<path d="M192.021 262.375H182.021C174.132 262.375 167.736 268.771 167.736 276.661C167.736 284.551 174.132 290.946 182.021 290.946H192.021V262.375Z" fill="white"/>
<mask id="mask1_529_5003" style="mask-type:alpha" maskUnits="userSpaceOnUse" x="167" y="262" width="26" height="29">
<path d="M192.021 262.375H182.021C174.131 262.375 167.735 268.771 167.735 276.661C167.735 284.551 174.131 290.946 182.021 290.946H192.021V262.375Z" fill="black"/>
</mask>
<g mask="url(#mask1_529_5003)">
<circle cx="184.015" cy="270.946" r="16.2791" fill="white"/>
</g>
<path d="M193.45 276.661V262.375H201.307L195.968 268.661L200.611 272.718L193.45 276.661Z" fill="white"/>
<circle cx="4.55492" cy="4.55492" r="3.62469" transform="matrix(-1 0 0 1 189.823 264.907)" fill="white" stroke="#7595DE" stroke-width="1.86047"/>
<path fill-rule="evenodd" clip-rule="evenodd" d="M193.432 290.946C193.438 290.946 193.444 290.946 193.45 290.946C196.211 290.946 198.45 288.835 198.45 286.232C198.45 282.803 193.45 278.089 193.45 278.089C193.45 278.089 193.45 278.089 193.45 278.089H193.45V290.946H193.432Z" fill="white"/>
<path d="M192.022 260.946C192.022 256.607 187.225 253.089 181.307 253.089V260.946H192.022Z" fill="white"/>
<path d="M160.294 264.899L169.596 264.899" stroke="white" stroke-width="1.86047" stroke-linecap="round"/>
<path d="M158.433 283.039L164.945 283.039" stroke="white" stroke-width="1.86047" stroke-linecap="round"/>
<path d="M153.782 270.946L164.945 270.946" stroke="white" stroke-width="1.86047" stroke-linecap="round"/>
<path d="M157.038 276.993L162.154 276.993" stroke="white" stroke-width="1.86047" stroke-linecap="round"/>
</g>
</g>
<mask id="path-34-outside-1_529_5003" maskUnits="userSpaceOnUse" x="37.3244" y="50.0938" width="37.1645" height="41.7581" fill="black">
<rect fill="white" x="37.3244" y="50.0938" width="37.1645" height="41.7581"/>
<path fill-rule="evenodd" clip-rule="evenodd" d="M43.2075 57.6542C40.6502 58.4533 39.2249 61.1742 40.024 63.7314L44.8469 79.166C45.646 81.7232 48.3669 83.1485 50.9241 82.3494L66.3587 77.5265C68.9159 76.7275 70.3412 74.0066 69.5422 71.4493L64.7193 56.0148C63.9202 53.4575 61.1993 52.0322 58.642 52.8313L43.2075 57.6542ZM63.7624 78.3378L60.8201 85.1868L54.5017 81.2316L63.7624 78.3378Z"/>
</mask>
<path d="M40.024 63.7314L40.9785 63.4332L40.024 63.7314ZM44.8469 79.166L43.8924 79.4642L44.8469 79.166ZM69.5422 71.4493L70.4966 71.1511L69.5422 71.4493ZM64.7193 56.0148L63.7648 56.313L64.7193 56.0148ZM60.8201 85.1868L60.2895 86.0344L61.2784 86.6535L61.7389 85.5815L60.8201 85.1868ZM63.7624 78.3378L64.6812 78.7326L65.5395 76.7349L63.4642 77.3834L63.7624 78.3378ZM54.5017 81.2316L54.2035 80.2771L52.1282 80.9256L53.9711 82.0792L54.5017 81.2316ZM40.9785 63.4332C40.3441 61.403 41.4756 59.2431 43.5058 58.6087L42.9093 56.6997C39.8248 57.6635 38.1057 60.9453 39.0695 64.0297L40.9785 63.4332ZM45.8014 78.8677L40.9785 63.4332L39.0695 64.0297L43.8924 79.4642L45.8014 78.8677ZM50.6259 81.395C48.5958 82.0293 46.4358 80.8978 45.8014 78.8677L43.8924 79.4642C44.8562 82.5486 48.138 84.2677 51.2224 83.3039L50.6259 81.395ZM66.0604 76.5721L50.6259 81.395L51.2224 83.3039L66.6569 78.481L66.0604 76.5721ZM68.5877 71.7476C69.222 73.7777 68.0905 75.9377 66.0604 76.5721L66.6569 78.481C69.7413 77.5172 71.4604 74.2355 70.4966 71.1511L68.5877 71.7476ZM63.7648 56.313L68.5877 71.7476L70.4966 71.1511L65.6737 55.7165L63.7648 56.313ZM58.9403 53.7858C60.9704 53.1514 63.1304 54.2829 63.7648 56.313L65.6737 55.7165C64.7099 52.6321 61.4282 50.913 58.3438 51.8768L58.9403 53.7858ZM43.5058 58.6087L58.9403 53.7858L58.3438 51.8768L42.9093 56.6997L43.5058 58.6087ZM61.7389 85.5815L64.6812 78.7326L62.8436 77.9431L59.9013 84.7921L61.7389 85.5815ZM53.9711 82.0792L60.2895 86.0344L61.3507 84.3392L55.0323 80.384L53.9711 82.0792ZM63.4642 77.3834L54.2035 80.2771L54.8 82.1861L64.0607 79.2923L63.4642 77.3834Z" fill="#304862" mask="url(#path-34-outside-1_529_5003)"/>
<g clip-path="url(#clip0_529_5003)">
<path d="M61.5096 60.9649L61.658 61.4397C61.6776 61.5027 61.6707 61.5711 61.6386 61.63C61.6065 61.6889 61.5519 61.7334 61.4868 61.7538L60.7509 61.9837L60.8622 62.3398C60.9236 62.5365 60.8087 62.7474 60.6055 62.8109L48.5853 66.5669C48.3821 66.6304 48.1675 66.5224 48.1061 66.3258L47.9948 65.9697L47.2589 66.1996C47.1938 66.22 47.1236 66.2144 47.0637 66.1843C47.0038 66.1542 46.9591 66.1018 46.9394 66.0389L46.791 65.5641C46.7764 65.5171 46.7764 65.4667 46.7912 65.4192C46.806 65.3718 46.8348 65.3294 46.874 65.2974L53.172 60.4631C53.2245 60.4203 53.292 60.3992 53.3596 60.4045L61.2896 60.7929C61.34 60.7968 61.3879 60.8153 61.427 60.8459C61.4662 60.8765 61.4949 60.9179 61.5096 60.9649ZM63.5925 70.2159L50.3458 74.3552C49.9394 74.4822 49.7095 74.904 49.8324 75.2973L49.9808 75.7721C50.0005 75.8351 50.0452 75.8874 50.1051 75.9175C50.165 75.9477 50.2352 75.9532 50.3003 75.9329L64.5282 71.487C64.5933 71.4667 64.6479 71.4222 64.68 71.3633C64.7121 71.3044 64.719 71.2359 64.6994 71.173L64.551 70.6982C64.4281 70.3048 63.999 70.0889 63.5925 70.2159ZM49.8376 66.6967L51.6179 72.3942L50.514 72.7392C50.3108 72.8027 50.1959 73.0136 50.2573 73.2103L50.4428 73.8037L63.1989 69.8178L63.0134 69.2243C62.952 69.0276 62.7374 68.9197 62.5342 68.9832L61.4303 69.3281L59.65 63.6306L57.6875 64.2438L59.4678 69.9413L57.5053 70.5546L55.725 64.8571L53.7625 65.4703L55.5429 71.1678L53.5804 71.781L51.8001 66.0835L49.8376 66.6967Z" fill="#304862"/>
</g>
<mask id="path-37-outside-2_529_5003" maskUnits="userSpaceOnUse" x="70.1763" y="77.363" width="29.5722" height="33.4063" fill="black">
<rect fill="white" x="70.1763" y="77.363" width="29.5722" height="33.4063"/>
<path fill-rule="evenodd" clip-rule="evenodd" d="M80.9647 79.3942C78.805 78.9287 76.6768 80.3021 76.2112 82.4618L73.4013 95.4968C72.9357 97.6566 74.3091 99.7848 76.4688 100.25L79.4837 100.9L82.1444 105.813L86.5929 102.433L89.5039 103.06C91.6636 103.526 93.7918 102.152 94.2574 99.9927L97.0673 86.9577C97.5329 84.798 96.1595 82.6697 93.9998 82.2042L80.9647 79.3942Z"/>
</mask>
<path d="M80.9647 79.3942L80.754 80.3718L80.9647 79.3942ZM76.4688 100.25L76.6796 99.2728L76.4688 100.25ZM79.4837 100.9L80.3631 100.424L80.1441 100.02L79.6945 99.9227L79.4837 100.9ZM82.1444 105.813L81.265 106.29L81.8206 107.316L82.7494 106.61L82.1444 105.813ZM86.5929 102.433L86.8036 101.455L86.354 101.358L85.9878 101.637L86.5929 102.433ZM89.5039 103.06L89.7146 102.083L89.5039 103.06ZM93.9998 82.2042L94.2105 81.2266L93.9998 82.2042ZM77.1888 82.6725C77.5379 81.0527 79.1342 80.0226 80.754 80.3718L81.1754 78.4167C78.4758 77.8348 75.8156 79.5515 75.2337 82.2511L77.1888 82.6725ZM74.3788 95.7076L77.1888 82.6725L75.2337 82.2511L72.4237 95.2861L74.3788 95.7076ZM76.6796 99.2728C75.0597 98.9236 74.0296 97.3274 74.3788 95.7076L72.4237 95.2861C71.8418 97.9857 73.5585 100.646 76.2581 101.228L76.6796 99.2728ZM79.6945 99.9227L76.6796 99.2728L76.2581 101.228L79.273 101.878L79.6945 99.9227ZM78.6044 101.376L81.265 106.29L83.0237 105.337L80.3631 100.424L78.6044 101.376ZM82.7494 106.61L87.1979 103.229L85.9878 101.637L81.5393 105.017L82.7494 106.61ZM89.7146 102.083L86.8036 101.455L86.3821 103.41L89.2931 104.038L89.7146 102.083ZM93.2798 99.782C92.9306 101.402 91.3344 102.432 89.7146 102.083L89.2931 104.038C91.9927 104.62 94.653 102.903 95.2349 100.203L93.2798 99.782ZM96.0898 86.747L93.2798 99.782L95.2349 100.203L98.0448 87.1684L96.0898 86.747ZM93.789 83.1817C95.4089 83.5309 96.4389 85.1271 96.0898 86.747L98.0448 87.1684C98.6268 84.4688 96.9101 81.8086 94.2105 81.2266L93.789 83.1817ZM80.754 80.3718L93.789 83.1817L94.2105 81.2266L81.1754 78.4167L80.754 80.3718Z" fill="#CB9964" mask="url(#path-37-outside-2_529_5003)"/>
<g clip-path="url(#clip1_529_5003)">
<path d="M90.6587 94.7658C90.5987 94.7529 90.5367 94.7519 90.4763 94.7629C90.4159 94.7739 90.3582 94.7967 90.3067 94.83C90.2551 94.8633 90.2105 94.9064 90.1756 94.9569C90.1407 95.0075 90.1161 95.0643 90.1031 95.1244L89.9234 95.958L87.0396 86.995L88.0454 85.8841C88.1283 85.7922 88.1713 85.6711 88.1651 85.5474C88.1588 85.4237 88.1038 85.3076 88.012 85.2245C87.9202 85.1413 87.7992 85.098 87.6755 85.104C87.5518 85.11 87.4356 85.1648 87.3523 85.2564L86.7088 85.9671L86.4151 85.0544C86.3965 84.9956 86.3665 84.9412 86.3268 84.8941C86.287 84.847 86.2384 84.8082 86.1837 84.7799C86.1289 84.7517 86.0691 84.7345 86.0077 84.7294C85.9463 84.7244 85.8846 84.7315 85.8259 84.7504C85.7673 84.7693 85.7129 84.7995 85.666 84.8395C85.6191 84.8794 85.5806 84.9282 85.5526 84.9831C85.5246 85.038 85.5078 85.0979 85.503 85.1593C85.4983 85.2207 85.5057 85.2825 85.5249 85.341L85.9839 86.7675L79.6636 93.7463L79.8433 92.9127C79.8562 92.8527 79.8572 92.7907 79.8462 92.7303C79.8352 92.6699 79.8124 92.6122 79.7791 92.5606C79.7458 92.509 79.7026 92.4645 79.6521 92.4296C79.6016 92.3947 79.5447 92.37 79.4847 92.3571C79.4247 92.3441 79.3627 92.3432 79.3023 92.3542C79.2419 92.3652 79.1843 92.388 79.1327 92.4213C79.0811 92.4546 79.0366 92.4977 79.0016 92.5482C78.9667 92.5987 78.9421 92.6556 78.9291 92.7156L78.3819 95.2542C78.3713 95.3087 78.3705 95.3647 78.3796 95.4194C78.3816 95.4333 78.3837 95.4463 78.3869 95.4599C78.3898 95.4722 78.3897 95.4848 78.3937 95.497C78.4061 95.5355 78.4235 95.5722 78.4455 95.6062C78.4457 95.6066 78.4458 95.607 78.446 95.6074C78.4759 95.6516 78.5131 95.6904 78.5561 95.722C78.5668 95.7302 78.5775 95.7374 78.5889 95.7447C78.635 95.7756 78.6862 95.798 78.7402 95.8108L82.5494 96.6319L83.2501 93.3814C83.3518 92.9099 83.6365 92.4981 84.0418 92.2366C84.447 91.9751 84.9395 91.8853 85.411 91.9869C85.8825 92.0886 86.2943 92.3733 86.5558 92.7786C86.8173 93.1838 86.9071 93.6763 86.8055 94.1478L86.1048 97.3983L89.9142 98.2195C89.9686 98.2301 90.0245 98.2309 90.0792 98.2217C90.0927 98.2197 90.1055 98.2175 90.1186 98.2145C90.1708 98.2034 90.2207 98.1834 90.2661 98.1554C90.2664 98.1552 90.2667 98.1548 90.2671 98.1545C90.3011 98.1326 90.3321 98.1063 90.3593 98.0764C90.3679 98.067 90.373 98.0555 90.3807 98.0455C90.3892 98.0344 90.3966 98.0233 90.4042 98.0114C90.435 97.9653 90.4573 97.914 90.47 97.86L91.0173 95.3214C91.0302 95.2614 91.0312 95.1994 91.0202 95.139C91.0092 95.0786 90.9864 95.021 90.9531 94.9694C90.9198 94.9178 90.8766 94.8732 90.8261 94.8383C90.7756 94.8034 90.7187 94.7788 90.6587 94.7658Z" fill="#CB9964"/>
</g>
<mask id="path-40-outside-3_529_5003" maskUnits="userSpaceOnUse" x="70.1585" y="23.8021" width="39.031" height="45.6749" fill="black">
<rect fill="white" x="70.1585" y="23.8021" width="39.031" height="45.6749"/>
<path fill-rule="evenodd" clip-rule="evenodd" d="M83.1648 25.859C79.9974 25.3552 77.0213 27.5145 76.5174 30.6819L73.4766 49.7989C72.9728 52.9663 75.132 55.9424 78.2995 56.4462L81.8764 57.0152L86.5472 64.6183L93.3465 58.8397L97.4164 59.487C100.584 59.9909 103.56 57.8316 104.064 54.6642L107.105 35.5472C107.608 32.3798 105.449 29.4037 102.282 28.8999L83.1648 25.859Z"/>
</mask>
<path d="M76.5174 30.6819L77.505 30.839L76.5174 30.6819ZM73.4766 49.7989L72.489 49.6418L73.4766 49.7989ZM81.8764 57.0152L82.7285 56.4917L82.4877 56.0998L82.0335 56.0276L81.8764 57.0152ZM86.5472 64.6183L85.6951 65.1418L86.3058 66.1358L87.1948 65.3803L86.5472 64.6183ZM93.3465 58.8397L93.5036 57.8521L93.0494 57.7798L92.6989 58.0777L93.3465 58.8397ZM104.064 54.6642L103.076 54.5071L104.064 54.6642ZM107.105 35.5472L108.092 35.7043L107.105 35.5472ZM77.505 30.839C77.9221 28.217 80.3857 26.4295 83.0077 26.8466L83.3219 24.8714C79.609 24.2809 76.1204 26.812 75.5299 30.5248L77.505 30.839ZM74.4642 49.9559L77.505 30.839L75.5299 30.5248L72.489 49.6418L74.4642 49.9559ZM78.4565 55.4586C75.8346 55.0416 74.0471 52.5779 74.4642 49.9559L72.489 49.6418C71.8984 53.3546 74.4295 56.8432 78.1424 57.4338L78.4565 55.4586ZM82.0335 56.0276L78.4565 55.4586L78.1424 57.4338L81.7193 58.0028L82.0335 56.0276ZM81.0243 57.5386L85.6951 65.1418L87.3992 64.0949L82.7285 56.4917L81.0243 57.5386ZM87.1948 65.3803L93.9941 59.6016L92.6989 58.0777L85.8996 63.8563L87.1948 65.3803ZM97.5735 58.4995L93.5036 57.8521L93.1894 59.8272L97.2593 60.4746L97.5735 58.4995ZM103.076 54.5071C102.659 57.1291 100.196 58.9165 97.5735 58.4995L97.2593 60.4746C100.972 61.0652 104.461 58.5341 105.051 54.8213L103.076 54.5071ZM106.117 35.3901L103.076 54.5071L105.051 54.8213L108.092 35.7043L106.117 35.3901ZM102.125 29.8874C104.747 30.3045 106.534 32.7681 106.117 35.3901L108.092 35.7043C108.683 31.9915 106.152 28.5029 102.439 27.9123L102.125 29.8874ZM83.0077 26.8466L102.125 29.8874L102.439 27.9123L83.3219 24.8714L83.0077 26.8466Z" fill="#14A7A0" mask="url(#path-40-outside-3_529_5003)"/>
<g clip-path="url(#clip2_529_5003)">
<path d="M98.488 50.781L96.1625 44.711C96.0555 44.4308 95.8769 44.1836 95.6445 43.9941C95.412 43.8046 95.1339 43.6794 94.8379 43.6311C94.542 43.5827 94.2385 43.6129 93.9578 43.7186C93.6771 43.8243 93.4291 44.0019 93.2386 44.2334L94.0861 46.4448C94.1505 46.613 94.1455 46.7999 94.0722 46.9645C93.9988 47.129 93.8631 47.2576 93.6949 47.3221C93.5267 47.3865 93.3398 47.3815 93.1753 47.3082C93.0108 47.2348 92.8822 47.0991 92.8177 46.9309L92.2499 45.4493L92.2488 45.4507L90.6359 41.2409C90.4986 40.8823 90.2694 40.5662 89.9712 40.3244C89.673 40.0825 89.3163 39.9234 88.9372 39.8631C88.558 39.8028 88.1696 39.8434 87.8111 39.9808C87.4525 40.1182 87.1365 40.3475 86.8947 40.6458L86.8948 40.6454L80.9394 47.9896C80.8643 48.0822 80.8149 48.1929 80.7962 48.3105C80.7775 48.4282 80.79 48.5488 80.8326 48.6601C80.8753 48.7713 80.9464 48.8695 81.039 48.9445C81.1316 49.0196 81.2423 49.0689 81.3599 49.0876L97.7475 51.6943C97.8652 51.7131 97.9858 51.7005 98.0971 51.6578C98.2083 51.6152 98.3064 51.544 98.3815 51.4515C98.4565 51.3589 98.5059 51.2482 98.5246 51.1305C98.5433 51.0128 98.5307 50.8923 98.488 50.781Z" fill="#14A7A0"/>
<path d="M94.3092 40.4557C95.9136 40.7109 97.4211 39.6171 97.6763 38.0128C97.9315 36.4084 96.8378 34.9009 95.2334 34.6457C93.629 34.3905 92.1215 35.4842 91.8663 37.0886C91.6111 38.693 92.7048 40.2005 94.3092 40.4557Z" fill="#FFCC73"/>
</g>
<defs>
<clipPath id="clip0_529_5003">
<rect width="16.979" height="16.979" fill="white" transform="translate(44.4133 61.5127) rotate(-17.3527)"/>
</clipPath>
<clipPath id="clip1_529_5003">
<rect width="14.0012" height="14.0012" fill="white" transform="translate(80.2622 82.6528) rotate(12.165)"/>
</clipPath>
<clipPath id="clip2_529_5003">
<rect width="20.3252" height="20.3252" fill="white" transform="translate(82.4045 30.6382) rotate(9.03801)"/>
</clipPath>
</defs>
</svg>
