<svg width="13" height="13" viewBox="0 0 13 13" fill="none" xmlns="http://www.w3.org/2000/svg">
<g clip-path="url(#clip0_249_158)">
<path fill-rule="evenodd" clip-rule="evenodd" d="M9.60263 6.35835C9.60263 4.38604 8.00419 2.78711 6.0325 2.78711C5.12623 2.78711 4.30177 3.1274 3.67219 3.68391H3.6719C3.5715 3.77282 3.47641 3.86734 3.38635 3.96689C1.66772 5.55637 2.29523 7.9307 1.45068 8.77108C0.423346 9.79341 0.54176 11.3903 2.25743 11.6733C6.08417 12.3048 8.36445 9.06587 8.36445 9.06587C8.94825 8.4299 9.60263 7.28941 9.60263 6.35835Z" fill="#FAAC28"/>
<path fill-rule="evenodd" clip-rule="evenodd" d="M9.30538 4.93359C9.30538 4.94541 9.30716 4.95663 9.30716 4.96845C9.30716 6.0543 8.54382 7.38443 7.86316 8.12585C7.86316 8.12585 5.40452 11.6144 1.25 11.2307C1.48742 11.4425 1.81963 11.6008 2.25726 11.6729C6.084 12.3041 8.36428 9.06548 8.36428 9.06548C8.94778 8.42951 9.60245 7.28902 9.60245 6.35795C9.60245 5.85136 9.49556 5.37018 9.30538 4.93359Z" fill="#FAAC28"/>
<path fill-rule="evenodd" clip-rule="evenodd" d="M12.1371 2.73383C9.37134 0.0972013 8.22559 2.82806 8.22559 2.82806C8.22559 2.82806 9.50127 5.50044 12.1371 2.73383Z" fill="#229857"/>
<path fill-rule="evenodd" clip-rule="evenodd" d="M12.1381 2.7334L8.22656 2.82763C8.22656 2.82763 9.50224 5.5 12.1381 2.7334Z" fill="#229857"/>
<path fill-rule="evenodd" clip-rule="evenodd" d="M3.06748 6.89684C3.05685 6.89684 3.04592 6.89595 3.03499 6.89448C2.91392 6.87675 2.83035 6.76421 2.84807 6.6431C2.85693 6.58284 3.07427 5.15819 3.90228 4.50804C3.99855 4.43271 4.13763 4.44955 4.21323 4.54555C4.28882 4.64155 4.27199 4.78098 4.17572 4.85659C3.48562 5.39893 3.28836 6.6942 3.28629 6.7075C3.27035 6.81738 3.17556 6.89684 3.06748 6.89684Z" fill="#FEFEFE"/>
<path fill-rule="evenodd" clip-rule="evenodd" d="M4.90948 3.98566C5.03144 4.08904 5.0468 4.27189 4.94315 4.39389C4.83979 4.51618 4.65701 4.53124 4.53505 4.42785C4.41309 4.32447 4.39774 4.14162 4.50138 4.01933C4.60474 3.89734 4.78753 3.88227 4.90948 3.98566Z" fill="#FEFEFE"/>
</g>
<defs>
<clipPath id="clip0_249_158">
<rect width="12" height="12" fill="white" transform="translate(0.5 0.109375)"/>
</clipPath>
</defs>
</svg>
