<svg width="12" height="12" viewBox="0 0 12 12" fill="none" xmlns="http://www.w3.org/2000/svg">
<path d="M10.8983 8.38069C10.8457 8.38068 10.7936 8.39104 10.7449 8.41118C10.6963 8.43132 10.6521 8.46084 10.6149 8.49805C10.5777 8.53526 10.5482 8.57944 10.5281 8.62806C10.5079 8.67669 10.4976 8.7288 10.4976 8.78142V9.51234L6.46262 2.52378L7.10466 1.41137C7.15753 1.31935 7.17173 1.21011 7.14415 1.10763C7.11658 1.00515 7.04947 0.917788 6.95756 0.864722C6.86566 0.811656 6.75645 0.797217 6.65391 0.824572C6.55137 0.851927 6.46386 0.918842 6.4106 1.01064L5.99986 1.72231L5.5889 1.01064C5.56272 0.964784 5.52773 0.924559 5.48596 0.892269C5.44418 0.85998 5.39643 0.836264 5.34546 0.822484C5.29449 0.808704 5.2413 0.805131 5.18895 0.811971C5.13659 0.81881 5.08611 0.835928 5.04039 0.86234C4.99467 0.888752 4.95462 0.923937 4.92254 0.965875C4.89046 1.00781 4.86698 1.05568 4.85346 1.10671C4.83993 1.15775 4.83662 1.21096 4.84373 1.26328C4.85083 1.3156 4.8682 1.366 4.89484 1.41159L5.53707 2.52378L1.50216 9.51234V8.78142C1.50216 8.7288 1.49179 8.67669 1.47165 8.62807C1.45151 8.57945 1.422 8.53527 1.38478 8.49806C1.34757 8.46085 1.3034 8.43133 1.25478 8.41119C1.20616 8.39105 1.15405 8.38069 1.10142 8.38069C1.04879 8.38069 0.996685 8.39105 0.948065 8.41119C0.899445 8.43133 0.855269 8.46085 0.818057 8.49806C0.780845 8.53527 0.751327 8.57945 0.731188 8.62807C0.711049 8.67669 0.700684 8.7288 0.700684 8.78142V11.0071C0.701625 11.0547 0.71107 11.1017 0.728574 11.146C0.73276 11.1573 0.73689 11.1678 0.742027 11.1786C0.746675 11.1884 0.748904 11.199 0.754395 11.2085C0.77177 11.2385 0.792986 11.2661 0.817505 11.2905C0.817777 11.2909 0.817941 11.2912 0.818209 11.2915C0.851193 11.3232 0.889397 11.3489 0.93114 11.3676C0.941605 11.3726 0.951823 11.3767 0.96275 11.3807C1.00692 11.3983 1.05389 11.4078 1.10142 11.4087H4.44116V8.55882C4.44116 8.14546 4.60536 7.74902 4.89766 7.45673C5.18995 7.16444 5.58639 7.00023 5.99975 7.00023C6.41311 7.00023 6.80955 7.16444 7.10184 7.45673C7.39414 7.74902 7.55834 8.14546 7.55834 8.55882V11.4087H10.8983C10.9458 11.4078 10.9928 11.3983 11.0369 11.3807C11.0479 11.3767 11.0582 11.3725 11.0686 11.3676C11.1104 11.3489 11.1485 11.3231 11.1815 11.2915C11.1818 11.2912 11.1819 11.2909 11.1822 11.2905C11.2067 11.266 11.2279 11.2385 11.2453 11.2085C11.2508 11.199 11.253 11.1885 11.2577 11.1787C11.2628 11.1679 11.267 11.1573 11.2712 11.1459C11.2887 11.1017 11.2981 11.0547 11.299 11.0071V8.78142C11.299 8.7288 11.2887 8.67669 11.2685 8.62806C11.2484 8.57944 11.2189 8.53526 11.1817 8.49805C11.1445 8.46084 11.1003 8.43132 11.0517 8.41118C11.003 8.39104 10.9509 8.38068 10.8983 8.38069Z" fill="#CB9964"/>
</svg>
