<svg width="13" height="13" viewBox="0 0 13 13" fill="none" xmlns="http://www.w3.org/2000/svg">
<path d="M6.655 6.67785C6.56 6.67785 6.465 6.64285 6.39 6.56785C6.245 6.42285 6.245 6.18285 6.39 6.03785L10.49 1.93785C10.635 1.79285 10.875 1.79285 11.02 1.93785C11.165 2.08285 11.165 2.32285 11.02 2.46785L6.92 6.56785C6.845 6.64285 6.75 6.67785 6.655 6.67785Z" fill="#292D32"/>
<path d="M11.1539 4.57773C10.9489 4.57773 10.7789 4.40773 10.7789 4.20273V2.17773H8.75391C8.54891 2.17773 8.37891 2.00773 8.37891 1.80273C8.37891 1.59773 8.54891 1.42773 8.75391 1.42773H11.1539C11.3589 1.42773 11.5289 1.59773 11.5289 1.80273V4.20273C11.5289 4.40773 11.3589 4.57773 11.1539 4.57773Z" fill="#292D32"/>
<path d="M7.6543 12.1777H4.6543C1.9393 12.1777 0.779297 11.0177 0.779297 8.30273V5.30273C0.779297 2.58773 1.9393 1.42773 4.6543 1.42773H5.6543C5.8593 1.42773 6.0293 1.59773 6.0293 1.80273C6.0293 2.00773 5.8593 2.17773 5.6543 2.17773H4.6543C2.3493 2.17773 1.5293 2.99773 1.5293 5.30273V8.30273C1.5293 10.6077 2.3493 11.4277 4.6543 11.4277H7.6543C9.9593 11.4277 10.7793 10.6077 10.7793 8.30273V7.30273C10.7793 7.09773 10.9493 6.92773 11.1543 6.92773C11.3593 6.92773 11.5293 7.09773 11.5293 7.30273V8.30273C11.5293 11.0177 10.3693 12.1777 7.6543 12.1777Z" fill="#292D32"/>
</svg>
