<svg width="15" height="16" viewBox="0 0 15 16" fill="none" xmlns="http://www.w3.org/2000/svg">
<g clip-path="url(#clip0_249_423)">
<path d="M13.5 3.97175H11.6803L11.9862 2.13613C12.077 1.59113 11.7089 1.07613 11.1643 0.98519C10.6165 0.895347 10.1043 1.26303 10.0134 1.80707L9.65312 3.97175H6.68125L6.98716 2.13613C7.07797 1.59113 6.70981 1.07613 6.16528 0.98519C5.61747 0.895347 5.10528 1.26303 5.01434 1.80707L4.65312 3.97175H2.5C1.94781 3.97175 1.5 4.41957 1.5 4.97175C1.5 5.553 1.94781 5.97175 2.5 5.97175H4.31969L3.65313 9.97175H1.5C0.947812 9.97175 0.5 10.4196 0.5 10.9718C0.5 11.5239 0.947812 11.9436 1.5 11.9436H3.31969L3.01378 13.7793C2.92297 14.3243 3.29112 14.8393 3.83566 14.9302C3.89062 14.9968 3.94687 14.9999 4 14.9999C4.48 14.9999 4.90375 14.6533 4.98531 14.1646L5.34594 11.9999H8.31844L8.01253 13.8355C7.92172 14.3805 8.28987 14.8955 8.83441 14.9864C8.89062 14.9968 8.94687 14.9999 9 14.9999C9.48 14.9999 9.90375 14.6533 9.98531 14.1646L10.3459 11.9999H12.5C13.0522 11.9999 13.5 11.5521 13.5 11.028C13.5 10.4758 13.0522 10.028 12.5 10.028H10.6803L11.3469 6.028H13.5C14.0522 6.028 14.5 5.5805 14.5 5.05613C14.5 4.44675 14.0531 3.97175 13.5 3.97175ZM8.65312 9.97175H5.68125L6.34688 5.97175H9.31938L8.65312 9.97175Z" fill="#00B5EF"/>
</g>
<defs>
<clipPath id="clip0_249_423">
<rect width="14" height="16" fill="white" transform="translate(0.5)"/>
</clipPath>
</defs>
</svg>
