<svg width="13" height="10" viewBox="0 0 13 10" fill="none" xmlns="http://www.w3.org/2000/svg">
<g clip-path="url(#clip0_249_273)">
<path d="M0.5 9.30957C0.5 9.63995 0.769625 9.90957 1.1 9.90957H2.3C2.63038 9.90957 2.9 9.63995 2.9 9.30957V3.30957H0.5V9.30957ZM11.3581 5.70957C11.6937 5.38332 11.9 5.00832 11.9 4.6052C11.9 3.6137 11.1172 2.84495 10.2523 2.30082C9.46475 1.80395 8.74044 1.21557 8.15225 0.496133L8 0.30957L7.84766 0.49707C7.25928 1.2167 6.53516 1.80488 5.74766 2.30176C4.88375 2.84645 4.1 3.6152 4.1 4.6052C4.1 5.00832 4.30625 5.38332 4.64188 5.70957H11.3581ZM1.7 0.30957C1.7 0.30957 0.5 0.90957 0.5 2.10957V2.70957H2.9V2.10957C2.9 0.90957 1.7 0.30957 1.7 0.30957ZM11.9 6.30957H4.1C3.77 6.30957 3.5 6.57957 3.5 6.90957V9.90957H4.7V8.70957C4.7 8.3792 4.96963 8.10957 5.3 8.10957C5.63038 8.10957 5.9 8.3792 5.9 8.70957V9.90957H7.1V8.55957C7.1 7.65957 8 7.20957 8 7.20957C8 7.20957 8.9 7.65957 8.9 8.55957V9.90957H10.1V8.70957C10.1 8.3792 10.3696 8.10957 10.7 8.10957C11.0304 8.10957 11.3 8.3792 11.3 8.70957V9.90957H12.5V6.90957C12.5 6.57957 12.23 6.30957 11.9 6.30957Z" fill="#14A7A0"/>
</g>
<defs>
<clipPath id="clip0_249_273">
<rect width="12" height="9.6" fill="white" transform="translate(0.5 0.30957)"/>
</clipPath>
</defs>
</svg>
