<svg width="21" height="20" viewBox="0 0 21 20" fill="none" xmlns="http://www.w3.org/2000/svg">
<path d="M10.0837 18.1248C5.37533 18.1248 1.54199 14.2915 1.54199 9.58317C1.54199 4.87484 5.37533 1.0415 10.0837 1.0415C14.792 1.0415 18.6253 4.87484 18.6253 9.58317C18.6253 14.2915 14.792 18.1248 10.0837 18.1248ZM10.0837 2.2915C6.05866 2.2915 2.79199 5.5665 2.79199 9.58317C2.79199 13.5998 6.05866 16.8748 10.0837 16.8748C14.1087 16.8748 17.3753 13.5998 17.3753 9.58317C17.3753 5.5665 14.1087 2.2915 10.0837 2.2915Z" fill="#00B5EF"/>
<path d="M18.8335 18.9585C18.6752 18.9585 18.5169 18.9002 18.3919 18.7752L16.7252 17.1085C16.4835 16.8669 16.4835 16.4669 16.7252 16.2252C16.9669 15.9835 17.3669 15.9835 17.6085 16.2252L19.2752 17.8919C19.5169 18.1335 19.5169 18.5335 19.2752 18.7752C19.1502 18.9002 18.9919 18.9585 18.8335 18.9585Z" fill="#00B5EF"/>
</svg>
