<svg width="298" height="304" viewBox="0 0 298 304" fill="none" xmlns="http://www.w3.org/2000/svg">
<g filter="url(#filter0_d_313_4040)">
<rect x="224.771" y="10.334" width="31.0028" height="31.0028" rx="5.16714" fill="white"/>
<path d="M250 21.0716V21.6772C250 21.7575 249.967 21.8345 249.909 21.8912C249.85 21.948 249.77 21.9799 249.687 21.9799H248.749V22.4341C248.749 22.6849 248.539 22.8882 248.28 22.8882H232.95C232.691 22.8882 232.48 22.6849 232.48 22.4341V21.9799H231.542C231.459 21.9799 231.379 21.948 231.321 21.8912C231.262 21.8345 231.229 21.7575 231.229 21.6772V21.0716C231.229 21.0117 231.247 20.9532 231.282 20.9034C231.316 20.8536 231.365 20.8148 231.422 20.7919L240.495 17.4615C240.572 17.4308 240.658 17.4308 240.734 17.4615L249.807 20.7919C249.864 20.8148 249.913 20.8536 249.947 20.9034C249.982 20.9532 250 21.0117 250 21.0716ZM249.062 32.5766H232.168C231.649 32.5766 231.229 32.9832 231.229 33.4849V34.0904C231.229 34.1707 231.262 34.2477 231.321 34.3045C231.379 34.3613 231.459 34.3932 231.542 34.3932H249.687C249.77 34.3932 249.85 34.3613 249.909 34.3045C249.967 34.2477 250 34.1707 250 34.0904V33.4849C250 32.9832 249.58 32.5766 249.062 32.5766ZM234.358 23.4937V30.76H232.95C232.691 30.76 232.48 30.9634 232.48 31.2142V31.9711H248.749V31.2142C248.749 30.9634 248.539 30.76 248.28 30.76H246.872V23.4937H244.369V30.76H241.866V23.4937H239.363V30.76H236.86V23.4937H234.358Z" fill="#304862"/>
</g>
<mask id="mask0_313_4040" style="mask-type:alpha" maskUnits="userSpaceOnUse" x="31" y="26" width="232" height="252">
<path d="M256.758 167.384L262.663 269.049C262.663 269.049 238.787 277.521 147.392 277.007C55.9967 276.494 31.8643 269.049 31.8643 269.049V161.993L44.9574 111.161L92.9656 101.662L113.247 44.925L150.473 26.6973L196.684 34.1424L224.924 108.08L212.088 150.44L256.758 167.384Z" fill="#D9D9D9"/>
</mask>
<g mask="url(#mask0_313_4040)">
<rect x="54.9077" y="119.847" width="31.5465" height="59.6427" rx="3.94332" transform="rotate(-1.14613 54.9077 119.847)" fill="#E0E3EA"/>
<circle cx="60.437" cy="125.159" r="2.95749" transform="rotate(-1.14613 60.437 125.159)" fill="#484F6F"/>
<circle cx="60.5751" cy="132.059" r="2.95749" transform="rotate(-1.14613 60.5751 132.059)" fill="#484F6F"/>
<circle cx="66.4199" cy="128.491" r="1.97166" transform="rotate(-1.14613 66.4199 128.491)" fill="#484F6F"/>
<path d="M47.1638 155.019C49.5225 152.474 52.8809 149.386 55.5433 147.04L55.2969 138.66L50.6142 146.547C48.3961 150.49 47.1638 155.019 47.1638 155.019Z" fill="#F17C78"/>
<path d="M56.5291 187.459C63.5614 187.146 67.9513 187.296 71.3324 187.532C71.5787 187.549 71.8197 187.566 72.056 187.584V177.601C73.7812 176.04 77.5273 172.573 78.7103 171.193C80.1891 169.468 81.4213 166.017 81.4213 164.538C81.4213 163.355 79.9426 162.402 79.2032 162.074C80.189 161.088 82.21 158.623 82.4072 156.652C82.6043 154.68 80.3534 153.694 79.2032 153.448C80.0247 152.38 81.4706 149.702 80.682 147.533C79.8933 145.364 76.7386 144.986 75.2599 145.068C76.2457 143.507 77.6259 139.942 75.2599 138.168C72.3024 135.949 65.4016 138.907 61.7047 141.864C60.158 143.102 58.1981 144.701 55.5433 147.04C52.8809 149.386 49.5225 152.474 47.1638 155.019C46.253 156.002 45.4179 156.966 44.6992 157.884C41.1502 162.419 43.7134 180.572 45.4386 189.082C47.4036 188.39 50.4712 187.728 56.5291 187.459Z" fill="#FD9F93"/>
<path fill-rule="evenodd" clip-rule="evenodd" d="M143.036 182.283V174.89C143.036 174.89 152.155 176.615 161.52 174.89C170.885 173.164 180.251 162.074 180.251 162.074V170.7V182.283H143.036Z" fill="#FD9F93"/>
<path d="M180.251 148.765H143.036V172.918V174.89C143.036 174.89 152.155 176.615 161.52 174.89C170.885 173.164 180.251 162.074 180.251 162.074V148.765Z" fill="#EF7D78"/>
<path d="M37.3055 226.646C37.5519 245.623 39.4414 260.575 40.5094 272.98L69.3469 278.804L100.399 281.195C100.399 281.195 100.891 250.306 101.631 235.765C102.37 221.224 106.314 198.796 106.314 198.796C94.9765 204.957 87.8292 214.898 82.1607 221.224L80.682 193.127L77.2316 192.635C77.2316 192.635 68.1126 192.635 59.2402 193.62C50.3677 194.606 41.7417 196.085 41.7417 196.085L38.0448 196.824C37.7984 203.725 37.059 207.668 37.3055 226.646Z" fill="#7595DE"/>
<path d="M186.659 192.635V182.283H180.251H143.036H134.903L134.41 191.402C132.986 191.402 131.678 191.415 130.466 191.444C130.466 191.444 128.002 213.337 126.769 232.561C125.537 251.784 126.03 281.195 126.03 281.195H187.398V232.561C187.398 218.759 189.796 192.635 189.796 192.635H186.659Z" fill="#7595DE"/>
<path d="M216.973 281.195H251.23C251.23 281.195 247.534 254.002 238.908 233.3C230.282 212.598 216.48 203.479 216.48 203.479C216.48 203.479 215.741 221.47 215.741 235.765C215.741 250.059 216.973 281.195 216.973 281.195Z" fill="#7595DE"/>
<path d="M254.927 281.195C253.12 271.83 249.111 243.799 247.534 239.461C246.53 236.702 242.782 227.816 236.777 219.006C234.94 216.31 232.891 213.622 230.646 211.119C225.807 205.726 220.053 201.19 213.522 199.289C213.522 199.289 214.015 221.84 214.015 235.765C214.015 249.689 213.522 281.195 213.522 281.195H216.973C216.973 281.195 215.741 250.059 215.741 235.765C215.741 221.47 216.48 203.479 216.48 203.479C216.48 203.479 230.282 212.598 238.908 233.3C247.534 254.002 251.23 281.195 251.23 281.195H254.927Z" fill="#6277C6"/>
<path d="M123.812 232.561C123.319 241.433 122.826 281.195 122.826 281.195H126.03C126.03 281.195 125.537 251.784 126.769 232.561C128.002 213.337 130.466 191.444 130.466 191.444C129.869 191.459 129.295 191.477 128.741 191.5C128.741 191.5 124.305 223.688 123.812 232.561Z" fill="#6277C6"/>
<path d="M41.7417 190.663V196.085C41.7417 196.085 50.3677 194.606 59.2402 193.62C68.1126 192.635 77.2316 192.635 77.2316 192.635L76.4922 187.952C75.1001 187.847 73.6911 187.708 72.056 187.584C71.8197 187.566 71.5787 187.549 71.3324 187.532C67.9513 187.296 63.5614 187.146 56.5291 187.459C50.4712 187.728 47.4036 188.39 45.4386 189.082C43.8061 189.657 42.9346 190.253 41.7417 190.663Z" fill="#6277C6"/>
<path d="M187.398 281.195H213.522C213.522 281.195 214.015 249.689 214.015 235.765C214.015 221.84 213.522 199.289 213.522 199.289C213.522 199.289 215.001 195.592 202.678 192.142C190.355 188.691 189.796 192.635 189.796 192.635C189.796 192.635 187.398 218.759 187.398 232.561V281.195Z" fill="#F39D46"/>
<path d="M100.399 281.195H122.826C122.826 281.195 123.319 241.433 123.812 232.561C124.305 223.688 128.741 191.5 128.741 191.5C127.016 190.663 119.595 190.84 115.432 192.635C114.748 192.93 113.777 193.357 112.721 193.868C109.907 195.23 106.493 197.183 106.314 198.796C106.314 198.796 102.37 221.224 101.631 235.765C100.891 250.306 100.399 281.195 100.399 281.195Z" fill="#F39D46"/>
<path d="M134.41 191.402L134.903 182.283H143.036V174.89V172.918C143.036 172.918 133.177 172.918 126.03 175.383C118.883 177.847 112.475 182.53 112.475 182.53L112.721 193.868C113.777 193.357 114.748 192.93 115.432 192.635C119.595 190.84 127.016 190.663 128.741 191.5C129.295 191.477 129.869 191.459 130.466 191.444C131.678 191.415 132.986 191.402 134.41 191.402Z" fill="#FFCE5D"/>
<path d="M186.659 182.283V192.635H189.796C189.796 192.635 190.355 188.691 202.678 192.142C215.001 195.592 213.522 199.289 213.522 199.289C220.053 201.19 225.807 205.726 230.646 211.119C229.867 207.833 228.162 198.944 227.571 189.677C226.979 180.41 233.568 176.286 236.936 175.383C236.936 175.383 227.571 171.439 209.086 170.7C190.602 169.961 180.251 170.7 180.251 170.7V182.283H186.659Z" fill="#FFCE5D"/>
<path d="M248.519 191.402C247.534 180.361 240.386 176.122 236.936 175.383C233.568 176.286 226.979 180.41 227.571 189.677C228.162 198.944 229.867 207.833 230.646 211.119C232.891 213.622 234.94 216.31 236.777 219.006C238.72 219.252 243.245 219.301 245.808 217.527C246.758 216.869 247.492 215.518 248.021 213.583C249.277 208.992 249.386 201.112 248.519 191.402Z" fill="#F39D46"/>
<path d="M247.534 239.461C249.111 243.799 253.12 271.83 254.927 281.195L257.885 272.98C257.885 272.98 258.624 262.136 256.899 242.419C255.174 222.702 251.477 213.583 251.477 213.583H248.021C247.492 215.518 246.758 216.869 245.808 217.527C243.245 219.301 238.72 219.252 236.777 219.006C242.782 227.816 246.53 236.702 247.534 239.461Z" fill="#FFCE5D"/>
<path d="M72.5487 146.301L61.7046 151.723" stroke="#C9524E" stroke-width="1.47874" stroke-linecap="round"/>
<path d="M75.0131 155.666L64.1689 160.595" stroke="#C9524E" stroke-width="1.47874" stroke-linecap="round"/>
<path d="M75.9992 163.552L66.6338 169.96" stroke="#C9524E" stroke-width="1.47874" stroke-linecap="round"/>
<path opacity="0.4" d="M81.9147 225.661C81.9147 225.661 81.1753 228.618 81.1753 246.117C81.1753 263.615 83.3934 267.805 83.3934 267.805" stroke="black" stroke-width="1.47874" stroke-linecap="round"/>
<path opacity="0.4" d="M136.875 195.1C136.875 195.1 139.586 192.882 160.534 193.375C181.483 193.868 184.194 195.1 184.194 195.1" stroke="black" stroke-width="1.47874" stroke-linecap="round"/>
<path d="M161.717 139.969C162.752 145.873 162.4 157.804 152.706 158.302C143.012 158.799 141.417 150.637 141.831 146.494C141.831 146.494 146.181 146.494 152.085 144.941C157.988 143.387 161.717 139.969 161.717 139.969Z" fill="white"/>
<path d="M158.92 106.101V111.073C158.92 111.073 163.581 110.141 168.242 111.384C172.902 112.626 176.631 115.734 176.631 115.734C176.631 115.734 175.077 108.898 169.795 107.034C164.513 105.169 158.92 106.101 158.92 106.101Z" fill="#593235"/>
<path d="M139.656 105.791V111.384C139.656 111.384 135.927 109.519 131.888 109.83C127.849 110.141 125.052 112.316 125.052 112.316C125.052 112.316 125.674 106.723 130.024 105.791C134.374 104.859 139.656 105.791 139.656 105.791Z" fill="#593235"/>
<path d="M193.72 121.016C199.624 119.462 203.663 122.569 205.528 125.055C207.081 121.016 210.064 110.7 209.567 101.751C208.945 90.5657 203.974 77.2049 200.867 70.3692C199.88 68.1985 197.953 64.8997 195.654 61.3585C192.524 58.4584 185.269 52.5963 181.292 52.3477C177.315 52.0991 174.663 55.9727 173.835 57.9406C169.485 54.212 159.293 46.6306 153.327 46.1334C147.362 45.6363 145.456 51.5191 145.249 54.5227C142.349 53.1763 135.43 51.4777 130.956 55.4549C126.482 59.432 127.435 68.2978 128.47 72.2335C127.435 72.0263 124.617 71.7985 121.634 72.5442C118.89 73.2304 116.285 76.2494 115.08 78.0181C115.284 82.4723 117.988 87.4994 119.707 89.9442C119.643 88.2936 119.681 86.9254 119.77 86.2157C120.019 84.2271 121.324 79.0692 123.499 76.8942H186.263C186.263 76.8942 187.195 78.4478 187.506 82.4871C187.817 86.5264 187.506 87.7693 187.506 87.7693L192.547 121.326C192.921 121.227 193.312 121.123 193.72 121.016Z" fill="#593235"/>
<path d="M181.292 43.9584C177.252 42.4048 172.902 44.2691 172.902 46.7549C172.902 48.7434 173.11 50.6906 173.213 51.4156C169.588 47.9977 161.095 41.0998 156.124 40.8513C149.91 40.5405 143.074 42.4048 142.452 44.8906C141.955 46.8791 142.867 48.6191 143.385 49.2406C139.863 48.7227 132.075 47.8734 129.092 48.6191C125.363 49.5513 122.567 52.6584 122.567 58.2513C122.567 62.7256 124.845 66.9513 125.985 68.5049C123.499 68.2978 117.968 69.1263 115.731 74.0978C115.197 75.2837 115.016 76.6228 115.08 78.0181C116.285 76.2494 118.89 73.2304 121.634 72.5442C124.617 71.7985 127.435 72.0263 128.47 72.2335C127.435 68.2978 126.482 59.432 130.956 55.4549C135.43 51.4777 142.349 53.1763 145.249 54.5227C145.456 51.5191 147.362 45.6363 153.327 46.1334C159.293 46.6306 169.485 54.212 173.835 57.9406C174.663 55.9727 177.315 52.0991 181.292 52.3477C185.269 52.5963 192.524 58.4584 195.654 61.3585C190.712 53.7484 184.048 45.0186 181.292 43.9584Z" fill="#785048"/>
<path d="M125.363 80.9335H147.113C147.942 82.3835 149.04 86.4643 146.802 91.1871C144.006 97.0907 138.413 102.373 131.577 102.062C124.742 101.751 121.634 97.0907 121.945 90.5657C122.194 85.3457 124.327 81.9692 125.363 80.9335Z" fill="#00B5EF"/>
<path d="M161.095 80.9335L183.143 81.2442C183.976 83.2121 184.896 88.2664 181.913 92.7407C178.185 98.3336 173.213 102.373 168.242 102.062C163.27 101.751 157.988 99.8871 157.056 93.3621C156.31 88.1421 159.438 82.9014 161.095 80.9335Z" fill="#00B5EF"/>
<path fill-rule="evenodd" clip-rule="evenodd" d="M185.02 92.1193L189.681 122.104C190.497 121.878 191.449 121.619 192.547 121.326L187.506 87.7693C187.506 87.7693 187.817 86.5264 187.506 82.4871C187.195 78.4478 186.263 76.8942 186.263 76.8942H123.499C121.324 79.0692 120.019 84.2271 119.77 86.2157C119.681 86.9254 119.643 88.2936 119.707 89.9442C119.865 94.0752 120.657 99.9754 122.877 101.751C123.378 102.152 123.894 102.496 124.431 102.788C127.226 104.313 130.564 104.448 134.995 103.926C140.277 103.305 144.317 99.8871 145.87 97.7121C147.068 96.0352 149.005 91.9571 150.114 89.3228C150.443 88.5405 150.699 87.8855 150.842 87.4585C151.339 85.9671 151.877 81.8657 152.085 80.0014L156.745 80.3121C156.227 81.9692 155.13 85.7807 154.881 87.7693C154.828 88.1906 154.776 88.719 154.735 89.3228C154.536 92.2813 154.628 97.0486 156.435 99.8871C158.61 103.305 162.027 103.926 166.999 104.237C170.976 104.486 174.456 103.305 175.699 102.684C177.243 101.911 180.637 97.8405 183.143 94.605C183.864 93.6746 184.511 92.8132 185.02 92.1193ZM183.143 81.2442L161.095 80.9335C159.438 82.9014 156.31 88.1421 157.056 93.3621C157.988 99.8871 163.27 101.751 168.242 102.062C173.213 102.373 178.185 98.3336 181.913 92.7407C184.896 88.2664 183.976 83.2121 183.143 81.2442ZM147.113 80.9335H125.363C124.327 81.9692 122.194 85.3457 121.945 90.5657C121.634 97.0907 124.742 101.751 131.577 102.062C138.413 102.373 144.006 97.0907 146.802 91.1871C149.04 86.4643 147.942 82.3835 147.113 80.9335Z" fill="#FF9F31"/>
<path d="M154.881 87.7693C155.13 85.7807 156.227 81.9692 156.745 80.3121L152.085 80.0014C151.877 81.8657 151.339 85.9671 150.842 87.4585C150.699 87.8855 150.443 88.5405 150.114 89.3228H154.735C154.776 88.719 154.828 88.1906 154.881 87.7693Z" fill="#573333"/>
<path d="M183.778 112.626C184.275 116.604 185.435 121.326 185.953 123.191C186.363 123.054 187.558 122.692 189.681 122.104L185.02 92.1193C184.511 92.8132 183.864 93.6746 183.143 94.605C183.143 94.605 183.476 98.3336 183.471 103.926C183.467 109.519 183.778 112.626 183.778 112.626Z" fill="#593235"/>
<path d="M122.877 101.751C120.657 99.9754 119.865 94.0752 119.707 89.9442L120.392 116.976C120.392 116.976 121.013 121.948 121.324 123.035C121.634 124.123 122.256 129.094 122.256 129.094C122.256 129.094 122.877 119.773 122.877 115.112C122.877 110.451 124.431 102.788 124.431 102.788C123.894 102.496 123.378 102.152 122.877 101.751Z" fill="#593235"/>
<path fill-rule="evenodd" clip-rule="evenodd" d="M189.992 143.077C188.438 146.805 183.094 156.127 174.145 163.584C168.016 168.692 161.634 170.106 157.056 170.125C155.917 170.223 151.96 170.109 145.249 168.866C136.86 167.312 129.713 157.369 126.295 150.534C123.561 145.065 122.877 139.969 122.877 138.105L122.256 129.094C122.256 129.094 122.877 119.773 122.877 115.112C122.877 110.451 124.431 102.788 124.431 102.788C127.226 104.313 130.564 104.448 134.995 103.926C140.277 103.305 144.317 99.8871 145.87 97.7121C147.068 96.0352 149.005 91.9571 150.114 89.3228H154.735C154.536 92.2813 154.628 97.0486 156.435 99.8871C158.61 103.305 162.027 103.926 166.999 104.237C170.976 104.486 174.456 103.305 175.699 102.684C177.243 101.911 180.637 97.8405 183.143 94.605C183.143 94.605 183.476 98.3336 183.471 103.926C183.467 109.519 183.778 112.626 183.778 112.626C184.275 116.604 185.435 121.326 185.953 123.191C186.363 123.054 187.558 122.692 189.681 122.104C190.497 121.878 191.449 121.619 192.547 121.326C192.921 121.227 193.312 121.123 193.72 121.016C199.624 119.462 203.663 122.569 205.528 125.055C207.392 127.541 209.878 132.823 204.595 138.727C200.37 143.449 193.099 143.594 189.992 143.077ZM139.656 105.791V111.384C139.656 111.384 135.927 109.519 131.888 109.83C127.849 110.141 125.052 112.316 125.052 112.316C125.052 112.316 125.674 106.723 130.024 105.791C134.374 104.859 139.656 105.791 139.656 105.791ZM158.92 106.101V111.073C158.92 111.073 163.581 110.141 168.242 111.384C172.902 112.626 176.631 115.734 176.631 115.734C176.631 115.734 175.077 108.898 169.795 107.034C164.513 105.169 158.92 106.101 158.92 106.101ZM161.717 139.969C162.752 145.873 162.4 157.804 152.706 158.302C143.012 158.799 141.417 150.637 141.831 146.494C141.831 146.494 146.181 146.494 152.085 144.941C157.988 143.387 161.717 139.969 161.717 139.969Z" fill="#FB9E8F"/>
<path d="M120.392 116.976C116.767 116.873 109.517 118.716 109.517 126.919C109.517 135.122 118.424 137.794 122.877 138.105L122.256 129.094C122.256 129.094 121.634 124.123 121.324 123.035C121.013 121.948 120.392 116.976 120.392 116.976Z" fill="#EB8384"/>
<ellipse cx="133.442" cy="124.744" rx="2.17501" ry="3.72858" fill="#314069"/>
<ellipse cx="165.135" cy="124.744" rx="2.17501" ry="3.72858" fill="#314069"/>
<path d="M143.035 120.669C143.035 120.669 143.528 123.873 143.035 129.788C142.542 135.703 140.078 133.732 140.078 137.182C140.078 140.632 143.528 142.851 143.528 142.851" stroke="#C9524E" stroke-width="0.985829" stroke-linecap="round"/>
</g>
<g filter="url(#filter1_d_313_4040)">
<rect x="253" y="96" width="31.0028" height="31.0028" rx="5.16714" fill="white"/>
<path d="M276.938 115.413C276.848 115.413 276.758 115.43 276.674 115.465C276.59 115.5 276.514 115.551 276.45 115.615C276.386 115.679 276.335 115.755 276.3 115.839C276.266 115.922 276.248 116.012 276.248 116.103V117.362L269.298 105.325L270.404 103.409C270.495 103.25 270.52 103.062 270.472 102.886C270.425 102.709 270.309 102.559 270.151 102.467C269.992 102.376 269.804 102.351 269.628 102.398C269.451 102.445 269.3 102.56 269.209 102.719L268.501 103.944L267.793 102.719C267.748 102.64 267.688 102.57 267.616 102.515C267.544 102.459 267.462 102.418 267.374 102.395C267.286 102.371 267.195 102.365 267.105 102.376C267.014 102.388 266.927 102.418 266.849 102.463C266.77 102.509 266.701 102.569 266.646 102.642C266.59 102.714 266.55 102.796 266.527 102.884C266.503 102.972 266.498 103.064 266.51 103.154C266.522 103.244 266.552 103.331 266.598 103.409L267.704 105.325L260.754 117.362V116.103C260.754 116.012 260.737 115.922 260.702 115.839C260.667 115.755 260.616 115.679 260.552 115.615C260.488 115.551 260.412 115.5 260.328 115.465C260.245 115.43 260.155 115.413 260.064 115.413C259.974 115.413 259.884 115.43 259.8 115.465C259.716 115.5 259.64 115.551 259.576 115.615C259.512 115.679 259.461 115.755 259.427 115.839C259.392 115.922 259.374 116.012 259.374 116.103V119.936C259.376 120.018 259.392 120.099 259.422 120.176C259.429 120.195 259.436 120.213 259.445 120.232C259.453 120.248 259.457 120.267 259.467 120.283C259.496 120.335 259.533 120.382 259.575 120.425C259.576 120.425 259.576 120.426 259.576 120.426C259.633 120.481 259.699 120.525 259.771 120.557C259.789 120.566 259.807 120.573 259.825 120.58C259.901 120.61 259.982 120.626 260.064 120.628H265.817V115.719C265.817 115.007 266.099 114.325 266.603 113.821C267.106 113.318 267.789 113.035 268.501 113.035C269.213 113.035 269.896 113.318 270.399 113.821C270.903 114.325 271.186 115.007 271.186 115.719V120.628H276.938C277.02 120.626 277.101 120.61 277.177 120.58C277.196 120.573 277.214 120.566 277.232 120.557C277.303 120.525 277.369 120.481 277.426 120.426C277.426 120.426 277.427 120.425 277.427 120.425C277.469 120.382 277.506 120.335 277.536 120.283C277.545 120.267 277.549 120.249 277.557 120.232C277.566 120.213 277.573 120.195 277.58 120.175C277.611 120.099 277.627 120.018 277.628 119.936V116.103C277.628 116.012 277.611 115.922 277.576 115.839C277.541 115.755 277.49 115.679 277.426 115.615C277.362 115.551 277.286 115.5 277.202 115.465C277.119 115.43 277.029 115.413 276.938 115.413Z" fill="#CB9964"/>
</g>
<g filter="url(#filter2_d_313_4040)">
<rect x="223.91" y="155.875" width="31.0028" height="31.0028" rx="5.16714" fill="white"/>
<path d="M248.446 178.702L245.141 172.978C244.989 172.713 244.77 172.494 244.506 172.34C244.243 172.187 243.943 172.106 243.638 172.105C243.333 172.103 243.033 172.182 242.768 172.333C242.503 172.484 242.283 172.702 242.128 172.965L243.333 175.05C243.424 175.209 243.449 175.398 243.402 175.575C243.354 175.751 243.239 175.902 243.08 175.994C242.921 176.086 242.733 176.11 242.556 176.063C242.379 176.016 242.228 175.9 242.137 175.741L241.33 174.344L241.329 174.346L239.037 170.375C238.841 170.037 238.561 169.756 238.223 169.561C237.884 169.366 237.501 169.263 237.11 169.263C236.72 169.263 236.336 169.366 235.998 169.561C235.66 169.756 235.38 170.037 235.184 170.375V170.375L230.377 178.702C230.316 178.807 230.284 178.926 230.284 179.047C230.284 179.168 230.316 179.287 230.377 179.392C230.437 179.497 230.524 179.584 230.629 179.645C230.734 179.706 230.853 179.738 230.974 179.737H247.848C247.97 179.738 248.089 179.706 248.194 179.645C248.299 179.584 248.386 179.497 248.446 179.392C248.507 179.287 248.539 179.168 248.539 179.047C248.539 178.926 248.507 178.807 248.446 178.702Z" fill="#14A7A0"/>
<path d="M242.6 169C244.252 169 245.591 167.661 245.591 166.009C245.591 164.357 244.252 163.018 242.6 163.018C240.948 163.018 239.609 164.357 239.609 166.009C239.609 167.661 240.948 169 242.6 169Z" fill="#FFCC73"/>
</g>
<path d="M219.122 28.1307C219.318 27.9357 219.318 27.6191 219.123 27.4236C218.928 27.2281 218.612 27.2278 218.416 27.4228L219.122 28.1307ZM204.157 31.3275L204.423 30.904L204.423 30.904L204.157 31.3275ZM191.9 40.2385C192.012 40.4911 192.307 40.6053 192.56 40.4936L196.675 38.6737C196.928 38.562 197.042 38.2667 196.93 38.0142C196.819 37.7616 196.523 37.6474 196.271 37.7591L192.612 39.3768L190.995 35.7185C190.883 35.466 190.588 35.3518 190.335 35.4635C190.083 35.5751 189.969 35.8704 190.08 36.123L191.9 40.2385ZM218.769 27.7768C218.416 27.4228 218.416 27.4228 218.416 27.4228C218.416 27.4228 218.416 27.4227 218.416 27.4227C218.416 27.4227 218.416 27.4227 218.416 27.4227C218.416 27.4226 218.416 27.4226 218.416 27.4226C218.416 27.4226 218.416 27.4227 218.416 27.4229C218.416 27.4231 218.415 27.4237 218.414 27.4245C218.413 27.426 218.41 27.4286 218.407 27.4322C218.399 27.4393 218.388 27.4504 218.373 27.4651C218.342 27.4945 218.296 27.5387 218.235 27.5955C218.112 27.7093 217.93 27.8738 217.696 28.0735L218.344 28.8347C218.591 28.6249 218.783 28.4508 218.915 28.3282C218.981 28.267 219.032 28.2185 219.067 28.185C219.084 28.1682 219.098 28.1551 219.107 28.146C219.112 28.1414 219.115 28.1379 219.118 28.1353C219.119 28.134 219.12 28.133 219.121 28.1322C219.121 28.1319 219.121 28.1315 219.122 28.1313C219.122 28.1312 219.122 28.1311 219.122 28.131C219.122 28.1309 219.122 28.1309 219.122 28.1308C219.122 28.1308 219.122 28.1308 219.122 28.1308C219.122 28.1308 219.122 28.1307 218.769 27.7768ZM216.133 29.2823C215.638 29.6305 215.077 29.9927 214.466 30.3368L214.957 31.2081C215.601 30.8454 216.19 30.4649 216.708 30.1006L216.133 29.2823ZM212.702 31.1998C212.109 31.4454 211.49 31.6553 210.856 31.8104L211.093 32.7818C211.784 32.6131 212.451 32.386 213.085 32.1237L212.702 31.1998ZM208.954 32.0896C208.325 32.1173 207.691 32.0777 207.058 31.9546L206.867 32.9362C207.584 33.0757 208.298 33.1195 208.998 33.0886L208.954 32.0896ZM205.26 31.3636C204.981 31.2311 204.701 31.0785 204.423 30.904L203.892 31.751C204.203 31.9463 204.517 32.1179 204.832 32.2675L205.26 31.3636ZM204.423 30.904C204.086 30.6922 203.749 30.5183 203.414 30.3804L203.034 31.3051C203.313 31.42 203.599 31.5673 203.892 31.751L204.423 30.904ZM201.16 29.975C200.381 30.0128 199.644 30.2308 198.957 30.5702L199.399 31.4669C199.985 31.178 200.588 31.0039 201.208 30.9738L201.16 29.975ZM197.125 31.825C196.586 32.2988 196.085 32.8343 195.624 33.3955L196.397 34.0304C196.831 33.5017 197.295 33.007 197.785 32.5758L197.125 31.825ZM194.357 35.1307C193.945 35.7602 193.579 36.385 193.265 36.9633L194.143 37.4413C194.447 36.8824 194.799 36.2814 195.194 35.6783L194.357 35.1307ZM192.312 38.873C192.176 39.1731 192.071 39.4171 192 39.5868C191.965 39.6717 191.938 39.7381 191.92 39.7837C191.911 39.8065 191.904 39.8241 191.899 39.8362C191.896 39.8423 191.895 39.847 191.893 39.8503C191.893 39.8519 191.892 39.8532 191.892 39.8542C191.892 39.8547 191.891 39.855 191.891 39.8553C191.891 39.8555 191.891 39.8556 191.891 39.8557C191.891 39.8558 191.891 39.8558 191.891 39.8559C191.891 39.8559 191.891 39.8559 191.891 39.8559C191.891 39.8559 191.891 39.856 192.357 40.0363C192.824 40.2167 192.824 40.2167 192.824 40.2167C192.824 40.2167 192.824 40.2167 192.824 40.2168C192.824 40.2168 192.824 40.2168 192.824 40.2168C192.824 40.2168 192.824 40.2168 192.824 40.2168C192.824 40.2167 192.824 40.2166 192.824 40.2163C192.824 40.2158 192.824 40.215 192.825 40.2138C192.826 40.2115 192.827 40.2077 192.829 40.2026C192.833 40.1924 192.839 40.1768 192.848 40.156C192.864 40.1144 192.89 40.0522 192.923 39.9717C192.99 39.8107 193.091 39.5765 193.223 39.2869L192.312 38.873ZM219.122 28.1307C219.318 27.9357 219.318 27.6191 219.123 27.4236C218.928 27.2281 218.612 27.2278 218.416 27.4228L219.122 28.1307ZM204.157 31.3275L204.423 30.904L204.423 30.904L204.157 31.3275ZM191.9 40.2385C192.012 40.4911 192.307 40.6053 192.56 40.4936L196.675 38.6737C196.928 38.562 197.042 38.2667 196.93 38.0142C196.819 37.7616 196.523 37.6474 196.271 37.7591L192.612 39.3768L190.995 35.7185C190.883 35.466 190.588 35.3518 190.335 35.4635C190.083 35.5751 189.969 35.8704 190.08 36.123L191.9 40.2385ZM218.769 27.7768C218.416 27.4228 218.416 27.4228 218.416 27.4228C218.416 27.4228 218.416 27.4227 218.416 27.4227C218.416 27.4227 218.416 27.4227 218.416 27.4227C218.416 27.4226 218.416 27.4226 218.416 27.4226C218.416 27.4226 218.416 27.4227 218.416 27.4229C218.416 27.4231 218.415 27.4237 218.414 27.4245C218.413 27.426 218.41 27.4286 218.407 27.4322C218.399 27.4393 218.388 27.4504 218.373 27.4651C218.342 27.4945 218.296 27.5387 218.235 27.5955C218.112 27.7093 217.93 27.8738 217.696 28.0735L218.344 28.8347C218.591 28.6249 218.783 28.4508 218.915 28.3282C218.981 28.267 219.032 28.2185 219.067 28.185C219.084 28.1682 219.098 28.1551 219.107 28.146C219.112 28.1414 219.115 28.1379 219.118 28.1353C219.119 28.134 219.12 28.133 219.121 28.1322C219.121 28.1319 219.121 28.1315 219.122 28.1313C219.122 28.1312 219.122 28.1311 219.122 28.131C219.122 28.1309 219.122 28.1309 219.122 28.1308C219.122 28.1308 219.122 28.1308 219.122 28.1308C219.122 28.1308 219.122 28.1307 218.769 27.7768ZM216.133 29.2823C215.638 29.6305 215.077 29.9927 214.466 30.3368L214.957 31.2081C215.601 30.8454 216.19 30.4649 216.708 30.1006L216.133 29.2823ZM212.702 31.1998C212.109 31.4454 211.49 31.6553 210.856 31.8104L211.093 32.7818C211.784 32.6131 212.451 32.386 213.085 32.1237L212.702 31.1998ZM208.954 32.0896C208.325 32.1173 207.691 32.0777 207.058 31.9546L206.867 32.9362C207.584 33.0757 208.298 33.1195 208.998 33.0886L208.954 32.0896ZM205.26 31.3636C204.981 31.2311 204.701 31.0785 204.423 30.904L203.892 31.751C204.203 31.9463 204.517 32.1179 204.832 32.2675L205.26 31.3636ZM204.423 30.904C204.086 30.6922 203.749 30.5183 203.414 30.3804L203.034 31.3051C203.313 31.42 203.599 31.5673 203.892 31.751L204.423 30.904ZM201.16 29.975C200.381 30.0128 199.644 30.2308 198.957 30.5702L199.399 31.4669C199.985 31.178 200.588 31.0039 201.208 30.9738L201.16 29.975ZM197.125 31.825C196.586 32.2988 196.085 32.8343 195.624 33.3955L196.397 34.0304C196.831 33.5017 197.295 33.007 197.785 32.5758L197.125 31.825ZM194.357 35.1307C193.945 35.7602 193.579 36.385 193.265 36.9633L194.143 37.4413C194.447 36.8824 194.799 36.2814 195.194 35.6783L194.357 35.1307ZM192.312 38.873C192.176 39.1731 192.071 39.4171 192 39.5868C191.965 39.6717 191.938 39.7381 191.92 39.7837C191.911 39.8065 191.904 39.8241 191.899 39.8362C191.896 39.8423 191.895 39.847 191.893 39.8503C191.893 39.8519 191.892 39.8532 191.892 39.8542C191.892 39.8547 191.891 39.855 191.891 39.8553C191.891 39.8555 191.891 39.8556 191.891 39.8557C191.891 39.8558 191.891 39.8558 191.891 39.8559C191.891 39.8559 191.891 39.8559 191.891 39.8559C191.891 39.8559 191.891 39.856 192.357 40.0363C192.824 40.2167 192.824 40.2167 192.824 40.2167C192.824 40.2167 192.824 40.2167 192.824 40.2168C192.824 40.2168 192.824 40.2168 192.824 40.2168C192.824 40.2168 192.824 40.2168 192.824 40.2168C192.824 40.2167 192.824 40.2166 192.824 40.2163C192.824 40.2158 192.824 40.215 192.825 40.2138C192.826 40.2115 192.827 40.2077 192.829 40.2026C192.833 40.1924 192.839 40.1768 192.848 40.156C192.864 40.1144 192.89 40.0522 192.923 39.9717C192.99 39.8107 193.091 39.5765 193.223 39.2869L192.312 38.873Z" fill="#304862"/>
<path d="M217.608 162.506C217.766 162.732 218.078 162.786 218.304 162.627C218.53 162.468 218.584 162.157 218.425 161.931L217.608 162.506ZM207.122 155.893L206.822 155.493L206.822 155.493L207.122 155.893ZM193.678 152.238C193.407 152.287 193.226 152.548 193.276 152.819L194.081 157.247C194.13 157.518 194.391 157.699 194.662 157.649C194.934 157.6 195.114 157.34 195.065 157.068L194.349 153.132L198.285 152.417C198.556 152.367 198.736 152.107 198.687 151.835C198.638 151.564 198.377 151.384 198.106 151.433L193.678 152.238ZM218.016 162.218C218.425 161.931 218.425 161.931 218.425 161.931C218.425 161.931 218.425 161.931 218.425 161.931C218.425 161.931 218.425 161.931 218.425 161.931C218.425 161.93 218.425 161.93 218.425 161.93C218.425 161.93 218.425 161.93 218.424 161.929C218.424 161.928 218.423 161.927 218.422 161.925C218.419 161.922 218.416 161.918 218.412 161.912C218.404 161.9 218.392 161.883 218.376 161.861C218.344 161.818 218.298 161.754 218.238 161.673C218.117 161.51 217.942 161.279 217.72 160.997L216.935 161.617C217.15 161.889 217.319 162.113 217.434 162.268C217.492 162.346 217.535 162.406 217.565 162.446C217.579 162.467 217.59 162.482 217.597 162.492C217.601 162.497 217.604 162.501 217.605 162.503C217.606 162.504 217.607 162.505 217.607 162.506C217.607 162.506 217.607 162.506 217.608 162.506C217.608 162.506 217.608 162.506 217.608 162.506C217.608 162.506 217.608 162.506 217.608 162.506C217.608 162.506 217.608 162.506 217.608 162.506C217.608 162.506 217.608 162.506 218.016 162.218ZM216.213 159.222C215.719 158.682 215.161 158.111 214.561 157.566L213.888 158.306C214.461 158.826 214.997 159.374 215.475 159.897L216.213 159.222ZM212.711 156.096C212.017 155.628 211.287 155.237 210.547 154.999L210.24 155.95C210.864 156.152 211.509 156.492 212.152 156.925L212.711 156.096ZM207.999 154.896C207.589 155.017 207.195 155.213 206.822 155.493L207.422 156.293C207.702 156.083 207.989 155.942 208.282 155.855L207.999 154.896ZM206.822 155.493C206.61 155.652 206.382 155.784 206.141 155.892L206.549 156.805C206.855 156.668 207.148 156.499 207.422 156.293L206.822 155.493ZM204.564 156.263C204.03 156.3 203.462 156.268 202.873 156.181L202.725 157.17C203.37 157.266 204.013 157.304 204.634 157.261L204.564 156.263ZM201.179 155.801C200.62 155.638 200.063 155.441 199.518 155.225L199.15 156.155C199.718 156.38 200.305 156.587 200.899 156.761L201.179 155.801ZM197.897 154.513C197.329 154.24 196.797 153.961 196.32 153.698L195.836 154.573C196.327 154.844 196.876 155.132 197.465 155.414L197.897 154.513ZM194.785 152.795C194.55 152.648 194.366 152.528 194.241 152.445C194.178 152.404 194.13 152.372 194.099 152.35C194.083 152.34 194.071 152.332 194.063 152.326C194.059 152.324 194.056 152.322 194.055 152.32C194.054 152.32 194.053 152.319 194.053 152.319C194.052 152.319 194.052 152.319 194.052 152.319C194.052 152.319 194.052 152.319 194.052 152.319C194.052 152.319 194.052 152.319 194.052 152.319C194.052 152.319 194.052 152.319 194.052 152.319C194.052 152.319 194.052 152.319 193.768 152.73C193.483 153.141 193.483 153.141 193.483 153.141C193.483 153.141 193.483 153.141 193.483 153.141C193.483 153.141 193.483 153.141 193.483 153.141C193.483 153.141 193.483 153.141 193.484 153.141C193.484 153.142 193.484 153.142 193.484 153.142C193.485 153.142 193.486 153.143 193.487 153.144C193.49 153.146 193.493 153.148 193.498 153.151C193.507 153.157 193.52 153.167 193.538 153.178C193.572 153.202 193.623 153.236 193.689 153.279C193.821 153.366 194.012 153.491 194.254 153.643L194.785 152.795ZM217.608 162.506C217.766 162.732 218.078 162.786 218.304 162.627C218.53 162.468 218.584 162.157 218.425 161.931L217.608 162.506ZM207.122 155.893L206.822 155.493L206.822 155.493L207.122 155.893ZM193.678 152.238C193.407 152.287 193.226 152.548 193.276 152.819L194.081 157.247C194.13 157.518 194.391 157.699 194.662 157.649C194.934 157.6 195.114 157.34 195.065 157.068L194.349 153.132L198.285 152.417C198.556 152.367 198.736 152.107 198.687 151.835C198.638 151.564 198.377 151.384 198.106 151.433L193.678 152.238ZM218.016 162.218C218.425 161.931 218.425 161.931 218.425 161.931C218.425 161.931 218.425 161.931 218.425 161.931C218.425 161.931 218.425 161.931 218.425 161.931C218.425 161.93 218.425 161.93 218.425 161.93C218.425 161.93 218.425 161.93 218.424 161.929C218.424 161.928 218.423 161.927 218.422 161.925C218.419 161.922 218.416 161.918 218.412 161.912C218.404 161.9 218.392 161.883 218.376 161.861C218.344 161.818 218.298 161.754 218.238 161.673C218.117 161.51 217.942 161.279 217.72 160.997L216.935 161.617C217.15 161.889 217.319 162.113 217.434 162.268C217.492 162.346 217.535 162.406 217.565 162.446C217.579 162.467 217.59 162.482 217.597 162.492C217.601 162.497 217.604 162.501 217.605 162.503C217.606 162.504 217.607 162.505 217.607 162.506C217.607 162.506 217.607 162.506 217.608 162.506C217.608 162.506 217.608 162.506 217.608 162.506C217.608 162.506 217.608 162.506 217.608 162.506C217.608 162.506 217.608 162.506 217.608 162.506C217.608 162.506 217.608 162.506 218.016 162.218ZM216.213 159.222C215.719 158.682 215.161 158.111 214.561 157.566L213.888 158.306C214.461 158.826 214.997 159.374 215.475 159.897L216.213 159.222ZM212.711 156.096C212.017 155.628 211.287 155.237 210.547 154.999L210.24 155.95C210.864 156.152 211.509 156.492 212.152 156.925L212.711 156.096ZM207.999 154.896C207.589 155.017 207.195 155.213 206.822 155.493L207.422 156.293C207.702 156.083 207.989 155.942 208.282 155.855L207.999 154.896ZM206.822 155.493C206.61 155.652 206.382 155.784 206.141 155.892L206.549 156.805C206.855 156.668 207.148 156.499 207.422 156.293L206.822 155.493ZM204.564 156.263C204.03 156.3 203.462 156.268 202.873 156.181L202.725 157.17C203.37 157.266 204.013 157.304 204.634 157.261L204.564 156.263ZM201.179 155.801C200.62 155.638 200.063 155.441 199.518 155.225L199.15 156.155C199.718 156.38 200.305 156.587 200.899 156.761L201.179 155.801ZM197.897 154.513C197.329 154.24 196.797 153.961 196.32 153.698L195.836 154.573C196.327 154.844 196.876 155.132 197.465 155.414L197.897 154.513ZM194.785 152.795C194.55 152.648 194.366 152.528 194.241 152.445C194.178 152.404 194.13 152.372 194.099 152.35C194.083 152.34 194.071 152.332 194.063 152.326C194.059 152.324 194.056 152.322 194.055 152.32C194.054 152.32 194.053 152.319 194.053 152.319C194.052 152.319 194.052 152.319 194.052 152.319C194.052 152.319 194.052 152.319 194.052 152.319C194.052 152.319 194.052 152.319 194.052 152.319C194.052 152.319 194.052 152.319 194.052 152.319C194.052 152.319 194.052 152.319 193.768 152.73C193.483 153.141 193.483 153.141 193.483 153.141C193.483 153.141 193.483 153.141 193.483 153.141C193.483 153.141 193.483 153.141 193.483 153.141C193.483 153.141 193.483 153.141 193.484 153.141C193.484 153.142 193.484 153.142 193.484 153.142C193.485 153.142 193.486 153.143 193.487 153.144C193.49 153.146 193.493 153.148 193.498 153.151C193.507 153.157 193.52 153.167 193.538 153.178C193.572 153.202 193.623 153.236 193.689 153.279C193.821 153.366 194.012 153.491 194.254 153.643L194.785 152.795Z" fill="#304862"/>
<path d="M248 112.5C248.276 112.5 248.5 112.276 248.5 112C248.5 111.724 248.276 111.5 248 111.5L248 112.5ZM229 104.5L228.536 104.314L229 104.5ZM216.77 92.5761C216.531 92.7145 216.449 93.0204 216.588 93.2594L218.843 97.1534C218.981 97.3923 219.287 97.4738 219.526 97.3354C219.765 97.197 219.847 96.8911 219.708 96.6521L217.703 93.1908L221.165 91.186C221.404 91.0476 221.485 90.7417 221.347 90.5027C221.208 90.2638 220.903 90.1823 220.664 90.3207L216.77 92.5761ZM217.02 93.0088C216.891 93.4919 216.891 93.4919 216.891 93.4919C216.891 93.4919 216.891 93.4919 216.891 93.4919C216.891 93.4919 216.891 93.4919 216.891 93.4919C216.891 93.4919 216.891 93.4919 216.891 93.4919C216.892 93.4919 216.892 93.492 216.892 93.492C216.892 93.4922 216.893 93.4924 216.894 93.4926C216.896 93.4932 216.9 93.4942 216.904 93.4954C216.914 93.498 216.928 93.5018 216.947 93.5071C216.985 93.5176 217.042 93.5336 217.116 93.555C217.264 93.5978 217.481 93.6623 217.753 93.7482L218.054 92.7946C217.773 92.706 217.549 92.6391 217.393 92.5943C217.316 92.5718 217.255 92.5549 217.214 92.5434C217.193 92.5377 217.178 92.5334 217.167 92.5304C217.161 92.5289 217.157 92.5278 217.154 92.527C217.152 92.5266 217.151 92.5263 217.151 92.5261C217.15 92.5259 217.15 92.5259 217.149 92.5258C217.149 92.5258 217.149 92.5257 217.149 92.5257C217.149 92.5257 217.149 92.5257 217.149 92.5257C217.149 92.5257 217.149 92.5257 217.149 92.5257C217.149 92.5256 217.149 92.5256 217.02 93.0088ZM219.484 94.3449C220.007 94.5402 220.582 94.7684 221.182 95.029L221.581 94.1119C220.963 93.8433 220.371 93.6086 219.834 93.408L219.484 94.3449ZM222.834 95.8065C223.369 96.0792 223.903 96.3747 224.42 96.6926L224.944 95.8405C224.4 95.5069 223.843 95.1986 223.289 94.9158L222.834 95.8065ZM225.906 97.7124C226.39 98.0866 226.836 98.4819 227.228 98.8974L227.955 98.2115C227.522 97.7514 227.036 97.3215 226.518 96.9213L225.906 97.7124ZM228.268 100.281C228.554 100.785 228.75 101.308 228.84 101.852L229.827 101.688C229.715 101.014 229.473 100.38 229.139 99.7885L228.268 100.281ZM228.789 103.502C228.731 103.765 228.647 104.036 228.536 104.314L229.464 104.686C229.595 104.36 229.694 104.038 229.765 103.719L228.789 103.502ZM228.536 104.314C228.393 104.67 228.299 105.018 228.253 105.358L229.243 105.493C229.278 105.243 229.349 104.974 229.464 104.686L228.536 104.314ZM228.662 107.505C228.998 108.095 229.501 108.6 230.107 109.035L230.69 108.223C230.165 107.846 229.776 107.441 229.532 107.011L228.662 107.505ZM231.865 110.015C232.437 110.268 233.055 110.494 233.703 110.696L234.001 109.742C233.382 109.549 232.8 109.336 232.269 109.101L231.865 110.015ZM235.58 111.202C236.201 111.347 236.837 111.475 237.475 111.589L237.651 110.604C237.027 110.493 236.409 110.368 235.807 110.228L235.58 111.202ZM239.38 111.887C240.027 111.976 240.668 112.052 241.29 112.117L241.394 111.122C240.781 111.058 240.152 110.984 239.516 110.897L239.38 111.887ZM243.206 112.289C243.897 112.342 244.543 112.382 245.122 112.411L245.173 111.413C244.601 111.384 243.964 111.344 243.282 111.292L243.206 112.289ZM247.036 112.485C247.34 112.492 247.58 112.496 247.745 112.498C247.827 112.499 247.89 112.499 247.933 112.5C247.955 112.5 247.971 112.5 247.982 112.5C247.988 112.5 247.992 112.5 247.995 112.5C247.997 112.5 247.998 112.5 247.999 112.5C247.999 112.5 247.999 112.5 248 112.5C248 112.5 248 112.5 248 112.5C248 112.5 248 112.5 248 112.5C248 112.5 248 112.5 248 112.5C248 112.5 248 112.5 248 112C248 111.5 248 111.5 248 111.5C248 111.5 248 111.5 248 111.5C248 111.5 248 111.5 248 111.5C248 111.5 248 111.5 248 111.5C248 111.5 248 111.5 247.999 111.5C247.999 111.5 247.998 111.5 247.997 111.5C247.994 111.5 247.99 111.5 247.985 111.5C247.975 111.5 247.959 111.5 247.939 111.5C247.898 111.499 247.836 111.499 247.756 111.498C247.596 111.496 247.36 111.493 247.06 111.485L247.036 112.485ZM248 112.5C248.276 112.5 248.5 112.276 248.5 112C248.5 111.724 248.276 111.5 248 111.5L248 112.5ZM229 104.5L228.536 104.314L229 104.5ZM216.77 92.5761C216.531 92.7145 216.449 93.0204 216.588 93.2594L218.843 97.1534C218.981 97.3923 219.287 97.4738 219.526 97.3354C219.765 97.197 219.847 96.8911 219.708 96.6521L217.703 93.1908L221.165 91.186C221.404 91.0476 221.485 90.7417 221.347 90.5027C221.208 90.2638 220.903 90.1823 220.664 90.3207L216.77 92.5761ZM217.02 93.0088C216.891 93.4919 216.891 93.4919 216.891 93.4919C216.891 93.4919 216.891 93.4919 216.891 93.4919C216.891 93.4919 216.891 93.4919 216.891 93.4919C216.891 93.4919 216.891 93.4919 216.891 93.4919C216.892 93.4919 216.892 93.492 216.892 93.492C216.892 93.4922 216.893 93.4924 216.894 93.4926C216.896 93.4932 216.9 93.4942 216.904 93.4954C216.914 93.498 216.928 93.5018 216.947 93.5071C216.985 93.5176 217.042 93.5336 217.116 93.555C217.264 93.5978 217.481 93.6623 217.753 93.7482L218.054 92.7946C217.773 92.706 217.549 92.6391 217.393 92.5943C217.316 92.5718 217.255 92.5549 217.214 92.5434C217.193 92.5377 217.178 92.5334 217.167 92.5304C217.161 92.5289 217.157 92.5278 217.154 92.527C217.152 92.5266 217.151 92.5263 217.151 92.5261C217.15 92.5259 217.15 92.5259 217.149 92.5258C217.149 92.5258 217.149 92.5257 217.149 92.5257C217.149 92.5257 217.149 92.5257 217.149 92.5257C217.149 92.5257 217.149 92.5257 217.149 92.5257C217.149 92.5256 217.149 92.5256 217.02 93.0088ZM219.484 94.3449C220.007 94.5402 220.582 94.7684 221.182 95.029L221.581 94.1119C220.963 93.8433 220.371 93.6086 219.834 93.408L219.484 94.3449ZM222.834 95.8065C223.369 96.0792 223.903 96.3747 224.42 96.6926L224.944 95.8405C224.4 95.5069 223.843 95.1986 223.289 94.9158L222.834 95.8065ZM225.906 97.7124C226.39 98.0866 226.836 98.4819 227.228 98.8974L227.955 98.2115C227.522 97.7514 227.036 97.3215 226.518 96.9213L225.906 97.7124ZM228.268 100.281C228.554 100.785 228.75 101.308 228.84 101.852L229.827 101.688C229.715 101.014 229.473 100.38 229.139 99.7885L228.268 100.281ZM228.789 103.502C228.731 103.765 228.647 104.036 228.536 104.314L229.464 104.686C229.595 104.36 229.694 104.038 229.765 103.719L228.789 103.502ZM228.536 104.314C228.393 104.67 228.299 105.018 228.253 105.358L229.243 105.493C229.278 105.243 229.349 104.974 229.464 104.686L228.536 104.314ZM228.662 107.505C228.998 108.095 229.501 108.6 230.107 109.035L230.69 108.223C230.165 107.846 229.776 107.441 229.532 107.011L228.662 107.505ZM231.865 110.015C232.437 110.268 233.055 110.494 233.703 110.696L234.001 109.742C233.382 109.549 232.8 109.336 232.269 109.101L231.865 110.015ZM235.58 111.202C236.201 111.347 236.837 111.475 237.475 111.589L237.651 110.604C237.027 110.493 236.409 110.368 235.807 110.228L235.58 111.202ZM239.38 111.887C240.027 111.976 240.668 112.052 241.29 112.117L241.394 111.122C240.781 111.058 240.152 110.984 239.516 110.897L239.38 111.887ZM243.206 112.289C243.897 112.342 244.543 112.382 245.122 112.411L245.173 111.413C244.601 111.384 243.964 111.344 243.282 111.292L243.206 112.289ZM247.036 112.485C247.34 112.492 247.58 112.496 247.745 112.498C247.827 112.499 247.89 112.499 247.933 112.5C247.955 112.5 247.971 112.5 247.982 112.5C247.988 112.5 247.992 112.5 247.995 112.5C247.997 112.5 247.998 112.5 247.999 112.5C247.999 112.5 247.999 112.5 248 112.5C248 112.5 248 112.5 248 112.5C248 112.5 248 112.5 248 112.5C248 112.5 248 112.5 248 112.5C248 112.5 248 112.5 248 112C248 111.5 248 111.5 248 111.5C248 111.5 248 111.5 248 111.5C248 111.5 248 111.5 248 111.5C248 111.5 248 111.5 248 111.5C248 111.5 248 111.5 247.999 111.5C247.999 111.5 247.998 111.5 247.997 111.5C247.994 111.5 247.99 111.5 247.985 111.5C247.975 111.5 247.959 111.5 247.939 111.5C247.898 111.499 247.836 111.499 247.756 111.498C247.596 111.496 247.36 111.493 247.06 111.485L247.036 112.485Z" fill="#304862"/>
<g filter="url(#filter3_d_313_4040)">
<rect x="198" y="242" width="82.4476" height="20.6686" rx="10.3343" fill="white" shape-rendering="crispEdges"/>
<path d="M211.779 253.155C212.768 253.155 213.57 252.353 213.57 251.364C213.57 250.375 212.768 249.573 211.779 249.573C210.79 249.573 209.988 250.375 209.988 251.364C209.988 252.353 210.79 253.155 211.779 253.155Z" stroke="#00B5EF" stroke-width="0.86119"/>
<path d="M206.968 250.319C208.099 245.347 215.465 245.353 216.59 250.325C217.251 253.242 215.436 255.71 213.846 257.238C212.692 258.351 210.866 258.351 209.707 257.238C208.122 255.71 206.308 253.236 206.968 250.319Z" stroke="#00B5EF" stroke-width="0.86119"/>
<path d="M225.486 257.612L225.351 256.765C225.723 256.765 225.989 256.684 226.147 256.522C226.306 256.36 226.385 256.103 226.385 255.752V248.6H227.367V255.979C227.367 256.548 227.234 256.961 226.969 257.219C226.703 257.481 226.299 257.612 225.754 257.612H225.486ZM229.9 255.938C229.586 255.938 229.312 255.874 229.078 255.747C228.844 255.619 228.661 255.445 228.53 255.225C228.403 255.004 228.339 254.753 228.339 254.47C228.339 254.184 228.401 253.94 228.525 253.737C228.653 253.53 228.822 253.359 229.032 253.225C229.245 253.087 229.483 252.979 229.745 252.9C230.007 252.817 230.277 252.758 230.556 252.724C230.838 252.686 231.109 252.665 231.367 252.662C231.367 252.18 231.272 251.864 231.083 251.716C230.894 251.568 230.62 251.494 230.261 251.494C230.072 251.494 229.869 251.523 229.652 251.582C229.438 251.64 229.197 251.763 228.928 251.949L228.794 251.194C228.997 251.039 229.25 250.914 229.554 250.817C229.857 250.717 230.175 250.667 230.509 250.667C230.937 250.667 231.281 250.743 231.543 250.895C231.805 251.043 231.996 251.294 232.116 251.649C232.237 252.004 232.297 252.486 232.297 253.096V254.129C232.297 254.37 232.308 254.57 232.328 254.729C232.352 254.884 232.404 255.001 232.483 255.08C232.566 255.156 232.697 255.194 232.876 255.194H232.969L232.824 255.938H232.752C232.452 255.938 232.22 255.909 232.054 255.85C231.893 255.791 231.768 255.707 231.682 255.597C231.596 255.487 231.519 255.352 231.45 255.194C231.26 255.414 231.036 255.593 230.778 255.731C230.52 255.869 230.227 255.938 229.9 255.938ZM230.075 255.194C230.323 255.194 230.563 255.132 230.794 255.008C231.028 254.884 231.219 254.718 231.367 254.512V253.303C230.875 253.32 230.475 253.368 230.168 253.447C229.865 253.526 229.643 253.645 229.502 253.804C229.361 253.962 229.29 254.167 229.29 254.419C229.29 254.691 229.362 254.889 229.507 255.013C229.655 255.133 229.845 255.194 230.075 255.194ZM234.568 255.834L233.049 250.771H234.145L235.116 254.811L236.191 250.926H237.152L238.237 254.811L239.209 250.771H240.304L238.775 255.834H237.731L236.677 252.093L235.612 255.834H234.568ZM242.182 255.938C241.868 255.938 241.594 255.874 241.36 255.747C241.126 255.619 240.943 255.445 240.812 255.225C240.685 255.004 240.621 254.753 240.621 254.47C240.621 254.184 240.683 253.94 240.807 253.737C240.935 253.53 241.104 253.359 241.314 253.225C241.527 253.087 241.765 252.979 242.027 252.9C242.289 252.817 242.559 252.758 242.838 252.724C243.12 252.686 243.391 252.665 243.649 252.662C243.649 252.18 243.554 251.864 243.365 251.716C243.176 251.568 242.902 251.494 242.543 251.494C242.354 251.494 242.151 251.523 241.934 251.582C241.72 251.64 241.479 251.763 241.21 251.949L241.076 251.194C241.279 251.039 241.532 250.914 241.836 250.817C242.139 250.717 242.457 250.667 242.791 250.667C243.219 250.667 243.563 250.743 243.825 250.895C244.087 251.043 244.278 251.294 244.398 251.649C244.519 252.004 244.579 252.486 244.579 253.096V254.129C244.579 254.37 244.59 254.57 244.61 254.729C244.634 254.884 244.686 255.001 244.765 255.08C244.848 255.156 244.979 255.194 245.158 255.194H245.251L245.106 255.938H245.034C244.734 255.938 244.502 255.909 244.336 255.85C244.175 255.791 244.051 255.707 243.964 255.597C243.878 255.487 243.801 255.352 243.732 255.194C243.542 255.414 243.319 255.593 243.06 255.731C242.802 255.869 242.509 255.938 242.182 255.938ZM242.357 255.194C242.605 255.194 242.845 255.132 243.076 255.008C243.31 254.884 243.501 254.718 243.649 254.512V253.303C243.157 253.32 242.757 253.368 242.45 253.447C242.147 253.526 241.925 253.645 241.784 253.804C241.643 253.962 241.572 254.167 241.572 254.419C241.572 254.691 241.644 254.889 241.789 255.013C241.937 255.133 242.127 255.194 242.357 255.194ZM249.923 255.834V249.489H247.815V248.6H253.013V249.489H250.905V255.834H249.923ZM253.71 255.834V250.771H254.64V255.834H253.71ZM253.71 249.634V248.6H254.64V249.634H253.71ZM255.9 255.834V250.771H256.623L256.809 251.742L256.458 251.577C256.775 251.236 257.083 251 257.383 250.869C257.682 250.735 257.997 250.667 258.328 250.667C258.576 250.667 258.814 250.709 259.041 250.791C259.272 250.871 259.479 251.012 259.661 251.215C259.847 251.415 259.995 251.694 260.106 252.052L259.847 251.938C259.999 251.546 260.231 251.236 260.545 251.008C260.858 250.781 261.28 250.667 261.811 250.667C262.234 250.667 262.591 250.747 262.88 250.905C263.17 251.06 263.387 251.299 263.531 251.623C263.68 251.944 263.754 252.352 263.754 252.848V255.834H262.824V252.858C262.824 252.383 262.731 252.037 262.544 251.82C262.358 251.603 262.055 251.494 261.635 251.494C261.339 251.494 261.101 251.541 260.922 251.634C260.743 251.723 260.607 251.84 260.514 251.985C260.424 252.13 260.364 252.283 260.333 252.445C260.305 252.607 260.292 252.758 260.292 252.9V255.834H259.362V253.044C259.362 252.631 259.312 252.312 259.212 252.088C259.112 251.864 258.972 251.709 258.793 251.623C258.614 251.537 258.407 251.494 258.173 251.494C257.832 251.494 257.527 251.57 257.259 251.721C256.99 251.87 256.809 252.107 256.716 252.434L256.83 251.928V255.834H255.9ZM266.781 255.938C266.385 255.938 266.047 255.859 265.768 255.7C265.489 255.538 265.276 255.294 265.128 254.966C264.983 254.639 264.911 254.222 264.911 253.716V250.771H265.841V253.458C265.841 253.995 265.932 254.405 266.114 254.687C266.301 254.97 266.602 255.111 267.019 255.111C267.305 255.111 267.57 255.042 267.814 254.904C268.059 254.767 268.228 254.546 268.321 254.243L268.187 254.749V250.771H269.117V255.834H268.29L268.104 254.842L268.352 255.008C268.183 255.321 267.976 255.555 267.732 255.71C267.491 255.862 267.174 255.938 266.781 255.938ZM270.382 255.834V250.771H271.146L271.26 251.608C271.518 251.287 271.765 251.051 271.999 250.9C272.237 250.745 272.49 250.667 272.759 250.667C272.845 250.667 272.924 250.678 272.996 250.698L272.903 251.721C272.858 251.711 272.81 251.704 272.759 251.701C272.71 251.694 272.655 251.69 272.593 251.69C272.325 251.69 272.076 251.751 271.849 251.871C271.625 251.988 271.467 252.118 271.374 252.259V255.834H270.382Z" fill="#304862"/>
</g>
<path d="M46.6703 78.4255C46.9052 78.2804 46.9781 77.9723 46.8331 77.7373C46.688 77.5024 46.3799 77.4295 46.145 77.5745L46.6703 78.4255ZM38.057 90.9329L38.5535 90.8738H38.5535L38.057 90.9329ZM49.0065 108.5C49.2826 108.496 49.5035 108.27 49.5 107.993L49.4414 103.494C49.4379 103.218 49.2111 102.997 48.935 103C48.6589 103.004 48.4379 103.231 48.4415 103.507L48.4935 107.507L44.4939 107.559C44.2178 107.562 43.9968 107.789 44.0004 108.065C44.004 108.341 44.2308 108.562 44.5069 108.558L49.0065 108.5ZM46.4076 78C46.145 77.5745 46.1449 77.5746 46.1449 77.5746C46.1449 77.5746 46.1449 77.5746 46.1449 77.5746C46.1448 77.5746 46.1448 77.5746 46.1447 77.5747C46.1446 77.5747 46.1445 77.5748 46.1444 77.5749C46.1442 77.575 46.1439 77.5752 46.1435 77.5754C46.1428 77.5759 46.1419 77.5764 46.1407 77.5772C46.1383 77.5787 46.1349 77.5808 46.1306 77.5835C46.122 77.5889 46.1096 77.5967 46.0936 77.6068C46.0617 77.6271 46.0153 77.6569 45.9558 77.6959C45.8369 77.7738 45.6657 77.8885 45.4532 78.0377L46.0275 78.8563C46.2308 78.7136 46.3933 78.6048 46.504 78.5322C46.5594 78.4959 46.6019 78.4687 46.63 78.4508C46.6441 78.4418 46.6546 78.4352 46.6614 78.431C46.6647 78.4289 46.6672 78.4274 46.6687 78.4264C46.6694 78.426 46.6699 78.4257 46.6702 78.4255C46.6703 78.4254 46.6704 78.4254 46.6704 78.4254C46.6704 78.4254 46.6704 78.4254 46.6704 78.4254C46.6704 78.4254 46.6703 78.4254 46.6703 78.4254C46.6703 78.4254 46.6703 78.4254 46.6703 78.4254C46.6703 78.4254 46.6703 78.4255 46.4076 78ZM44.1359 79.0278C43.7469 79.3395 43.3222 79.6974 42.8817 80.0974L43.5539 80.8377C43.9775 80.4531 44.3864 80.1085 44.7612 79.8082L44.1359 79.0278ZM41.6981 81.2458C41.3265 81.6321 40.9556 82.0448 40.5968 82.4816L41.3695 83.1164C41.7101 82.7018 42.0633 82.3086 42.4188 81.9391L41.6981 81.2458ZM39.6008 83.8127C39.2913 84.2709 39.0018 84.75 38.7426 85.2478L39.6296 85.7096C39.8694 85.249 40.1389 84.8026 40.4295 84.3725L39.6008 83.8127ZM38.0677 86.7911C37.88 87.3216 37.7321 87.8695 37.6343 88.4324L38.6196 88.6035C38.7069 88.1004 38.8398 87.6069 39.0105 87.1247L38.0677 86.7911ZM37.5016 90.1358C37.5069 90.4187 37.5262 90.7042 37.5605 90.992L38.5535 90.8738C38.5232 90.6194 38.5061 90.367 38.5014 90.1168L37.5016 90.1358ZM37.5605 90.992C37.5954 91.285 37.6444 91.5806 37.7061 91.878L38.6852 91.6748C38.6289 91.4033 38.5847 91.1361 38.5535 90.8738L37.5605 90.992ZM38.1867 93.5894C38.3756 94.1313 38.598 94.6768 38.847 95.2217L39.7565 94.8061C39.5187 94.2856 39.3083 93.7691 39.131 93.2602L38.1867 93.5894ZM39.6313 96.7852C39.9064 97.2909 40.1998 97.7939 40.5061 98.2907L41.3573 97.7658C41.0595 97.2828 40.7753 96.7955 40.5097 96.3073L39.6313 96.7852ZM41.4504 99.7473C41.7772 100.229 42.1121 100.701 42.45 101.162L43.2562 100.57C42.9249 100.119 42.5971 99.656 42.2777 99.1856L41.4504 99.7473ZM43.4959 102.54C43.8626 103.008 44.2269 103.458 44.5822 103.886L45.3517 103.248C45.0019 102.826 44.6435 102.383 44.2831 101.923L43.4959 102.54ZM45.7026 105.201C46.1165 105.675 46.5054 106.106 46.8564 106.488L47.5926 105.811C47.2466 105.435 46.8634 105.009 46.4554 104.543L45.7026 105.201ZM48.0426 107.744C48.2336 107.941 48.385 108.094 48.489 108.198C48.541 108.25 48.5812 108.289 48.6085 108.316C48.6222 108.33 48.6326 108.34 48.6398 108.347C48.6433 108.351 48.6461 108.353 48.648 108.355C48.6489 108.356 48.6496 108.357 48.6502 108.357C48.6504 108.357 48.6506 108.358 48.6508 108.358C48.6509 108.358 48.6509 108.358 48.651 108.358C48.651 108.358 48.651 108.358 48.651 108.358C48.651 108.358 48.651 108.358 48.6511 108.358C48.6511 108.358 48.6511 108.358 49 108C49.3489 107.642 49.3489 107.642 49.3489 107.642C49.3489 107.642 49.3489 107.642 49.349 107.642C49.349 107.642 49.349 107.642 49.349 107.642C49.3489 107.642 49.3489 107.642 49.3489 107.642C49.3488 107.642 49.3487 107.642 49.3486 107.642C49.3482 107.641 49.3477 107.641 49.3469 107.64C49.3454 107.638 49.343 107.636 49.3398 107.633C49.3334 107.627 49.3237 107.617 49.3108 107.604C49.285 107.579 49.2464 107.541 49.196 107.49C49.0952 107.39 48.9472 107.24 48.7598 107.047L48.0426 107.744ZM46.6703 78.4255C46.9052 78.2804 46.9781 77.9723 46.8331 77.7373C46.688 77.5024 46.3799 77.4295 46.145 77.5745L46.6703 78.4255ZM38.057 90.9329L38.5535 90.8738H38.5535L38.057 90.9329ZM49.0065 108.5C49.2826 108.496 49.5035 108.27 49.5 107.993L49.4414 103.494C49.4379 103.218 49.2111 102.997 48.935 103C48.6589 103.004 48.4379 103.231 48.4415 103.507L48.4935 107.507L44.4939 107.559C44.2178 107.562 43.9968 107.789 44.0004 108.065C44.004 108.341 44.2308 108.562 44.5069 108.558L49.0065 108.5ZM46.4076 78C46.145 77.5745 46.1449 77.5746 46.1449 77.5746C46.1449 77.5746 46.1449 77.5746 46.1449 77.5746C46.1448 77.5746 46.1448 77.5746 46.1447 77.5747C46.1446 77.5747 46.1445 77.5748 46.1444 77.5749C46.1442 77.575 46.1439 77.5752 46.1435 77.5754C46.1428 77.5759 46.1419 77.5764 46.1407 77.5772C46.1383 77.5787 46.1349 77.5808 46.1306 77.5835C46.122 77.5889 46.1096 77.5967 46.0936 77.6068C46.0617 77.6271 46.0153 77.6569 45.9558 77.6959C45.8369 77.7738 45.6657 77.8885 45.4532 78.0377L46.0275 78.8563C46.2308 78.7136 46.3933 78.6048 46.504 78.5322C46.5594 78.4959 46.6019 78.4687 46.63 78.4508C46.6441 78.4418 46.6546 78.4352 46.6614 78.431C46.6647 78.4289 46.6672 78.4274 46.6687 78.4264C46.6694 78.426 46.6699 78.4257 46.6702 78.4255C46.6703 78.4254 46.6704 78.4254 46.6704 78.4254C46.6704 78.4254 46.6704 78.4254 46.6704 78.4254C46.6704 78.4254 46.6703 78.4254 46.6703 78.4254C46.6703 78.4254 46.6703 78.4254 46.6703 78.4254C46.6703 78.4254 46.6703 78.4255 46.4076 78ZM44.1359 79.0278C43.7469 79.3395 43.3222 79.6974 42.8817 80.0974L43.5539 80.8377C43.9775 80.4531 44.3864 80.1085 44.7612 79.8082L44.1359 79.0278ZM41.6981 81.2458C41.3265 81.6321 40.9556 82.0448 40.5968 82.4816L41.3695 83.1164C41.7101 82.7018 42.0633 82.3086 42.4188 81.9391L41.6981 81.2458ZM39.6008 83.8127C39.2913 84.2709 39.0018 84.75 38.7426 85.2478L39.6296 85.7096C39.8694 85.249 40.1389 84.8026 40.4295 84.3725L39.6008 83.8127ZM38.0677 86.7911C37.88 87.3216 37.7321 87.8695 37.6343 88.4324L38.6196 88.6035C38.7069 88.1004 38.8398 87.6069 39.0105 87.1247L38.0677 86.7911ZM37.5016 90.1358C37.5069 90.4187 37.5262 90.7042 37.5605 90.992L38.5535 90.8738C38.5232 90.6194 38.5061 90.367 38.5014 90.1168L37.5016 90.1358ZM37.5605 90.992C37.5954 91.285 37.6444 91.5806 37.7061 91.878L38.6852 91.6748C38.6289 91.4033 38.5847 91.1361 38.5535 90.8738L37.5605 90.992ZM38.1867 93.5894C38.3756 94.1313 38.598 94.6768 38.847 95.2217L39.7565 94.8061C39.5187 94.2856 39.3083 93.7691 39.131 93.2602L38.1867 93.5894ZM39.6313 96.7852C39.9064 97.2909 40.1998 97.7939 40.5061 98.2907L41.3573 97.7658C41.0595 97.2828 40.7753 96.7955 40.5097 96.3073L39.6313 96.7852ZM41.4504 99.7473C41.7772 100.229 42.1121 100.701 42.45 101.162L43.2562 100.57C42.9249 100.119 42.5971 99.656 42.2777 99.1856L41.4504 99.7473ZM43.4959 102.54C43.8626 103.008 44.2269 103.458 44.5822 103.886L45.3517 103.248C45.0019 102.826 44.6435 102.383 44.2831 101.923L43.4959 102.54ZM45.7026 105.201C46.1165 105.675 46.5054 106.106 46.8564 106.488L47.5926 105.811C47.2466 105.435 46.8634 105.009 46.4554 104.543L45.7026 105.201ZM48.0426 107.744C48.2336 107.941 48.385 108.094 48.489 108.198C48.541 108.25 48.5812 108.289 48.6085 108.316C48.6222 108.33 48.6326 108.34 48.6398 108.347C48.6433 108.351 48.6461 108.353 48.648 108.355C48.6489 108.356 48.6496 108.357 48.6502 108.357C48.6504 108.357 48.6506 108.358 48.6508 108.358C48.6509 108.358 48.6509 108.358 48.651 108.358C48.651 108.358 48.651 108.358 48.651 108.358C48.651 108.358 48.651 108.358 48.6511 108.358C48.6511 108.358 48.6511 108.358 49 108C49.3489 107.642 49.3489 107.642 49.3489 107.642C49.3489 107.642 49.3489 107.642 49.349 107.642C49.349 107.642 49.349 107.642 49.349 107.642C49.3489 107.642 49.3489 107.642 49.3489 107.642C49.3488 107.642 49.3487 107.642 49.3486 107.642C49.3482 107.641 49.3477 107.641 49.3469 107.64C49.3454 107.638 49.343 107.636 49.3398 107.633C49.3334 107.627 49.3237 107.617 49.3108 107.604C49.285 107.579 49.2464 107.541 49.196 107.49C49.0952 107.39 48.9472 107.24 48.7598 107.047L48.0426 107.744Z" fill="#00B5EF"/>
<path d="M62.4334 34.7832C62.4334 28.2755 55.2738 23 46.4419 23V34.7832H62.4334Z" fill="#00B5EF"/>
<path d="M75.0581 36.4663H63.2749C53.9782 36.4663 46.4417 44.0028 46.4417 53.2995C46.4417 62.5962 53.9782 70.1327 63.2749 70.1327H75.0581V36.4663Z" fill="#FF9F31"/>
<path d="M75.0581 36.4663H63.2749C53.9782 36.4663 46.4417 44.0028 46.4417 53.2995C46.4417 62.5962 53.9782 70.1327 63.2749 70.1327H75.0581V36.4663Z" fill="#FF9F31"/>
<mask id="mask1_313_4040" style="mask-type:alpha" maskUnits="userSpaceOnUse" x="46" y="36" width="30" height="35">
<path d="M75.0576 36.4658H63.2744C53.9777 36.4658 46.4412 44.0023 46.4412 53.299C46.4412 62.5957 53.9777 70.1322 63.2744 70.1322H75.0576V36.4658Z" fill="black"/>
</mask>
<g mask="url(#mask1_313_4040)">
<circle cx="65.6239" cy="46.5663" r="19.182" fill="#FFB901"/>
</g>
<path d="M76.7417 53.2995V36.4663H86L79.7086 43.8729L85.1794 48.6535L76.7417 53.2995Z" fill="#00B5EF"/>
<circle cx="5.36716" cy="5.36716" r="4.27105" transform="matrix(-1 0 0 1 72.4683 39.4507)" fill="black" stroke="white" stroke-width="2.19223"/>
<path fill-rule="evenodd" clip-rule="evenodd" d="M70.8496 64.5923C70.8496 64.5873 70.8496 64.5824 70.8496 64.5774C70.8496 64.5731 70.8496 64.5687 70.8496 64.5643V64.5923ZM76.7412 70.1324C79.9949 70.1324 82.6326 67.6453 82.6326 64.5774C82.6326 60.5374 76.7411 54.9824 76.7411 54.9824C76.7411 54.9824 76.7407 54.9828 76.74 54.9834H76.7412V70.1324Z" fill="#00B5EF"/>
<path d="M75.058 34.7841C75.058 29.6709 69.4056 25.5259 62.4331 25.5259V34.7841H75.058Z" fill="#00B5EF"/>
<path d="M37.6729 39.4419L48.634 39.4419" stroke="#FFB901" stroke-width="2.19223" stroke-linecap="round"/>
<path d="M35.481 60.8159L43.1538 60.8159" stroke="#FFB901" stroke-width="2.19223" stroke-linecap="round"/>
<path d="M30 46.5664L43.1534 46.5664" stroke="#FFB901" stroke-width="2.19223" stroke-linecap="round"/>
<path d="M33.8369 53.6914L39.8655 53.6914" stroke="#FFB901" stroke-width="2.19223" stroke-linecap="round"/>
<defs>
<filter id="filter0_d_313_4040" x="220.771" y="7.33398" width="47.0029" height="47.0029" filterUnits="userSpaceOnUse" color-interpolation-filters="sRGB">
<feFlood flood-opacity="0" result="BackgroundImageFix"/>
<feColorMatrix in="SourceAlpha" type="matrix" values="0 0 0 0 0 0 0 0 0 0 0 0 0 0 0 0 0 0 127 0" result="hardAlpha"/>
<feOffset dx="4" dy="5"/>
<feGaussianBlur stdDeviation="4"/>
<feComposite in2="hardAlpha" operator="out"/>
<feColorMatrix type="matrix" values="0 0 0 0 0 0 0 0 0 0 0 0 0 0 0 0 0 0 0.15 0"/>
<feBlend mode="normal" in2="BackgroundImageFix" result="effect1_dropShadow_313_4040"/>
<feBlend mode="normal" in="SourceGraphic" in2="effect1_dropShadow_313_4040" result="shape"/>
</filter>
<filter id="filter1_d_313_4040" x="249" y="93" width="47.0029" height="47.0029" filterUnits="userSpaceOnUse" color-interpolation-filters="sRGB">
<feFlood flood-opacity="0" result="BackgroundImageFix"/>
<feColorMatrix in="SourceAlpha" type="matrix" values="0 0 0 0 0 0 0 0 0 0 0 0 0 0 0 0 0 0 127 0" result="hardAlpha"/>
<feOffset dx="4" dy="5"/>
<feGaussianBlur stdDeviation="4"/>
<feComposite in2="hardAlpha" operator="out"/>
<feColorMatrix type="matrix" values="0 0 0 0 0 0 0 0 0 0 0 0 0 0 0 0 0 0 0.15 0"/>
<feBlend mode="normal" in2="BackgroundImageFix" result="effect1_dropShadow_313_4040"/>
<feBlend mode="normal" in="SourceGraphic" in2="effect1_dropShadow_313_4040" result="shape"/>
</filter>
<filter id="filter2_d_313_4040" x="219.91" y="152.875" width="47.0029" height="47.0029" filterUnits="userSpaceOnUse" color-interpolation-filters="sRGB">
<feFlood flood-opacity="0" result="BackgroundImageFix"/>
<feColorMatrix in="SourceAlpha" type="matrix" values="0 0 0 0 0 0 0 0 0 0 0 0 0 0 0 0 0 0 127 0" result="hardAlpha"/>
<feOffset dx="4" dy="5"/>
<feGaussianBlur stdDeviation="4"/>
<feComposite in2="hardAlpha" operator="out"/>
<feColorMatrix type="matrix" values="0 0 0 0 0 0 0 0 0 0 0 0 0 0 0 0 0 0 0.15 0"/>
<feBlend mode="normal" in2="BackgroundImageFix" result="effect1_dropShadow_313_4040"/>
<feBlend mode="normal" in="SourceGraphic" in2="effect1_dropShadow_313_4040" result="shape"/>
</filter>
<filter id="filter3_d_313_4040" x="187.666" y="231.666" width="110.006" height="48.2265" filterUnits="userSpaceOnUse" color-interpolation-filters="sRGB">
<feFlood flood-opacity="0" result="BackgroundImageFix"/>
<feColorMatrix in="SourceAlpha" type="matrix" values="0 0 0 0 0 0 0 0 0 0 0 0 0 0 0 0 0 0 127 0" result="hardAlpha"/>
<feOffset dx="3.44476" dy="3.44476"/>
<feGaussianBlur stdDeviation="6.88952"/>
<feComposite in2="hardAlpha" operator="out"/>
<feColorMatrix type="matrix" values="0 0 0 0 0 0 0 0 0 0 0 0 0 0 0 0 0 0 0.15 0"/>
<feBlend mode="normal" in2="BackgroundImageFix" result="effect1_dropShadow_313_4040"/>
<feBlend mode="normal" in="SourceGraphic" in2="effect1_dropShadow_313_4040" result="shape"/>
</filter>
</defs>
</svg>
