<svg width="304" height="304" viewBox="0 0 304 304" fill="none" xmlns="http://www.w3.org/2000/svg">
<mask id="mask0_460_3872" style="mask-type:alpha" maskUnits="userSpaceOnUse" x="0" y="-1" width="329" height="302">
<ellipse cx="164.593" cy="150.197" rx="168.505" ry="145.434" transform="rotate(-26.9491 164.593 150.197)" fill="#D9D9D9"/>
</mask>
<g mask="url(#mask0_460_3872)">
<path d="M288.902 202.423C301.711 179.873 300.985 137.353 298.279 133.986C297.161 132.596 288.964 138.199 279.138 145.351C277.874 180.502 275.145 200.246 265.277 235.551C273.616 225.558 282.425 213.824 288.902 202.423Z" fill="#1BA3C4"/>
<path d="M243.036 169.61C232.633 171.309 189.007 192.178 186.44 213.233C184.387 230.077 224.482 250.051 244.786 257.933C249.418 253.43 257.122 245.323 265.277 235.551C275.145 200.246 277.874 180.502 279.138 145.351C265.174 155.516 247.922 168.812 243.036 169.61Z" fill="#0289A6"/>
<path d="M289.718 151.386C257.704 195.779 245.068 220.709 225.949 263.611" stroke="black" stroke-width="1.8109" stroke-linecap="round"/>
<path d="M185.63 206.155C176.541 250.594 190.295 252.121 194.54 265.022L257.068 245.287C259.001 241.449 264.592 230.877 267.044 220.879L205.98 162.311C196.489 176.555 188.59 191.686 185.63 206.155Z" fill="#0EB2B6"/>
<path fill-rule="evenodd" clip-rule="evenodd" d="M257.707 79.5626C259.438 79.3461 263.508 80.9502 265.941 89.099C268.983 99.285 271.204 118.093 273.393 137.58C275.99 160.691 273.131 196.062 267.044 220.879C260.506 198.467 252.492 184.746 245.455 166.772C245.427 166.699 245.398 166.627 245.37 166.554C241.166 155.835 236.195 144.563 229.654 131.156C233.454 126.602 237.102 122.357 240.411 118.506L240.411 118.505C248.223 109.415 254.143 102.525 255.705 98.9776C259.951 89.3304 258.809 82.0146 257.707 79.5626Z" fill="#37CFD2"/>
<path fill-rule="evenodd" clip-rule="evenodd" d="M220.786 142.064C231.723 146.43 239.187 154.301 245.37 166.554C245.398 166.627 245.427 166.699 245.455 166.772C241.233 155.987 236.239 144.654 229.654 131.156C226.758 134.626 223.774 138.275 220.786 142.064Z" fill="#37CFD2"/>
<path d="M205.98 162.311L267.044 220.879C260.506 198.467 252.492 184.746 245.455 166.772L245.37 166.554C239.187 154.301 231.723 146.43 220.786 142.064C215.731 148.474 210.661 155.284 205.98 162.311Z" fill="#0EB2B6"/>
<path d="M257.686 118.245C232.282 167.741 223.385 194.721 210.713 240.751" stroke="black" stroke-width="1.18228" stroke-linecap="round"/>
<path d="M47.1626 167.65C50.0122 164.575 54.0697 160.844 57.2863 158.01L56.9885 147.886L51.3312 157.414C48.6514 162.178 47.1626 167.65 47.1626 167.65Z" fill="#F4B689"/>
<rect x="55.7388" y="117.565" width="38.8777" height="73.5032" rx="4.76408" transform="rotate(-1.14613 55.7388 117.565)" fill="#CED6DE"/>
<circle cx="62.4827" cy="124.198" r="3.57306" transform="rotate(-1.14613 62.4827 124.198)" fill="#07042D"/>
<circle cx="62.6497" cy="132.534" r="3.57306" transform="rotate(-1.14613 62.6497 132.534)" fill="#07042D"/>
<circle cx="69.711" cy="128.223" r="2.38204" transform="rotate(-1.14613 69.711 128.223)" fill="#07042D"/>
<path d="M58.4772 206.842C66.9731 206.464 72.2767 206.645 76.3616 206.929C76.6592 206.95 76.9504 206.971 77.2358 206.993V194.931C79.3201 193.046 83.846 188.857 85.2752 187.19C87.0617 185.106 88.5505 180.937 88.5505 179.15C88.5505 177.721 86.764 176.57 85.8707 176.173C87.0617 174.982 89.5033 172.004 89.7415 169.622C89.9797 167.24 87.2602 166.049 85.8707 165.751C86.8632 164.461 88.6101 161.226 87.6572 158.605C86.7044 155.985 82.8931 155.529 81.1066 155.628C82.2976 153.742 83.9651 149.434 81.1066 147.291C77.5336 144.611 69.1964 148.184 64.7301 151.757C62.8614 153.252 60.4936 155.184 57.2862 158.01C54.0697 160.844 50.0122 164.575 47.1625 167.65C46.0623 168.837 45.0533 170.002 44.185 171.111C39.8973 176.59 42.994 198.521 45.0782 208.802C47.4523 207.966 51.1584 207.167 58.4772 206.842Z" fill="#FFCAA6"/>
<path fill-rule="evenodd" clip-rule="evenodd" d="M162.989 200.589V191.656C162.989 191.656 174.006 193.74 185.321 191.656C196.636 189.572 207.95 176.173 207.95 176.173V186.594V200.589H162.989Z" fill="#FFCAA6"/>
<path d="M207.95 160.094H162.989V189.274V191.656C162.989 191.656 174.006 193.74 185.321 191.656C196.636 189.572 207.95 176.173 207.95 176.173V160.094Z" fill="#F4B689"/>
<path d="M35.2523 254.185C35.5501 277.112 37.8329 295.176 39.1231 310.163L73.9629 317.2L88.3733 318.309L111.478 320.088C111.478 320.088 112.073 282.769 112.966 265.202C113.86 247.634 118.624 220.538 118.624 220.538C105.979 227.411 97.6481 238.174 91.0544 245.8C90.506 246.435 89.9696 247.047 89.4438 247.634L87.6572 213.69L83.4887 213.095C83.4887 213.095 72.4717 213.094 61.7525 214.286C51.0333 215.477 40.6119 217.263 40.6119 217.263L36.1456 218.156C35.8478 226.493 34.9546 231.258 35.2523 254.185Z" fill="#7595DE"/>
<path d="M215.692 213.095V200.589H207.95H162.989H153.163L152.568 211.606C150.847 211.606 149.268 211.621 147.804 211.656C147.804 211.656 144.826 238.106 143.337 261.331C141.849 284.556 142.444 320.088 142.444 320.088H216.585V261.331C216.585 244.657 219.483 213.095 219.483 213.095H215.692Z" fill="#7595DE"/>
<path d="M252.316 320.088H293.704C293.704 320.088 289.238 287.236 278.816 262.224C268.395 237.213 251.72 226.196 251.72 226.196C251.72 226.196 250.827 247.932 250.827 265.202C250.827 282.471 252.316 320.088 252.316 320.088Z" fill="#7595DE"/>
<path d="M298.17 320.088C295.987 308.773 291.143 274.908 289.238 269.668C288.025 266.334 283.497 255.598 276.242 244.954C274.023 241.698 271.548 238.45 268.835 235.426C262.989 228.91 256.037 223.431 248.147 221.134C248.147 221.134 248.743 248.378 248.743 265.202C248.743 282.025 248.147 320.088 248.147 320.088H252.316C252.316 320.088 250.827 282.471 250.827 265.202C250.827 247.932 251.72 226.196 251.72 226.196C251.72 226.196 268.395 237.213 278.816 262.224C289.238 287.236 293.704 320.088 293.704 320.088H298.17Z" fill="#6277C6"/>
<path d="M139.764 261.331C139.169 272.05 138.573 320.088 138.573 320.088H142.444C142.444 320.088 141.849 284.556 143.337 261.331C144.826 238.106 147.804 211.656 147.804 211.656C147.082 211.674 146.388 211.696 145.72 211.724C145.72 211.724 140.36 250.612 139.764 261.331Z" fill="#6277C6"/>
<path d="M40.6119 210.712V217.263C40.6119 217.263 51.0333 215.477 61.7525 214.286C72.4717 213.094 83.4887 213.095 83.4887 213.095L82.5954 207.437C80.9135 207.31 79.2113 207.143 77.2358 206.993C76.9504 206.971 76.6592 206.95 76.3616 206.929C72.2767 206.645 66.9731 206.464 58.4772 206.842C51.1584 207.167 47.4523 207.966 45.0782 208.802C43.106 209.497 42.0531 210.217 40.6119 210.712Z" fill="#6277C6"/>
<path d="M216.585 320.088H248.147C248.147 320.088 248.743 282.025 248.743 265.202C248.743 248.378 248.147 221.134 248.147 221.134C248.147 221.134 249.934 216.668 235.046 212.499C220.158 208.33 219.483 213.095 219.483 213.095C219.483 213.095 216.585 244.657 216.585 261.331V320.088Z" fill="#FFCE5D"/>
<path d="M111.478 320.088H138.573C138.573 320.088 139.169 272.05 139.764 261.331C140.36 250.612 145.72 211.724 145.72 211.724C143.635 210.712 134.669 210.927 129.641 213.095C128.813 213.451 127.64 213.968 126.365 214.584C122.965 216.23 118.84 218.589 118.624 220.538C118.624 220.538 113.86 247.634 112.966 265.202C112.073 282.769 111.478 320.088 111.478 320.088Z" fill="#FFCE5D"/>
<path d="M152.568 211.606L153.163 200.589H162.989V191.656V189.274C162.989 189.274 151.079 189.274 142.444 192.252C133.809 195.229 126.068 200.887 126.068 200.887L126.365 214.584C127.64 213.968 128.813 213.451 129.641 213.095C134.669 210.927 143.635 210.712 145.72 211.724C146.388 211.696 147.082 211.674 147.804 211.656C149.268 211.621 150.847 211.606 152.568 211.606Z" fill="#FFAB4B"/>
<path d="M215.692 200.589V213.095H219.483C219.483 213.095 220.158 208.33 235.046 212.499C249.934 216.668 248.147 221.134 248.147 221.134C256.037 223.431 262.989 228.91 268.835 235.426C267.894 231.456 265.834 220.717 265.119 209.521C264.405 198.326 272.365 193.343 276.434 192.252C276.434 192.252 265.119 187.488 242.788 186.594C220.456 185.701 207.95 186.594 207.95 186.594V200.589H215.692Z" fill="#FFAB4B"/>
<path d="M290.429 211.606C289.237 198.266 280.603 193.145 276.434 192.252C272.365 193.343 264.405 198.326 265.119 209.521C265.834 220.717 267.894 231.456 268.835 235.426C271.548 238.45 274.023 241.698 276.242 244.954C278.589 245.252 284.057 245.312 287.153 243.168C288.301 242.373 289.187 240.741 289.826 238.404C291.344 232.857 291.476 223.337 290.429 211.606Z" fill="#FFCE5D"/>
<path d="M289.238 269.668C291.143 274.908 295.987 308.773 298.17 320.088L301.743 310.163C301.743 310.163 302.637 297.061 300.552 273.241C298.468 249.421 294.002 238.404 294.002 238.404H289.826C289.187 240.741 288.301 242.373 287.153 243.168C284.057 245.312 278.589 245.252 276.242 244.954C283.497 255.598 288.025 266.334 289.238 269.668Z" fill="#FFCE5D"/>
<path d="M77.8312 157.117L64.73 163.667" stroke="#F4B689" stroke-width="1.78653" stroke-linecap="round"/>
<path d="M80.8083 168.431L67.707 174.386" stroke="#F4B689" stroke-width="1.78653" stroke-linecap="round"/>
<path d="M81.9998 177.959L70.6851 185.701" stroke="#F4B689" stroke-width="1.78653" stroke-linecap="round"/>
<path opacity="0.4" d="M89.1467 252.995C89.1467 252.995 88.2534 256.568 88.2534 277.708C88.2534 298.849 90.9332 303.911 90.9332 303.911" stroke="#6277C6" stroke-width="1.78653" stroke-linecap="round"/>
<path opacity="0.4" d="M155.546 216.073C155.546 216.073 158.822 213.394 184.131 213.989C209.44 214.585 212.715 216.073 212.715 216.073" stroke="#6277C6" stroke-width="1.78653" stroke-linecap="round"/>
<path d="M182.18 108.55V114.556C182.18 114.556 187.811 113.43 193.442 114.932C199.073 116.433 203.577 120.187 203.577 120.187C203.577 120.187 201.7 111.929 195.319 109.676C188.937 107.424 182.18 108.55 182.18 108.55Z" fill="#593235"/>
<path d="M158.906 108.175V114.932C158.906 114.932 154.402 112.679 149.522 113.055C144.642 113.43 141.263 116.058 141.263 116.058C141.263 116.058 142.014 109.301 147.269 108.175C152.525 107.049 158.906 108.175 158.906 108.175Z" fill="#593235"/>
<path d="M224.224 126.569C231.356 124.692 236.236 128.446 238.488 131.449C240.365 126.569 243.969 114.106 243.368 103.295C242.618 89.7807 236.611 73.639 232.858 65.3805C231.666 62.7579 229.338 58.7725 226.56 54.4942C222.778 50.9906 214.013 43.9083 209.208 43.608C204.403 43.3077 201.2 47.9875 200.199 50.365C194.943 45.8603 182.631 36.7009 175.423 36.1002C168.216 35.4996 165.913 42.607 165.663 46.2357C162.16 44.609 153.801 42.5569 148.395 47.3619C142.99 52.1668 144.141 62.8779 145.392 67.6328C144.141 67.3825 140.737 67.1073 137.134 68.0082C133.818 68.8372 130.671 72.4846 129.215 74.6215C129.462 80.0027 132.728 86.0762 134.805 89.0299C134.728 87.0356 134.774 85.3827 134.881 84.5253C135.182 82.1228 136.758 75.8914 139.386 73.2636H215.214C215.214 73.2636 216.341 75.1406 216.716 80.0206C217.091 84.9007 216.716 86.4022 216.716 86.4022L222.806 126.944C223.258 126.824 223.73 126.698 224.224 126.569Z" fill="#593235"/>
<path d="M209.208 33.4726C204.328 31.5956 199.073 33.8479 199.073 36.851C199.073 39.2535 199.323 41.6059 199.448 42.4818C195.069 38.3526 184.808 30.019 178.802 29.7187C171.294 29.3433 163.036 31.5956 162.285 34.5987C161.684 37.0012 162.785 39.1033 163.411 39.8541C159.157 39.2285 149.747 38.2024 146.143 39.1033C141.638 40.2295 138.26 43.9834 138.26 50.7404C138.26 56.1459 141.013 61.2512 142.389 63.1282C139.386 62.8779 132.704 63.8789 130.001 69.8851C129.357 71.3179 129.138 72.9357 129.215 74.6215C130.671 72.4846 133.818 68.8372 137.134 68.0082C140.737 67.1073 144.141 67.3825 145.392 67.6328C144.141 62.8779 142.99 52.1668 148.395 47.3619C153.801 42.5569 162.16 44.609 165.663 46.2357C165.913 42.607 168.216 35.4996 175.423 36.1002C182.631 36.7009 194.943 45.8603 200.199 50.365C201.2 47.9875 204.403 43.3077 209.208 43.608C214.013 43.9083 222.778 50.9906 226.56 54.4942C220.589 45.3002 212.539 34.7535 209.208 33.4726Z" fill="#785048"/>
<path d="M177.3 86.4022C177.601 83.9997 178.927 79.395 179.553 77.3929L173.922 77.0175C173.672 79.2698 173.021 84.225 172.42 86.0268C172.248 86.5426 171.939 87.3339 171.541 88.2792H177.124C177.173 87.5497 177.237 86.9112 177.3 86.4022Z" fill="#573333"/>
<path d="M212.211 116.433C212.812 121.238 214.213 126.944 214.839 129.196C215.335 129.031 216.779 128.594 219.344 127.883L213.713 91.6576C213.098 92.496 212.316 93.5367 211.445 94.6607C211.445 94.6607 211.847 99.1654 211.841 105.922C211.836 112.679 212.211 116.433 212.211 116.433Z" fill="#593235"/>
<path d="M138.635 103.295C135.953 101.149 134.996 94.0207 134.805 89.0299L135.218 105.359L135.632 121.689C135.632 121.689 136.383 127.695 136.758 129.009C137.134 130.323 137.885 136.329 137.885 136.329C137.885 136.329 138.635 125.067 138.635 119.436C138.635 113.805 140.512 104.547 140.512 104.547C139.864 104.194 139.24 103.778 138.635 103.295Z" fill="#593235"/>
<path fill-rule="evenodd" clip-rule="evenodd" d="M219.719 153.221C217.842 157.726 211.385 168.988 200.574 177.997C193.169 184.168 185.459 185.877 179.928 185.899C178.552 186.018 173.772 185.88 165.663 184.378C155.528 182.501 146.894 170.489 142.765 162.23C139.461 155.624 138.635 149.467 138.635 147.215L137.885 136.329C137.885 136.329 138.635 125.067 138.635 119.436C138.635 113.805 140.512 104.547 140.512 104.547C143.889 106.389 147.922 106.552 153.275 105.922C159.657 105.172 164.537 101.042 166.414 98.4146C167.861 96.3886 170.201 91.4617 171.541 88.2792H177.124C176.884 91.8534 176.995 97.613 179.177 101.042C181.805 105.172 185.934 105.922 191.94 106.298C196.745 106.598 200.95 105.172 202.451 104.421C204.317 103.488 208.417 98.5697 211.445 94.6607C211.445 94.6607 211.847 99.1654 211.841 105.922C211.836 112.679 212.211 116.433 212.211 116.433C212.812 121.238 214.213 126.944 214.839 129.196C215.335 129.031 216.779 128.594 219.344 127.883C220.329 127.61 221.48 127.297 222.806 126.944C223.258 126.824 223.73 126.698 224.224 126.569C231.356 124.692 236.236 128.446 238.488 131.449C240.741 134.452 243.744 140.833 237.362 147.966C232.257 153.672 223.473 153.847 219.719 153.221ZM158.906 108.175V114.932C158.906 114.932 154.402 112.679 149.522 113.055C144.642 113.43 141.263 116.058 141.263 116.058C141.263 116.058 142.014 109.301 147.269 108.175C152.525 107.049 158.906 108.175 158.906 108.175ZM182.18 108.55V114.556C182.18 114.556 187.811 113.43 193.442 114.932C199.073 116.433 203.577 120.187 203.577 120.187C203.577 120.187 201.7 111.929 195.319 109.676C188.937 107.424 182.18 108.55 182.18 108.55ZM185.559 149.467C185.855 151.155 186.057 153.25 186.038 155.474C186.013 158.425 185.598 161.602 184.496 164.351C182.92 168.286 179.936 171.345 174.673 171.615C170.479 171.83 167.54 170.704 165.517 168.94C162.771 166.544 161.715 162.971 161.504 159.983C161.437 159.026 161.456 158.13 161.534 157.35C161.534 157.35 166.789 157.35 173.922 155.474C181.054 153.597 185.559 149.467 185.559 149.467Z" fill="#FFCAA6"/>
<path d="M135.632 121.689C131.253 121.563 122.494 123.791 122.494 133.701C122.494 143.611 133.255 146.84 138.635 147.215L137.885 136.329C137.885 136.329 137.134 130.323 136.758 129.009C136.383 127.695 135.632 121.689 135.632 121.689Z" fill="#FFCAA6"/>
<path fill-rule="evenodd" clip-rule="evenodd" d="M211.445 78.5191L184.808 78.1437C183.329 79.8996 180.881 83.8125 180.066 88.2792H211.445V89.5256C213.176 84.977 212.275 80.4799 211.445 78.5191Z" fill="#593235"/>
<path fill-rule="evenodd" clip-rule="evenodd" d="M167.916 78.1437H141.638C140.387 79.395 137.809 83.4742 137.509 89.7807C137.289 94.4114 138.493 98.2649 141.198 100.733L143.438 88.2792H168.422C169.892 83.558 168.782 79.6601 167.916 78.1437Z" fill="#593235"/>
<path fill-rule="evenodd" clip-rule="evenodd" d="M213.713 91.6576L219.344 127.883C220.329 127.61 221.48 127.297 222.806 126.944L216.716 86.4022C216.716 86.4022 217.091 84.9007 216.716 80.0206C216.341 75.1406 215.214 73.2636 215.214 73.2636H139.386C136.758 75.8914 135.182 82.1228 134.881 84.5253C134.774 85.3827 134.728 87.0356 134.805 89.0299C134.996 94.0207 135.953 101.149 138.635 103.295C139.24 103.778 139.864 104.194 140.512 104.547L141.198 100.733C138.493 98.2649 137.289 94.4114 137.509 89.7807C137.809 83.4742 140.387 79.395 141.638 78.1437H167.916C168.782 79.6601 169.892 83.558 168.422 88.2792H171.541C171.939 87.3339 172.248 86.5426 172.42 86.0268C173.021 84.225 173.672 79.2698 173.922 77.0175L179.553 77.3929C178.927 79.395 177.601 83.9997 177.3 86.4022C177.237 86.9112 177.173 87.5497 177.124 88.2792H180.066C180.881 83.8125 183.329 79.8996 184.808 78.1437L211.445 78.5191C212.275 80.4799 213.176 84.977 211.445 89.5256V94.6607C212.316 93.5367 213.098 92.496 213.713 91.6576Z" fill="#593235"/>
<path d="M149.146 103.67C157.405 104.045 164.162 97.6638 167.54 90.5315C167.903 89.7648 168.194 89.012 168.422 88.2792H143.438L141.198 100.733C143.098 102.466 145.739 103.515 149.146 103.67Z" fill="#FFCAA6"/>
<path d="M153.275 105.922C159.657 105.172 164.537 101.042 166.414 98.4146C167.861 96.3886 170.201 91.4617 171.541 88.2792H168.422C168.194 89.012 167.903 89.7648 167.54 90.5315C164.162 97.6638 157.405 104.045 149.146 103.67C145.739 103.515 143.098 102.466 141.198 100.733L140.512 104.547C143.889 106.389 147.922 106.552 153.275 105.922Z" fill="#FFCAA6"/>
<path d="M202.451 104.421C204.317 103.488 208.417 98.5697 211.445 94.6607V89.5256C211.077 90.4922 210.591 91.461 209.959 92.4084C205.454 99.1654 199.448 104.045 193.442 103.67C187.436 103.295 181.054 101.042 179.928 93.1592C179.692 91.5105 179.777 89.8601 180.066 88.2792H177.124C176.884 91.8534 176.995 97.613 179.177 101.042C181.805 105.172 185.934 105.922 191.94 106.298C196.745 106.598 200.95 105.172 202.451 104.421Z" fill="#FFCAA6"/>
<path d="M193.442 103.67C199.448 104.045 205.454 99.1654 209.959 92.4084C210.591 91.461 211.077 90.4922 211.445 89.5256V88.2792H180.066C179.777 89.8601 179.692 91.5105 179.928 93.1592C181.054 101.042 187.436 103.295 193.442 103.67Z" fill="#FFCAA6"/>
<path d="M173.922 155.474C166.789 157.35 161.534 157.35 161.534 157.35C161.456 158.13 161.437 159.026 161.504 159.983C163.13 160.865 168.102 162.172 174.985 160.336C181.868 158.501 185.222 156.33 186.038 155.474C186.057 153.25 185.855 151.155 185.559 149.467C185.559 149.467 181.054 153.597 173.922 155.474Z" fill="white"/>
<path d="M174.985 160.336C168.102 162.172 163.13 160.865 161.504 159.983C161.715 162.971 162.771 166.544 165.517 168.94C166.261 167.352 168.965 163.983 173.838 163.204C178.71 162.425 182.974 163.644 184.496 164.351C185.598 161.602 186.013 158.425 186.038 155.474C185.222 156.33 181.868 158.501 174.985 160.336Z" fill="#9C3A2D"/>
<path d="M165.517 168.94C167.54 170.704 170.479 171.83 174.673 171.615C179.936 171.345 182.92 168.286 184.496 164.351C182.974 163.644 178.71 162.425 173.838 163.204C168.965 163.983 166.261 167.352 165.517 168.94Z" fill="#D86F5C"/>
<ellipse cx="151.399" cy="131.073" rx="2.62771" ry="4.50465" fill="#07042D"/>
<ellipse cx="189.689" cy="131.073" rx="2.62771" ry="4.50465" fill="#07042D"/>
<path d="M162.989 126.15C162.989 126.15 163.584 130.021 162.989 137.167C162.393 144.313 159.416 141.931 159.416 146.1C159.416 150.269 163.584 152.948 163.584 152.948" stroke="#D89B6E" stroke-width="1.19102" stroke-linecap="round"/>
<g opacity="0.4">
<path d="M181.307 260C181.307 254.477 175.231 250 167.736 250V260H181.307Z" fill="white"/>
<path d="M192.021 261.429H182.021C174.132 261.429 167.736 267.825 167.736 275.714C167.736 283.604 174.132 290 182.021 290H192.021V261.429Z" fill="white"/>
<path d="M192.021 261.429H182.021C174.132 261.429 167.736 267.825 167.736 275.714C167.736 283.604 174.132 290 182.021 290H192.021V261.429Z" fill="white"/>
<mask id="mask1_460_3872" style="mask-type:alpha" maskUnits="userSpaceOnUse" x="167" y="261" width="26" height="29">
<path d="M192.021 261.429H182.021C174.132 261.429 167.736 267.825 167.736 275.714C167.736 283.604 174.132 290 182.021 290H192.021V261.429Z" fill="black"/>
</mask>
<g mask="url(#mask1_460_3872)">
<circle cx="184.015" cy="270" r="16.2791" fill="white"/>
</g>
<path d="M193.45 275.714V261.429H201.308L195.968 267.714L200.611 271.772L193.45 275.714Z" fill="white"/>
<circle cx="4.55492" cy="4.55492" r="3.62469" transform="matrix(-1 0 0 1 189.824 263.961)" fill="white" stroke="#7595DE" stroke-width="1.86047"/>
<path fill-rule="evenodd" clip-rule="evenodd" d="M193.432 290C193.438 290 193.444 290 193.45 290C196.211 290 198.45 287.889 198.45 285.286C198.45 281.857 193.45 277.143 193.45 277.143C193.45 277.143 193.45 277.143 193.45 277.143H193.45V290H193.432Z" fill="white"/>
<path d="M192.022 260C192.022 255.661 187.225 252.143 181.308 252.143V260H192.022Z" fill="white"/>
<path d="M160.294 263.954L169.596 263.954" stroke="white" stroke-width="1.86047" stroke-linecap="round"/>
<path d="M158.433 282.093L164.945 282.093" stroke="white" stroke-width="1.86047" stroke-linecap="round"/>
<path d="M153.782 270L164.945 270" stroke="white" stroke-width="1.86047" stroke-linecap="round"/>
<path d="M157.038 276.046L162.154 276.046" stroke="white" stroke-width="1.86047" stroke-linecap="round"/>
</g>
</g>
<mask id="path-34-outside-1_460_3872" maskUnits="userSpaceOnUse" x="37.3244" y="49.147" width="37.1645" height="41.7581" fill="black">
<rect fill="white" x="37.3244" y="49.147" width="37.1645" height="41.7581"/>
<path fill-rule="evenodd" clip-rule="evenodd" d="M43.2075 56.7074C40.6502 57.5065 39.2249 60.2274 40.024 62.7847L44.8469 78.2192C45.646 80.7765 48.3669 82.2017 50.9241 81.4027L66.3587 76.5798C68.9159 75.7807 70.3412 73.0598 69.5422 70.5025L64.7193 55.068C63.9202 52.5107 61.1993 51.0854 58.642 51.8845L43.2075 56.7074ZM63.7624 77.3911L60.8201 84.24L54.5017 80.2848L63.7624 77.3911Z"/>
</mask>
<path d="M40.024 62.7847L40.9785 62.4864L40.024 62.7847ZM44.8469 78.2192L43.8924 78.5174L44.8469 78.2192ZM50.9241 81.4027L50.6259 80.4482L50.9241 81.4027ZM66.3587 76.5798L66.6569 77.5343L66.3587 76.5798ZM60.8201 84.24L60.2895 85.0876L61.2784 85.7067L61.7389 84.6347L60.8201 84.24ZM63.7624 77.3911L64.6812 77.7858L65.5395 75.7881L63.4642 76.4366L63.7624 77.3911ZM54.5017 80.2848L54.2035 79.3303L52.1282 79.9788L53.9711 81.1324L54.5017 80.2848ZM40.9785 62.4864C40.3441 60.4563 41.4756 58.2963 43.5058 57.6619L42.9093 55.7529C39.8248 56.7167 38.1057 59.9985 39.0695 63.0829L40.9785 62.4864ZM45.8014 77.9209L40.9785 62.4864L39.0695 63.0829L43.8924 78.5174L45.8014 77.9209ZM50.6259 80.4482C48.5958 81.0825 46.4358 79.951 45.8014 77.9209L43.8924 78.5174C44.8562 81.6019 48.138 83.321 51.2224 82.3572L50.6259 80.4482ZM66.0604 75.6253L50.6259 80.4482L51.2224 82.3572L66.6569 77.5343L66.0604 75.6253ZM68.5877 70.8008C69.222 72.8309 68.0905 74.9909 66.0604 75.6253L66.6569 77.5343C69.7413 76.5704 71.4604 73.2887 70.4966 70.2043L68.5877 70.8008ZM63.7648 55.3663L68.5877 70.8008L70.4966 70.2043L65.6737 54.7698L63.7648 55.3663ZM58.9403 52.839C60.9704 52.2047 63.1304 53.3361 63.7648 55.3663L65.6737 54.7698C64.7099 51.6853 61.4282 49.9662 58.3438 50.93L58.9403 52.839ZM43.5058 57.6619L58.9403 52.839L58.3438 50.93L42.9093 55.7529L43.5058 57.6619ZM61.7389 84.6347L64.6812 77.7858L62.8436 76.9963L59.9013 83.8453L61.7389 84.6347ZM53.9711 81.1324L60.2895 85.0876L61.3507 83.3924L55.0323 79.4372L53.9711 81.1324ZM63.4642 76.4366L54.2035 79.3303L54.8 81.2393L64.0607 78.3456L63.4642 76.4366Z" fill="#304862" mask="url(#path-34-outside-1_460_3872)"/>
<g clip-path="url(#clip0_460_3872)">
<path d="M61.5091 60.0181L61.6575 60.4929C61.6772 60.5559 61.6702 60.6244 61.6381 60.6832C61.606 60.7421 61.5514 60.7866 61.4864 60.807L60.7504 61.0369L60.8617 61.393C60.9231 61.5897 60.8082 61.8006 60.605 61.8641L48.5848 65.6201C48.3816 65.6836 48.1671 65.5756 48.1056 65.379L47.9943 65.0229L47.2584 65.2529C47.1933 65.2732 47.1231 65.2677 47.0632 65.2375C47.0033 65.2074 46.9586 65.1551 46.9389 65.0921L46.7906 64.6173C46.7759 64.5704 46.7759 64.5199 46.7907 64.4725C46.8055 64.425 46.8343 64.3826 46.8735 64.3506L53.1715 59.5163C53.2241 59.4735 53.2915 59.4524 53.3591 59.4577L61.2891 59.8461C61.3395 59.8501 61.3874 59.8685 61.4265 59.8991C61.4657 59.9298 61.4944 59.9712 61.5091 60.0181ZM63.592 69.2692L50.3453 73.4084C49.9389 73.5354 49.709 73.9572 49.832 74.3506L49.9803 74.8254C50 74.8883 50.0447 74.9406 50.1046 74.9708C50.1645 75.0009 50.2347 75.0064 50.2998 74.9861L64.5277 70.5402C64.5928 70.5199 64.6474 70.4754 64.6795 70.4165C64.7116 70.3576 64.7186 70.2891 64.6989 70.2262L64.5505 69.7514C64.4276 69.358 63.9985 69.1421 63.592 69.2692ZM49.8371 65.75L51.6174 71.4475L50.5135 71.7924C50.3103 71.8559 50.1954 72.0668 50.2568 72.2635L50.4423 72.857L63.1984 68.871L63.0129 68.2775C62.9515 68.0809 62.7369 67.9729 62.5337 68.0364L61.4298 68.3813L59.6495 62.6838L57.687 63.2971L59.4673 68.9946L57.5048 69.6078L55.7245 63.9103L53.762 64.5235L55.5424 70.221L53.5799 70.8342L51.7996 65.1367L49.8371 65.75Z" fill="#304862"/>
</g>
<mask id="path-37-outside-2_460_3872" maskUnits="userSpaceOnUse" x="70.1763" y="76.4162" width="29.5722" height="33.4063" fill="black">
<rect fill="white" x="70.1763" y="76.4162" width="29.5722" height="33.4063"/>
<path fill-rule="evenodd" clip-rule="evenodd" d="M80.9647 78.4475C78.805 77.9819 76.6768 79.3553 76.2112 81.515L73.4013 94.5501C72.9357 96.7098 74.3091 98.838 76.4688 99.3036L79.4837 99.9535L82.1444 104.867L86.5929 101.486L89.5039 102.113C91.6636 102.579 93.7918 101.206 94.2574 99.046L97.0673 86.0109C97.5329 83.8512 96.1595 81.723 93.9998 81.2574L80.9647 78.4475Z"/>
</mask>
<path d="M76.4688 99.3036L76.6796 98.326L76.4688 99.3036ZM79.4837 99.9535L80.3631 99.4773L80.1441 99.0729L79.6945 98.9759L79.4837 99.9535ZM82.1444 104.867L81.265 105.343L81.8206 106.369L82.7494 105.663L82.1444 104.867ZM86.5929 101.486L86.8036 100.508L86.354 100.412L85.9878 100.69L86.5929 101.486ZM89.5039 102.113L89.7146 101.136L89.5039 102.113ZM77.1888 81.7257C77.5379 80.1059 79.1342 79.0758 80.754 79.425L81.1754 77.4699C78.4758 76.888 75.8156 78.6047 75.2337 81.3043L77.1888 81.7257ZM74.3788 94.7608L77.1888 81.7257L75.2337 81.3043L72.4237 94.3393L74.3788 94.7608ZM76.6796 98.326C75.0597 97.9768 74.0296 96.3806 74.3788 94.7608L72.4237 94.3393C71.8418 97.0389 73.5585 99.6992 76.2581 100.281L76.6796 98.326ZM79.6945 98.9759L76.6796 98.326L76.2581 100.281L79.273 100.931L79.6945 98.9759ZM78.6044 100.43L81.265 105.343L83.0237 104.391L80.3631 99.4773L78.6044 100.43ZM82.7494 105.663L87.1979 102.282L85.9878 100.69L81.5393 104.071L82.7494 105.663ZM89.7146 101.136L86.8036 100.508L86.3821 102.464L89.2931 103.091L89.7146 101.136ZM93.2798 98.8352C92.9306 100.455 91.3344 101.485 89.7146 101.136L89.2931 103.091C91.9927 103.673 94.653 101.956 95.2349 99.2567L93.2798 98.8352ZM96.0898 85.8002L93.2798 98.8352L95.2349 99.2567L98.0448 86.2216L96.0898 85.8002ZM93.789 82.235C95.4089 82.5841 96.4389 84.1803 96.0898 85.8002L98.0448 86.2216C98.6268 83.522 96.9101 80.8618 94.2105 80.2799L93.789 82.235ZM80.754 79.425L93.789 82.235L94.2105 80.2799L81.1754 77.4699L80.754 79.425Z" fill="#CB9964" mask="url(#path-37-outside-2_460_3872)"/>
<g clip-path="url(#clip1_460_3872)">
<path d="M90.6585 93.8191C90.5985 93.8061 90.5365 93.8051 90.4761 93.8161C90.4157 93.8271 90.358 93.8499 90.3064 93.8832C90.2548 93.9165 90.2103 93.9597 90.1754 94.0102C90.1404 94.0607 90.1158 94.1176 90.1029 94.1776L89.9232 95.0112L87.0393 86.0483L88.0451 84.9373C88.128 84.8454 88.1711 84.7243 88.1648 84.6006C88.1586 84.4769 88.1035 84.3608 88.0118 84.2777C87.92 84.1946 87.799 84.1512 87.6753 84.1572C87.5516 84.1632 87.4353 84.218 87.352 84.3096L86.7086 85.0203L86.4148 84.1076C86.3962 84.0489 86.3662 83.9944 86.3265 83.9473C86.2868 83.9002 86.2382 83.8614 86.1834 83.8331C86.1287 83.8049 86.0689 83.7877 86.0075 83.7827C85.9461 83.7776 85.8843 83.7847 85.8257 83.8036C85.767 83.8225 85.7127 83.8528 85.6658 83.8927C85.6189 83.9327 85.5804 83.9815 85.5524 84.0364C85.5244 84.0912 85.5075 84.1511 85.5028 84.2125C85.498 84.274 85.5054 84.3357 85.5246 84.3943L85.9837 85.8207L79.6633 92.7996L79.843 91.9659C79.856 91.9059 79.8569 91.8439 79.8459 91.7835C79.8349 91.7231 79.8121 91.6654 79.7788 91.6138C79.7455 91.5623 79.7024 91.5177 79.6519 91.4828C79.6014 91.4479 79.5445 91.4232 79.4845 91.4103C79.4245 91.3974 79.3625 91.3964 79.3021 91.4074C79.2417 91.4184 79.184 91.4412 79.1324 91.4745C79.0808 91.5078 79.0363 91.5509 79.0014 91.6014C78.9665 91.6519 78.9418 91.7088 78.9289 91.7688L78.3817 94.3074C78.371 94.3619 78.3702 94.4179 78.3793 94.4727C78.3813 94.4865 78.3834 94.4996 78.3867 94.5131C78.3896 94.5254 78.3895 94.5381 78.3934 94.5502C78.4059 94.5887 78.4233 94.6254 78.4452 94.6594C78.4454 94.6598 78.4456 94.6602 78.4458 94.6606C78.4756 94.7049 78.5129 94.7436 78.5559 94.7752C78.5666 94.7835 78.5772 94.7906 78.5887 94.798C78.6348 94.8289 78.686 94.8512 78.74 94.864L82.5492 95.6851L83.2499 92.4346C83.3515 91.9631 83.6363 91.5514 84.0415 91.2898C84.4468 91.0283 84.9393 90.9385 85.4108 91.0401C85.8822 91.1418 86.294 91.4265 86.5555 91.8318C86.8171 92.237 86.9069 92.7296 86.8052 93.201L86.1045 96.4515L89.914 97.2727C89.9684 97.2833 90.0243 97.2841 90.079 97.2749C90.0925 97.2729 90.1052 97.2708 90.1184 97.2677C90.1706 97.2566 90.2204 97.2366 90.2658 97.2086C90.2662 97.2084 90.2665 97.2081 90.2669 97.2077C90.3008 97.1858 90.3318 97.1596 90.359 97.1296C90.3676 97.1202 90.3727 97.1087 90.3804 97.0987C90.389 97.0876 90.3963 97.0766 90.4039 97.0646C90.4347 97.0185 90.457 96.9672 90.4698 96.9132L91.017 94.3746C91.03 94.3146 91.0309 94.2526 91.0199 94.1922C91.0089 94.1318 90.9861 94.0742 90.9528 94.0226C90.9195 93.971 90.8764 93.9265 90.8259 93.8915C90.7754 93.8566 90.7185 93.832 90.6585 93.8191Z" fill="#CB9964"/>
</g>
<mask id="path-40-outside-3_460_3872" maskUnits="userSpaceOnUse" x="70.1585" y="22.8553" width="39.031" height="45.6749" fill="black">
<rect fill="white" x="70.1585" y="22.8553" width="39.031" height="45.6749"/>
<path fill-rule="evenodd" clip-rule="evenodd" d="M83.1648 24.9122C79.9974 24.4084 77.0213 26.5677 76.5174 29.7351L73.4766 48.8521C72.9728 52.0195 75.132 54.9956 78.2995 55.4994L81.8764 56.0684L86.5472 63.6715L93.3465 57.8929L97.4164 58.5403C100.584 59.0441 103.56 56.8848 104.064 53.7174L107.105 34.6004C107.608 31.433 105.449 28.4569 102.282 27.9531L83.1648 24.9122Z"/>
</mask>
<path d="M76.5174 29.7351L77.505 29.8922L76.5174 29.7351ZM73.4766 48.8521L72.489 48.695L73.4766 48.8521ZM78.2995 55.4994L78.4565 54.5118L78.2995 55.4994ZM81.8764 56.0684L82.7285 55.545L82.4877 55.1531L82.0335 55.0808L81.8764 56.0684ZM86.5472 63.6715L85.6951 64.195L86.3058 65.189L87.1948 64.4335L86.5472 63.6715ZM93.3465 57.8929L93.5036 56.9053L93.0494 56.833L92.6989 57.1309L93.3465 57.8929ZM97.4164 58.5403L97.2593 59.5278L97.4164 58.5403ZM104.064 53.7174L103.076 53.5603L104.064 53.7174ZM107.105 34.6004L108.092 34.7575L107.105 34.6004ZM77.505 29.8922C77.9221 27.2702 80.3857 25.4828 83.0077 25.8998L83.3219 23.9247C79.609 23.3341 76.1204 25.8652 75.5299 29.578L77.505 29.8922ZM74.4642 49.0092L77.505 29.8922L75.5299 29.578L72.489 48.695L74.4642 49.0092ZM78.4565 54.5118C75.8346 54.0948 74.0471 51.6311 74.4642 49.0092L72.489 48.695C71.8984 52.4078 74.4295 55.8964 78.1424 56.487L78.4565 54.5118ZM82.0335 55.0808L78.4565 54.5118L78.1424 56.487L81.7193 57.056L82.0335 55.0808ZM81.0243 56.5918L85.6951 64.195L87.3992 63.1481L82.7285 55.545L81.0243 56.5918ZM87.1948 64.4335L93.9941 58.6549L92.6989 57.1309L85.8996 62.9096L87.1948 64.4335ZM97.5735 57.5527L93.5036 56.9053L93.1894 58.8805L97.2593 59.5278L97.5735 57.5527ZM103.076 53.5603C102.659 56.1823 100.196 57.9697 97.5735 57.5527L97.2593 59.5278C100.972 60.1184 104.461 57.5873 105.051 53.8745L103.076 53.5603ZM106.117 34.4433L103.076 53.5603L105.051 53.8745L108.092 34.7575L106.117 34.4433ZM102.125 28.9407C104.747 29.3577 106.534 31.8214 106.117 34.4433L108.092 34.7575C108.683 31.0447 106.152 27.5561 102.439 26.9655L102.125 28.9407ZM83.0077 25.8998L102.125 28.9407L102.439 26.9655L83.3219 23.9247L83.0077 25.8998Z" fill="#14A7A0" mask="url(#path-40-outside-3_460_3872)"/>
<g clip-path="url(#clip2_460_3872)">
<path d="M98.488 49.8342L96.1625 43.7642C96.0555 43.4841 95.8769 43.2369 95.6445 43.0474C95.412 42.8578 95.1339 42.7327 94.8379 42.6843C94.542 42.636 94.2385 42.6662 93.9578 42.7719C93.6771 42.8776 93.4291 43.0551 93.2386 43.2867L94.0861 45.4981C94.1505 45.6663 94.1455 45.8532 94.0722 46.0177C93.9988 46.1822 93.8631 46.3108 93.6949 46.3753C93.5267 46.4397 93.3398 46.4347 93.1753 46.3614C93.0108 46.288 92.8822 46.1523 92.8177 45.9842L92.2499 44.5025L92.2488 44.5039L90.6359 40.2941C90.4986 39.9356 90.2694 39.6195 89.9712 39.3776C89.673 39.1357 89.3163 38.9767 88.9372 38.9163C88.558 38.856 88.1696 38.8966 87.8111 39.034C87.4525 39.1714 87.1365 39.4008 86.8947 39.699L86.8948 39.6987L80.9394 47.0429C80.8643 47.1354 80.8149 47.2461 80.7962 47.3638C80.7775 47.4814 80.79 47.602 80.8326 47.7133C80.8753 47.8246 80.9464 47.9227 81.039 47.9977C81.1316 48.0728 81.2423 48.1222 81.3599 48.1409L97.7475 50.7475C97.8652 50.7663 97.9858 50.7537 98.0971 50.7111C98.2083 50.6684 98.3064 50.5973 98.3815 50.5047C98.4565 50.4121 98.5059 50.3014 98.5246 50.1837C98.5433 50.066 98.5307 49.9455 98.488 49.8342Z" fill="#14A7A0"/>
<path d="M94.3094 39.5089C95.9138 39.7641 97.4213 38.6704 97.6765 37.066C97.9317 35.4616 96.838 33.9541 95.2336 33.6989C93.6292 33.4437 92.1217 34.5374 91.8665 36.1418C91.6113 37.7462 92.7051 39.2537 94.3094 39.5089Z" fill="#FFCC73"/>
</g>
<defs>
<clipPath id="clip0_460_3872">
<rect width="16.979" height="16.979" fill="white" transform="translate(44.4131 60.5659) rotate(-17.3527)"/>
</clipPath>
<clipPath id="clip1_460_3872">
<rect width="14.0012" height="14.0012" fill="white" transform="translate(80.2622 81.7061) rotate(12.165)"/>
</clipPath>
<clipPath id="clip2_460_3872">
<rect width="20.3252" height="20.3252" fill="white" transform="translate(82.4048 29.6914) rotate(9.03801)"/>
</clipPath>
</defs>
</svg>
