<svg width="20" height="20" viewBox="0 0 20 20" fill="none" xmlns="http://www.w3.org/2000/svg">
<path d="M6.66244 18.9626H17.4958C18.2958 18.9626 18.9541 18.3042 18.9541 17.5042V6.6709C18.9541 2.98756 17.0124 1.0459 13.3291 1.0459H6.66244C2.9791 1.0459 1.03744 2.98756 1.03744 6.6709V13.3376C1.03744 17.0209 2.9791 18.9626 6.66244 18.9626ZM13.3291 2.2959C16.3124 2.2959 17.7041 3.68756 17.7041 6.6709V17.5042C17.7041 17.6209 17.6124 17.7126 17.4958 17.7126H6.66244C3.6791 17.7126 2.28744 16.3209 2.28744 13.3376V6.6709C2.28744 3.68756 3.6791 2.2959 6.66244 2.2959H13.3291Z" fill="#304862"/>
<path d="M7.08268 10.626H12.916C13.2577 10.626 13.541 10.3426 13.541 10.001C13.541 9.65931 13.2577 9.37598 12.916 9.37598H7.08268C6.74102 9.37598 6.45768 9.65931 6.45768 10.001C6.45768 10.3426 6.74102 10.626 7.08268 10.626Z" fill="#304862"/>
<path d="M8.74935 13.126H12.916C13.2577 13.126 13.541 12.8426 13.541 12.501C13.541 12.1593 13.2577 11.876 12.916 11.876H8.74935C8.40768 11.876 8.12435 12.1593 8.12435 12.501C8.12435 12.8426 8.40768 13.126 8.74935 13.126Z" fill="#304862"/>
</svg>
