<svg width="28" height="32" viewBox="0 0 28 32" fill="none" xmlns="http://www.w3.org/2000/svg">
<path d="M25.9903 17.7217H1.74829C0.645289 17.7217 0.462289 18.4257 0.446289 18.8362C0.992789 26.1597 6.84579 31.9322 13.9993 31.9322C21.0418 31.9322 26.8353 26.3432 27.5363 19.1837C27.5378 19.1722 27.5378 19.1617 27.5393 19.1502C27.5473 19.0602 27.5458 18.9682 27.5518 18.8772C27.5098 17.8482 26.3753 17.7312 25.9903 17.7217Z" fill="white"/>
<path d="M9.5587 8.41788C9.7682 8.47088 9.9857 8.50638 10.2097 8.51938V8.53338L10.3552 8.53388C10.3742 8.53388 10.3912 8.53988 10.4097 8.53988C10.4287 8.53988 10.4472 8.53488 10.4662 8.53388L10.8777 8.53588V8.53888L18.1077 8.53788C19.0787 8.53788 19.4967 8.79838 19.6722 8.97288C19.7772 9.19188 19.8412 9.43488 19.8412 9.69388C19.8412 10.2674 19.5517 10.7729 19.1137 11.0749C19.1042 11.0829 19.0917 11.0874 19.0837 11.0944C19.0262 11.1319 18.9652 11.1619 18.9022 11.1924C18.5112 11.3494 17.9012 11.3479 17.9012 11.3479H14.7092L10.0302 11.3474C10.0302 11.3474 9.4672 11.3394 8.9242 11.5059C8.9102 11.5109 8.8962 11.5154 8.8807 11.5209C8.8242 11.5384 8.7682 11.5589 8.7117 11.5814C8.4237 11.7014 8.1297 11.8809 7.8732 12.1544C7.8667 12.1609 7.8607 12.1659 7.8542 12.1719C7.8462 12.1799 7.8387 12.1839 7.8322 12.1919C7.8242 12.2009 7.8227 12.2049 7.8167 12.2139C7.2957 12.7224 6.9697 13.4264 6.9697 14.2129C6.9697 14.3964 6.9937 14.5729 7.0322 14.7439C7.0762 14.9019 7.2307 15.2654 7.7582 15.2674H8.0007C8.5892 15.2544 8.7392 14.1734 8.7392 14.1734L8.7437 14.1739C8.7782 14.0474 8.8297 13.9279 8.9002 13.8204C8.9032 13.8159 8.9047 13.8119 8.9097 13.8064C8.9177 13.7959 8.9267 13.7869 8.9347 13.7759C9.0787 13.6059 9.4842 13.2949 10.5432 13.2949L17.7747 13.2954V13.2924L18.1847 13.2909C18.2047 13.2914 18.2222 13.2964 18.2407 13.2964C18.2592 13.2964 18.2782 13.2909 18.2967 13.2909L18.4407 13.2899V13.2759C18.6642 13.2629 18.8837 13.2274 19.0932 13.1744C20.6392 12.8644 21.8047 11.5009 21.8047 9.86388C21.8047 9.35888 21.6862 8.88488 21.4872 8.45738C21.3402 8.07938 21.1212 7.73788 20.8347 7.45838C20.8282 7.44938 20.8267 7.44538 20.8192 7.43638C20.8127 7.42838 20.8052 7.42388 20.7972 7.41588C20.7907 7.41038 20.7847 7.40538 20.7782 7.39888C20.6672 7.28088 20.5482 7.18738 20.4262 7.10138C20.3892 7.07388 20.3517 7.04788 20.3122 7.02338C20.2227 6.96788 20.1322 6.92238 20.0427 6.88088C19.1697 6.50088 17.9912 6.59238 17.9912 6.59238H12.2642H11.9967H10.7512C10.7512 6.59238 10.1407 6.59388 9.7482 6.43638C9.6872 6.40588 9.6242 6.37638 9.5682 6.33888C9.5587 6.33188 9.5462 6.32738 9.5382 6.31938C9.0987 6.01738 8.8107 5.51238 8.8107 4.93838C8.8107 4.01188 9.5617 3.26138 10.4877 3.26138H13.9422H14.3427H14.6557C16.0967 3.26138 16.3562 2.21138 16.4017 1.73038V0.585883C16.4017 0.145383 16.0807 0.0753828 16.0327 0.0673828C15.5632 0.0813828 14.8122 0.198883 14.8122 0.823883C14.8122 0.971883 14.8122 1.08738 14.8122 1.19088C14.7972 1.37938 14.6827 1.72988 14.0492 1.72988H10.2487C10.2427 1.73038 10.2347 1.73038 10.2282 1.73038C10.2267 1.73038 10.2252 1.72988 10.2237 1.72988C10.2157 1.72988 10.2097 1.73238 10.2017 1.73238C9.9652 1.74438 9.7402 1.76538 9.5492 1.79788C9.5462 1.79888 9.5427 1.79888 9.5397 1.79938C9.4052 1.82288 9.2897 1.85138 9.2032 1.88738C9.1737 1.89938 9.1547 1.91238 9.1377 1.92488C7.8077 2.37838 6.8457 3.62438 6.8457 5.10688C6.8457 6.74438 8.0112 8.10788 9.5587 8.41788Z" fill="white"/>
</svg>
