<svg width="32" height="32" viewBox="0 0 32 32" fill="none" xmlns="http://www.w3.org/2000/svg">
<path d="M16.0003 2.66699C13.3632 2.66699 10.7854 3.44898 8.59273 4.91406C6.40007 6.37915 4.69111 8.46153 3.68194 10.8979C2.67277 13.3342 2.40872 16.0151 2.92319 18.6015C3.43766 21.1879 4.70754 23.5637 6.57224 25.4284C8.43694 27.2931 10.8127 28.563 13.3991 29.0775C15.9855 29.5919 18.6664 29.3279 21.1028 28.3187C23.5391 27.3096 25.6215 25.6006 27.0866 23.4079C28.5517 21.2153 29.3337 18.6374 29.3337 16.0003C29.3337 14.2494 28.9888 12.5156 28.3187 10.8979C27.6487 9.2802 26.6665 7.81035 25.4284 6.57223C24.1903 5.33412 22.7205 4.35199 21.1028 3.68193C19.4851 3.01187 17.7513 2.66699 16.0003 2.66699ZM21.9603 10.8803L19.2937 18.8803C19.2625 18.9771 19.2088 19.0651 19.1369 19.1369C19.0651 19.2088 18.9771 19.2625 18.8803 19.2937L10.8803 21.9603C10.8098 21.9731 10.7375 21.9731 10.667 21.9603C10.5796 21.9614 10.4929 21.9441 10.4125 21.9097C10.3321 21.8753 10.2599 21.8244 10.2003 21.7603C10.1106 21.6747 10.0478 21.5648 10.0194 21.4441C9.99097 21.3234 9.99825 21.197 10.0403 21.0803L12.707 13.0803C12.7381 12.9836 12.7918 12.8956 12.8637 12.8237C12.9356 12.7518 13.0236 12.6981 13.1203 12.667L21.1203 10.0003C21.2373 9.96235 21.3624 9.95744 21.4819 9.98615C21.6015 10.0149 21.7107 10.0761 21.7977 10.163C21.8846 10.2499 21.9458 10.3592 21.9745 10.4787C22.0032 10.5983 21.9983 10.7234 21.9603 10.8403V10.8803Z" fill="white"/>
</svg>
