<svg width="32" height="32" viewBox="0 0 32 32" fill="none" xmlns="http://www.w3.org/2000/svg">
<g clip-path="url(#clip0_476_8618)">
<path d="M5.33398 21.3327C5.33398 22.5127 5.85398 23.5593 6.66732 24.2927V26.666C6.66732 27.3993 7.26732 27.9993 8.00065 27.9993H9.33398C10.074 27.9993 10.6673 27.3993 10.6673 26.666V25.3327H21.334V26.666C21.334 27.3993 21.9273 27.9993 22.6673 27.9993H24.0007C24.734 27.9993 25.334 27.3993 25.334 26.666V24.2927C26.1473 23.5593 26.6673 22.5127 26.6673 21.3327V7.99935C26.6673 3.33268 21.894 2.66602 16.0007 2.66602C10.1073 2.66602 5.33398 3.33268 5.33398 7.99935V21.3327ZM10.0007 22.666C8.89398 22.666 8.00065 21.7727 8.00065 20.666C8.00065 19.5593 8.89398 18.666 10.0007 18.666C11.1073 18.666 12.0007 19.5593 12.0007 20.666C12.0007 21.7727 11.1073 22.666 10.0007 22.666ZM22.0007 22.666C20.894 22.666 20.0007 21.7727 20.0007 20.666C20.0007 19.5593 20.894 18.666 22.0007 18.666C23.1073 18.666 24.0007 19.5593 24.0007 20.666C24.0007 21.7727 23.1073 22.666 22.0007 22.666ZM24.0007 14.666H8.00065V7.99935H24.0007V14.666Z" fill="white"/>
</g>
<defs>
<clipPath id="clip0_476_8618">
<rect width="32" height="32" fill="white"/>
</clipPath>
</defs>
</svg>
