<svg width="32" height="32" viewBox="0 0 32 32" fill="none" xmlns="http://www.w3.org/2000/svg">
<path d="M25.667 14.6663C27.617 14.6663 29.2115 16.1886 29.327 18.1097L29.3337 18.333V26.9997C29.3337 27.5519 28.8859 27.9997 28.3337 27.9997C27.8274 27.9997 27.409 27.6234 27.3427 27.1354L27.3337 26.9997V23.9997H4.66699V26.9997C4.66699 27.5059 4.29079 27.9243 3.80269 27.9906L3.66699 27.9997C3.16073 27.9997 2.74234 27.6234 2.67613 27.1354L2.66699 26.9997V18.333C2.66699 16.383 4.18926 14.7885 6.1103 14.673L6.33366 14.6663H25.667ZM9.00033 5.33301H23.0003C24.9503 5.33301 26.5449 6.85527 26.6603 8.77631L26.667 8.99967V13.333H22.667L22.6581 13.1775C22.587 12.5654 22.1013 12.0797 21.4891 12.0086L21.3337 11.9997H18.667C17.9833 11.9997 17.4197 12.5144 17.3426 13.1775L17.3337 13.333H14.667L14.6581 13.1775C14.5869 12.5654 14.1013 12.0797 13.4891 12.0086L13.3337 11.9997H10.667C9.98321 11.9997 9.41965 12.5144 9.34263 13.1775L9.33366 13.333H5.33366V8.99967C5.33366 7.04963 6.85593 5.45514 8.77697 5.3397L9.00033 5.33301Z" fill="white"/>
</svg>
