<svg width="73" height="86" viewBox="0 0 73 86" fill="none" xmlns="http://www.w3.org/2000/svg">
<path d="M29.1786 21.5C29.1786 9.62589 16.1149 0 0 0V21.5H29.1786Z" fill="#00B5EF"/>
<path d="M52.2148 24.5713H30.7148C13.7518 24.5713 0.000507355 38.3226 0.000507355 55.2856C0.000507355 72.2486 13.7518 85.9999 30.7148 85.9999H52.2148V24.5713Z" fill="#FF9F31"/>
<path d="M52.2148 24.5713H30.7148C13.7518 24.5713 0.000507355 38.3226 0.000507355 55.2856C0.000507355 72.2486 13.7518 85.9999 30.7148 85.9999H52.2148V24.5713Z" fill="#FF9F31"/>
<mask id="mask0_322_4194" style="mask-type:alpha" maskUnits="userSpaceOnUse" x="0" y="24" width="53" height="62">
<path d="M52.2139 24.5713H30.7138C13.7508 24.5713 -0.000469208 38.3226 -0.000469208 55.2856C-0.000469208 72.2486 13.7508 85.9999 30.7138 85.9999H52.2139V24.5713Z" fill="black"/>
</mask>
<g mask="url(#mask0_322_4194)">
<circle cx="35" cy="43" r="35" fill="#FFB901"/>
</g>
<path d="M55.2868 55.2856V24.5713H72.1797L60.7002 38.0856L70.6824 46.8085L55.2868 55.2856Z" fill="#00B5EF"/>
<circle cx="9.79308" cy="9.79308" r="7.79308" transform="matrix(-1 0 0 1 47.4883 30.0166)" fill="black" stroke="white" stroke-width="4"/>
<path fill-rule="evenodd" clip-rule="evenodd" d="M55.2852 85.9996C55.2853 85.9996 55.2854 85.9996 55.2854 85.9996C61.2223 85.9996 66.0352 81.4615 66.0352 75.8638C66.0352 68.4923 55.2854 58.3564 55.2854 58.3564C55.2854 58.3564 55.2853 58.3565 55.2852 58.3567H55.2852V85.9996Z" fill="#00B5EF"/>
<path d="M52.2154 21.5003C52.2154 12.1706 41.902 4.60742 29.1797 4.60742V21.5003H52.2154Z" fill="#00B5EF"/>
</svg>
