<svg width="16" height="16" viewBox="0 0 16 16" fill="none" xmlns="http://www.w3.org/2000/svg">
<g clip-path="url(#clip0_446_5094)">
<path d="M7.99996 3.33333C9.0778 3.33333 10.0675 3.70235 10.8575 4.31604L13.2823 2.00273C11.8725 0.759969 10.0271 0 7.99996 0C4.92822 0 2.2644 1.73328 0.923828 4.27323L3.62012 6.40186C4.27327 4.61292 5.98494 3.33333 7.99996 3.33333Z" fill="#F44336"/>
<path d="M15.9307 9.0009C15.9724 8.67314 16 8.33879 16 7.99967C16 7.42778 15.9375 6.87089 15.8235 6.33301H8V9.66634H12.3241C11.9743 10.5755 11.3515 11.3448 10.5587 11.8793L13.265 14.0159C14.6996 12.7566 15.6813 10.9932 15.9307 9.0009Z" fill="#2196F3"/>
<path d="M3.33333 8.0002C3.33333 7.43791 3.43791 6.90129 3.62016 6.40206L0.923869 4.27344C0.336222 5.38688 0 6.65365 0 8.0002C0 9.33171 0.330037 10.5844 0.905477 11.6888L3.60518 9.5575C3.43229 9.06982 3.33333 8.54716 3.33333 8.0002Z" fill="#FFC107"/>
<path d="M8.00004 12.667C5.96969 12.667 4.24699 11.368 3.60522 9.55762L0.905518 11.689C2.23954 14.2493 4.91325 16.0003 8.00004 16.0003C10.0186 16.0003 11.8592 15.2504 13.265 14.0165L10.5587 11.88C9.82751 12.3729 8.95231 12.667 8.00004 12.667Z" fill="#00B060"/>
<path opacity="0.1" d="M8.00004 15.8336C5.64559 15.8336 3.52852 14.8621 2.03174 13.3145C3.49695 14.9588 5.62435 16.0002 8.00004 16.0002C10.3538 16.0002 12.4635 14.9793 13.9255 13.3608C12.4331 14.8833 10.3321 15.8336 8.00004 15.8336Z" fill="black"/>
<path opacity="0.1" d="M8 9.5V9.66667H12.3241L12.3917 9.5H8Z" fill="black"/>
<path d="M15.9963 8.09831C15.9968 8.06547 16 8.0332 16 8.00028C16 7.99097 15.9985 7.98197 15.9985 7.97266C15.998 8.01465 15.9959 8.05615 15.9963 8.09831Z" fill="#E6E6E6"/>
<path opacity="0.2" d="M8 6.33301V6.49967H15.857C15.8465 6.44466 15.8351 6.38761 15.8235 6.33301H8Z" fill="white"/>
<path d="M15.8235 6.33333H8V9.66667H12.3241C11.6517 11.4144 9.98478 12.6667 8 12.6667C5.42269 12.6667 3.33333 10.5773 3.33333 8C3.33333 5.42265 5.42269 3.33333 8 3.33333C8.93457 3.33333 9.79594 3.62044 10.5257 4.09379C10.6374 4.16638 10.7526 4.23454 10.8575 4.31604L13.2823 2.00273L13.2276 1.96065C11.8246 0.74471 10.0024 0 8 0C3.58171 0 0 3.58171 0 8C0 12.4183 3.58171 16 8 16C12.0785 16 15.437 12.9458 15.9307 9.00122C15.9724 8.67346 16 8.33911 16 8C16 7.4281 15.9375 6.87122 15.8235 6.33333Z" fill="url(#paint0_linear_446_5094)"/>
<path opacity="0.1" d="M10.5257 3.92733C9.79598 3.45398 8.93461 3.16687 8.00004 3.16687C5.42273 3.16687 3.33337 5.25619 3.33337 7.83354C3.33337 7.86165 3.33375 7.88363 3.33424 7.91166C3.3792 5.37321 5.45085 3.33354 8.00004 3.33354C8.93461 3.33354 9.79598 3.62065 10.5257 4.09399C10.6374 4.16659 10.7526 4.23474 10.8576 4.31624L13.2823 2.00293L10.8576 4.14958C10.7526 4.06807 10.6374 3.99992 10.5257 3.92733Z" fill="black"/>
<path opacity="0.2" d="M8 0.166667C9.98336 0.166667 11.7886 0.898926 13.1862 2.0944L13.2823 2.00273L13.209 1.93885C11.806 0.722906 10.0024 0 8 0C3.58171 0 0 3.58171 0 8C0 8.02812 0.00390627 8.05526 0.00419107 8.08333C0.0493571 3.7039 3.60982 0.166667 8 0.166667Z" fill="white"/>
</g>
<defs>
<linearGradient id="paint0_linear_446_5094" x1="0" y1="8" x2="16" y2="8" gradientUnits="userSpaceOnUse">
<stop stop-color="white" stop-opacity="0.2"/>
<stop offset="1" stop-color="white" stop-opacity="0"/>
</linearGradient>
<clipPath id="clip0_446_5094">
<rect width="16" height="16" fill="white"/>
</clipPath>
</defs>
</svg>
