<svg width="720" height="1024" viewBox="0 0 720 1024" fill="none" xmlns="http://www.w3.org/2000/svg">
<g clip-path="url(#clip0_446_5947)">
<rect width="720" height="1024" fill="#F4F9FF"/>
<g clip-path="url(#clip1_446_5947)">
<g filter="url(#filter0_d_446_5947)">
<path d="M316.666 260.786C326.639 253.778 353.539 232.97 381.355 205.8C382.719 204.468 384.058 203.12 385.373 201.757C388.782 198.224 392.026 194.597 395.102 190.934C395.102 190.934 378.121 204.183 355.48 218.738C332.838 233.293 313.166 244.614 313.166 244.614C314.592 250.751 315.89 256.905 316.666 260.786Z" fill="#C1D3DC"/>
<path d="M408.04 174.03C420.634 156.015 428.908 139.245 432.298 130.599C388.558 171.664 361.782 192.075 298.068 209.993C303.069 213.331 306.068 220.726 308.58 227.633C309.925 231.333 311.621 237.964 313.166 244.614C313.166 244.614 332.838 233.293 355.48 218.738C378.121 204.183 395.102 190.934 395.102 190.934C395.918 189.962 396.723 188.987 397.515 188.011C401.301 183.346 404.812 178.647 408.04 174.03Z" fill="#ECEEF2"/>
<path d="M243.082 206.609C243.082 206.609 242.824 214.28 242.6 221.432C242.427 226.943 242.273 232.145 242.273 233.293C242.273 235.932 242.388 238.686 242.568 241.379C254.263 243.408 260.151 242.168 269.016 234.102C266.998 226.01 266.329 217.316 266.532 205.8C266.532 199.331 266.532 190.436 270.575 178.307C271.984 174.08 273.33 170.694 274.474 167.817C276.612 162.44 278.042 158.843 277.852 154.857C277.206 141.273 248.473 120.087 234.187 111.192C235.297 116.371 240.13 123.411 245.124 130.687C251.048 139.316 257.198 148.277 257.637 154.857C258.446 166.987 249.551 193.401 243.082 206.609Z" fill="#82DAAB"/>
<path d="M165.455 314.963L171.694 297.982C169.718 293.551 168.033 289.269 166.666 285.045H162.22C159.794 285.045 157.369 285.853 157.369 285.853C157.369 285.853 150.63 287.327 141.452 290.705C144.621 300.306 144.198 305.589 138.77 314.746C153.999 312.842 165.455 314.963 165.455 314.963Z" fill="#ECEEF2"/>
<path d="M112.086 306.069C92.6792 320.624 74.8896 338.413 74.8896 338.413C74.8896 338.413 96.7223 327.093 120.172 319.006C126.636 316.778 132.976 315.47 138.77 314.746C144.198 305.589 144.621 300.306 141.452 290.705C132.644 293.946 121.59 298.941 112.086 306.069Z" fill="white"/>
<path fill-rule="evenodd" clip-rule="evenodd" d="M213.972 293.939C232.57 300.274 263.297 300.408 263.297 300.408C263.241 300.182 263.503 299.389 263.9 298.189C265.671 292.832 270.12 279.373 260.872 272.107C256.937 269.016 251.05 265.069 244.499 260.995C234.311 254.66 222.518 248.016 213.972 243.805C213.972 243.805 219.632 242.188 230.144 234.102C235.371 230.168 238.169 227.592 242.6 221.432C242.824 214.28 243.082 206.609 243.082 206.609C241.195 206.339 235.804 205.962 229.336 206.609C222.867 207.256 217.476 208.496 215.589 209.035L213.163 190.436C211.869 176.205 214.78 169.412 216.398 167.795C213.972 168.604 207.341 172.162 200.225 179.924C193.11 187.687 194.565 205.8 196.182 213.886C194.749 215.266 193.071 217.219 191.331 219.703C184.542 229.389 176.794 247.148 178.856 270.489C178.856 270.489 195.374 287.605 213.972 293.939Z" fill="#FFFEFC"/>
<path d="M230.144 234.102C219.632 242.188 213.972 243.805 213.972 243.805C222.518 248.016 234.311 254.66 244.499 260.995L242.568 241.379C242.388 238.686 242.273 235.932 242.273 233.293C242.273 232.145 242.427 226.943 242.6 221.432C238.169 227.592 235.371 230.168 230.144 234.102Z" fill="#ECEEF2"/>
<path d="M260.872 311.729C266.262 311.19 278.338 308.656 283.513 302.834C284.398 301.838 285.091 299.567 285.624 296.365L278.661 291.514L286.741 285.045L279.47 279.384L287.127 273.724L280.278 268.872L287.186 264.829L280.278 259.977C274.695 250.328 271.121 242.543 269.016 234.102C260.151 242.168 254.263 243.408 242.568 241.379L244.499 260.995C251.05 265.069 256.937 269.016 260.872 272.107C270.12 279.373 265.671 292.832 263.9 298.189C263.503 299.389 263.241 300.182 263.297 300.408C263.944 302.996 261.95 309.034 260.872 311.729Z" fill="#01ABEA"/>
<path fill-rule="evenodd" clip-rule="evenodd" d="M260.872 311.729C261.95 309.034 263.944 302.996 263.297 300.408C263.297 300.408 232.57 300.274 213.972 293.939C195.374 287.605 178.856 270.489 178.856 270.489C178.95 271.556 179.065 272.634 179.201 273.724C182.319 298.664 196.12 315.926 210.737 324.435C217.05 328.11 223.514 330.153 229.335 330.477C231.012 330.57 232.636 330.521 234.187 330.327C241.23 329.447 246.875 326.647 251.168 323.348C256.338 319.374 259.546 314.674 260.872 311.729ZM234.996 319.006C218.823 318.198 208.311 299.6 208.311 299.6L216.398 300.274L230.953 301.486L244.699 302.632L256.828 303.643C256.828 303.643 254.975 308.938 250.359 313.317C246.909 316.591 241.914 319.352 234.996 319.006Z" fill="#ECEEF2"/>
<path d="M256.828 303.643L244.699 302.632L250.359 313.317C254.975 308.938 256.828 303.643 256.828 303.643Z" fill="#FFFEFC"/>
<path d="M230.953 301.486L235.804 311.729L244.699 302.632L230.953 301.486Z" fill="#FFFEFC"/>
<path d="M216.398 300.274L222.058 309.303L230.953 301.486L216.398 300.274Z" fill="#FFFEFC"/>
<path d="M208.311 299.6C208.311 299.6 218.823 318.198 234.996 319.006C241.914 319.352 246.909 316.591 250.359 313.317L244.699 302.632L235.804 311.729L230.953 301.486L222.058 309.303L216.398 300.274L208.311 299.6Z" fill="#C1D3DC"/>
<path d="M163.029 250.274C163.093 249.718 163.165 249.179 163.245 248.657C163.245 248.657 158.177 255.934 157.369 267.255C156.56 278.576 157.369 285.853 157.369 285.853C157.369 285.853 159.794 285.045 162.22 285.045H166.666C162.978 273.645 161.6 262.661 163.029 250.274Z" fill="#FFFEFC"/>
<path d="M191.331 219.703C191.331 219.703 191.331 211.46 185.67 200.14C180.01 188.819 169.498 190.436 169.498 190.436L169.585 190.558C172.274 194.321 175.984 199.513 177.584 216.312C178.395 224.829 175.341 228.057 171.79 231.812C168.447 235.345 164.664 239.345 163.245 248.657C163.165 249.179 163.093 249.718 163.029 250.274C161.6 262.661 162.978 273.645 166.666 285.045C168.033 289.269 169.718 293.551 171.694 297.982C173.436 301.888 175.405 305.91 177.584 310.112C179.798 314.382 182.477 319.288 185.366 324.435C185.366 324.435 197.799 333.562 207.503 339.222C217.206 344.882 228.597 349.734 228.597 349.734C222.088 340.05 215.582 330.952 210.737 324.435C196.12 315.926 182.319 298.664 179.201 273.724C179.065 272.634 178.95 271.556 178.856 270.489C176.794 247.148 184.542 229.389 191.331 219.703Z" fill="#82DAAB"/>
<path d="M235.804 375.61L234.187 389.356L232.57 409.572C237.437 412.339 243.986 416.755 250.359 422.253C251.977 419.643 255.049 411.189 254.402 398.251C253.975 389.701 241.281 368.605 228.597 349.734C228.597 349.734 217.206 344.882 207.503 339.222C197.799 333.562 185.366 324.435 185.366 324.435C194.295 340.342 205.239 358.563 210.737 367.523L217.206 381.14L225.292 369.141L226.101 383.955L235.804 375.61Z" fill="#01ABEA"/>
<path d="M224.484 431.404C223.729 430.58 222.591 429.56 221.249 428.369C217.209 433.079 212.541 438.585 207.503 444.603C207.503 444.603 205.077 450.002 207.503 459.706C209.929 469.409 212.956 471.026 212.956 471.026C217.555 465.401 222.039 460.162 226.101 455.582C228.413 452.975 230.588 450.582 232.57 448.452C230.746 443.254 228.91 438.72 227.164 435.447C226.24 433.718 225.342 432.341 224.484 431.404Z" fill="#01ABEA"/>
<path d="M159.794 603.639C161.088 631.456 151.708 644.34 146.857 647.305H201.842C200.225 640.836 197.476 625.149 199.417 614.151C201.842 600.405 207.503 602.022 203.46 589.084C199.417 576.147 171.694 572.103 171.694 542.993C171.694 535.981 175.374 526.596 181.072 516.309C181.072 516.309 158.379 535.716 150.9 548.654C143.42 561.591 143.42 569.678 143.42 569.678C150.697 577.157 158.986 586.254 159.794 603.639Z" fill="#01ABEA"/>
<path d="M207.503 444.603C178.595 479.136 137.517 530.545 133.11 545.419C129.998 555.922 135.682 561.747 142.599 568.835L143.098 569.347L143.42 569.678C143.42 569.678 143.42 561.591 150.9 548.654C158.379 535.716 181.072 516.309 181.072 516.309C189.202 501.631 201.439 485.115 212.956 471.026C212.956 471.026 209.929 469.409 207.503 459.706C205.077 450.002 207.503 444.603 207.503 444.603Z" fill="#66C3FF"/>
<path fill-rule="evenodd" clip-rule="evenodd" d="M283.513 302.834C278.338 308.656 266.262 311.19 260.872 311.729C261.68 312.538 263.782 315.772 265.723 322.241C266.472 324.737 266.373 327.464 266.236 330.327C266.236 330.327 273.001 334.37 281.087 340.03C281.906 340.604 282.717 341.141 283.513 341.642C290.573 346.092 296.451 347.776 296.451 347.776C298.916 347.051 301.555 346.924 304.537 348.117C316.666 352.968 319.092 368.332 311.006 376.418C310.107 377.317 309.088 378.126 307.967 378.844C307.967 378.844 301.302 398.251 291.599 416.04C281.895 433.83 271.383 451.577 271.383 451.577C272.059 454.262 272.357 456.981 272.192 459.706C270.898 481.053 253.863 492.32 245.508 495.285C245.508 495.285 240.663 499.048 233.981 504.988C227.333 510.899 218.867 518.967 211.546 527.63C209.524 530.022 207.595 532.462 205.799 534.907C205.221 535.716 209.12 534.907 228.527 534.907C253.11 534.907 272.192 527.63 313.432 495.285C354.671 462.94 370.035 413.615 371.14 389.356C372.246 365.098 351.237 338.413 338.499 323.348C328.308 311.295 323.471 284.165 322.326 272.107C319.739 272.107 317.475 264.56 316.666 260.786C315.89 256.905 314.592 250.751 313.166 244.614C311.621 237.964 309.925 231.333 308.58 227.633C306.068 220.726 303.069 213.331 298.068 209.993C296.629 209.032 295.023 208.407 293.216 208.226C290.269 207.931 288.441 209.975 287.35 212.796C286.266 215.596 285.908 219.163 285.902 221.972C285.9 222.548 285.914 223.091 285.939 223.59C286.1 226.469 286.263 229.715 286.415 233.208C286.416 233.236 286.417 233.265 286.418 233.293C286.589 237.228 286.746 241.475 286.873 245.863C286.969 249.164 287.047 252.546 287.102 255.934C287.15 258.91 287.18 261.891 287.186 264.829C287.193 267.858 287.175 270.841 287.127 273.724C287.06 277.739 286.936 281.56 286.741 285.045C286.493 289.458 286.13 293.33 285.624 296.365C285.091 299.567 284.398 301.838 283.513 302.834ZM300.494 284.236C306.151 288.929 307.378 292.064 305.345 298.791C299.396 293.744 298.384 290.519 300.494 284.236Z" fill="#1BE6E3"/>
<path d="M331.221 276.15C329.604 272.915 325.561 272.107 322.326 272.107C323.471 284.165 328.308 311.295 338.499 323.348C351.237 338.413 372.246 365.098 371.14 389.356C370.035 413.615 354.671 462.94 313.432 495.285C272.192 527.63 253.11 534.907 228.527 534.907C209.12 534.907 205.221 535.716 205.799 534.907C195.422 549.041 189.525 563.353 196.182 569.678C203.287 576.428 217.672 578.027 237.422 573.995C251.804 571.059 269.031 565.137 288.364 556.044C289.436 555.54 290.514 555.026 291.599 554.503C300.37 550.268 309.557 545.394 319.092 539.864C324.379 536.797 329.774 533.528 335.264 530.055C341.014 526.418 346.327 522.63 351.237 518.735C368.408 505.114 380.646 490.189 389.354 475.878C408.051 445.149 410.465 417.253 410.465 411.189C410.465 393.769 408.664 379.952 398.336 360.425C396.678 357.291 394.801 354.01 392.676 350.543C387.259 341.705 378.928 332.666 370.41 324.667C360.438 315.301 350.211 307.36 344.107 302.834C340.636 300.261 338.499 298.791 338.499 298.791V290.705C338.499 287.838 335.653 283.346 333.421 279.821C332.505 278.375 331.692 277.091 331.221 276.15Z" fill="#21C9BD"/>
<path d="M296.451 347.776C296.451 347.776 290.573 346.092 283.513 341.642V353.379C287.938 352.494 291.898 349.115 296.451 347.776Z" fill="#11857D"/>
<path d="M311.006 376.418C319.092 368.332 316.666 352.968 304.537 348.117C301.555 346.924 298.916 347.051 296.451 347.776C291.898 349.115 287.938 352.494 283.513 353.379C289.929 364.889 289.715 371.269 285.13 382.566C293.829 383.806 302.234 382.516 307.967 378.844C309.088 378.126 310.107 377.317 311.006 376.418Z" fill="#21C9BD"/>
<path d="M265.723 322.241C263.782 315.772 261.68 312.538 260.872 311.729C259.546 314.674 256.338 319.374 251.168 323.348C251.921 330.707 249.97 344.235 252.785 354.586C254.234 359.913 256.711 364.553 259.563 368.332C263.07 372.977 267.144 376.32 270.575 378.035C275.236 380.366 280.23 381.868 285.13 382.566C289.715 371.269 289.929 364.889 283.513 353.379C280.584 353.964 277.452 353.457 273.809 350.543C265.424 343.834 265.927 336.74 266.236 330.327C266.373 327.464 266.472 324.737 265.723 322.241Z" fill="#1BE6E3"/>
<path d="M300.494 284.236C306.151 288.929 307.378 292.064 305.345 298.791C299.396 293.744 298.384 290.519 300.494 284.236Z" fill="black"/>
<path fill-rule="evenodd" clip-rule="evenodd" d="M502.648 56.2061C502.648 64.0227 498.281 83.6991 480.815 99.8714C463.349 116.044 441.193 127.095 432.298 130.599C388.558 171.664 361.782 192.075 298.068 209.993C296.629 209.032 295.023 208.407 293.216 208.226C290.269 207.931 288.441 209.975 287.35 212.796L277.852 218.738L285.902 221.972L277.852 227.633L286.418 233.293L278.661 239.762L286.873 245.863L279.47 250.274L287.102 255.934L280.278 259.977C274.695 250.328 271.121 242.543 269.016 234.102C266.998 226.01 266.329 217.316 266.532 205.8C266.532 205.8 269.128 207.617 282.704 203.162C286.767 201.828 291.813 199.933 298.068 197.259C307.799 193.099 320.455 187.054 336.881 178.307C346.107 173.395 354.143 168.855 361.14 164.686C369.173 159.899 375.836 155.6 381.355 151.785C383.082 150.591 384.697 149.445 386.207 148.346C404.037 135.37 407.231 128.982 407.231 128.982C407.231 128.982 392.342 116.956 388.105 90.9766C387.308 86.0849 386.888 80.6984 387.016 74.8043C387.077 71.9987 387.152 69.3036 387.238 66.7181C388.294 35.0255 391.059 19.8184 391.059 19.8184C391.059 19.8184 393.485 38.4165 403.188 60.2492C412.891 82.0818 424.212 92.5938 424.212 92.5938C424.212 92.5938 437.959 99.8714 467.069 82.0818C496.179 64.2923 502.648 56.2061 502.648 56.2061Z" fill="#FFFEFC"/>
<path d="M277.852 218.738L285.902 221.972C285.908 219.163 286.266 215.596 287.35 212.796L277.852 218.738Z" fill="white"/>
<path d="M285.939 223.59C285.914 223.091 285.9 222.548 285.902 221.972L277.852 227.633L286.418 233.293C286.417 233.265 286.416 233.236 286.415 233.208C286.263 229.715 286.1 226.469 285.939 223.59Z" fill="white"/>
<path d="M286.418 233.293L278.661 239.762L286.873 245.863C286.746 241.475 286.589 237.228 286.418 233.293Z" fill="white"/>
<path d="M286.873 245.863L279.47 250.274L287.102 255.934C287.047 252.546 286.969 249.164 286.873 245.863Z" fill="white"/>
<path d="M287.102 255.934L280.278 259.977L287.186 264.829C287.18 261.891 287.15 258.91 287.102 255.934Z" fill="white"/>
<path d="M287.186 264.829L280.278 268.872L287.127 273.724C287.175 270.841 287.193 267.858 287.186 264.829Z" fill="white"/>
<path d="M287.127 273.724L279.47 279.384L286.741 285.045C286.936 281.56 287.06 277.739 287.127 273.724Z" fill="white"/>
<path d="M286.741 285.045L278.661 291.514L285.624 296.365C286.13 293.33 286.493 289.458 286.741 285.045Z" fill="white"/>
<path d="M226.101 383.955C224.652 383.264 223.029 382.612 221.249 382.079C219.82 381.65 218.466 381.347 217.206 381.14C211.339 380.174 207.503 381.27 207.503 381.27C207.378 382.396 207.213 383.642 207.035 384.981C206.065 392.293 204.725 402.401 207.503 411.189C209.69 418.107 216.391 424.056 220.962 428.114L221.249 428.369C222.591 429.56 223.729 430.58 224.484 431.404C225.342 432.341 226.24 433.718 227.164 435.447C239.973 447.751 248.086 446.898 263.651 436.256C259.848 431.137 255.154 426.389 250.359 422.253C243.986 416.755 237.437 412.339 232.57 409.572L234.187 389.356C234.187 389.356 231.236 386.405 226.101 383.955Z" fill="#1BE6E3"/>
<path d="M245.508 495.285C253.863 492.32 270.898 481.053 272.192 459.706C272.357 456.981 272.059 454.262 271.383 451.577C270.05 446.274 267.25 441.099 263.651 436.256C248.086 446.898 239.973 447.751 227.164 435.447C228.91 438.72 230.746 443.254 232.57 448.452C237.773 463.285 242.875 483.525 245.508 495.285Z" fill="#21C9BD"/>
<path d="M291.599 416.04C301.302 398.251 307.967 378.844 307.967 378.844C302.234 382.516 293.829 383.806 285.13 382.566L291.599 416.04Z" fill="#11857D"/>
<path d="M374.886 296.365C373.486 296.54 372.237 296.829 371.14 297.174C367.169 298.422 365.183 300.408 365.183 300.408C365.183 300.408 368.929 305.26 370.035 311.729C377.348 326.134 382.716 330.564 395.102 330.327C393.485 319.012 387.016 300.408 387.016 300.408C387.016 300.408 383.943 297.775 379.738 296.711C378.236 296.332 376.589 296.152 374.886 296.365Z" fill="#1BE6E3"/>
<path d="M335.264 530.055C329.774 533.528 324.379 536.797 319.092 539.864C319.092 539.864 318.699 541.968 318.119 545.419C318.119 545.419 335.264 555.122 336.881 558.357C336.881 558.357 343.35 556.815 349.011 554.503C354.671 552.19 362.757 545.105 362.757 545.105C362.757 545.105 361.14 536.524 358.714 530.864C356.288 525.204 351.237 518.735 351.237 518.735C346.327 522.63 341.014 526.418 335.264 530.055Z" fill="#21C9BD"/>
<path d="M353.054 576.931C352.605 574.76 352.552 572.438 353.054 569.678C354.893 559.564 358.487 551.465 362.757 545.105C362.757 545.105 354.671 552.19 349.011 554.503C343.35 556.815 336.881 558.357 336.881 558.357C338.499 561.591 339.686 604.448 339.686 604.448C339.886 604.04 340.094 603.615 340.309 603.177C345.047 593.495 353.054 576.931 353.054 576.931Z" fill="#1BE6E3"/>
<path d="M370.41 324.667C378.928 332.666 387.259 341.705 392.676 350.543C394.801 354.01 396.678 357.291 398.336 360.425C398.336 360.425 397.864 354.942 397.175 348.117C396.589 342.309 395.845 335.529 395.102 330.327C382.716 330.564 377.348 326.134 370.035 311.729C371.14 318.198 370.41 324.667 370.41 324.667Z" fill="#21C9BD"/>
<path d="M361.948 285.045L365.183 300.408C365.183 300.408 367.169 298.422 371.14 297.174L365.649 289.927L361.948 285.045Z" fill="white"/>
<path d="M371.14 297.174C372.237 296.829 373.486 296.54 374.886 296.365C376.589 296.152 378.236 296.332 379.738 296.711L374.078 282.619L371.14 297.174Z" fill="white"/>
<path d="M387.016 300.408L383.781 283.427L379.738 296.711C383.943 297.775 387.016 300.408 387.016 300.408Z" fill="white"/>
<path d="M210.737 367.523L207.503 381.27C207.503 381.27 211.339 380.174 217.206 381.14L210.737 367.523Z" fill="white"/>
<path d="M221.249 382.079C223.029 382.612 224.652 383.264 226.101 383.955L225.292 369.141L217.206 381.14C218.466 381.347 219.82 381.65 221.249 382.079Z" fill="white"/>
<path d="M234.187 389.356L235.804 375.61L226.101 383.955C231.236 386.405 234.187 389.356 234.187 389.356Z" fill="white"/>
<path d="M254.402 398.251C255.049 411.189 251.977 419.643 250.359 422.253C255.154 426.389 259.848 431.137 263.651 436.256C263.651 436.256 264.915 424.935 263.651 403.103C262.388 381.27 259.563 368.332 259.563 368.332C256.711 364.553 254.234 359.913 252.785 354.586C249.97 344.235 251.921 330.707 251.168 323.348C246.875 326.647 241.23 329.447 234.187 330.327C232.636 330.521 231.012 330.57 229.335 330.477L228.597 349.734C241.281 368.605 253.975 389.701 254.402 398.251Z" fill="#8286F4"/>
<path d="M245.508 495.285C242.875 483.525 237.773 463.285 232.57 448.452C230.588 450.582 228.413 452.975 226.101 455.582C226.101 455.582 226.91 460.514 228.527 479.921C230.144 499.328 233.981 504.988 233.981 504.988C240.663 499.048 245.508 495.285 245.508 495.285Z" fill="#4E59B1"/>
<path d="M288.364 556.044C269.031 565.137 251.804 571.059 237.422 573.995C237.961 577.947 237.422 587.305 230.953 593.127C222.866 600.405 211.546 609.3 207.503 618.195C204.268 625.31 202.382 640.566 201.842 647.305H226.101C226.101 647.305 230.953 631.132 244.699 609.3C258.446 587.467 276.235 579.883 276.235 579.883C282.859 565.428 288.364 556.044 288.364 556.044Z" fill="#4E59B1"/>
<path d="M287.556 647.305H320.709C320.709 647.305 320.034 643.589 319.092 637.932C317.119 626.083 313.979 605.716 313.432 593.127C312.822 579.112 316.346 555.972 318.119 545.419C318.699 541.968 319.092 539.864 319.092 539.864C309.557 545.394 300.37 550.268 291.599 554.503C289.443 570.073 284.806 603.801 283.513 614.151C282.219 624.502 285.669 640.566 287.556 647.305Z" fill="#01ABEA"/>
<path d="M365.992 608.491C363.403 598.136 359.989 591.811 357.269 586.772C356.474 585.3 355.739 583.937 355.1 582.615C354.176 580.704 353.456 578.878 353.054 576.931C353.054 576.931 345.047 593.495 340.309 603.177C340.094 603.615 339.886 604.04 339.686 604.448C338.867 606.119 338.177 607.516 337.69 608.491C334.456 614.96 319.092 637.932 319.092 637.932C320.034 643.589 320.709 647.305 320.709 647.305H362.354C361.977 644.576 362.973 641.577 364.191 637.912C366.429 631.174 369.415 622.185 365.992 608.491Z" fill="#01ABEA"/>
<path d="M410.465 647.305C402.918 633.019 390.088 595.877 399.145 561.591C403.633 544.602 412.441 527.231 421.187 509.983C434.504 483.722 447.676 457.745 445.236 433.83C443.083 412.729 439.095 402.636 435.837 394.391C432.978 387.154 430.681 381.341 430.681 370.758C430.681 348.117 436.341 331.136 446.853 311.729C451.135 303.824 457.027 296.858 462.725 290.121C471.016 280.318 478.898 271 480.815 259.977C482.888 248.059 474.002 231.823 466.713 218.506C462.628 211.042 459.045 204.496 458.174 200.14C457.419 196.364 458.544 193.763 460.6 191.728C451.434 197.561 448.221 202.087 446.163 213.078C451.988 225.334 457.689 239.016 455.748 250.274C451.91 272.537 425.477 309.377 415.892 322.736C415.381 323.448 414.918 324.094 414.509 324.667C412.04 328.123 409.38 331.768 406.862 335.179C414.802 357.82 429.064 410.057 422.595 437.873C416.126 465.69 394.559 488.816 384.584 496.902C383.698 500.64 382.84 504.126 382.164 506.605C379.738 515.5 371.557 534.907 371.557 534.907C377.047 529.951 382.508 527.133 386.207 526.012C378.66 533.829 364.86 553.505 370.035 569.678C376.504 589.893 391.867 600.405 394.293 610.108C395.582 615.262 394.361 618.591 393.054 622.155C391.9 625.301 390.68 628.63 391.059 633.558C391.706 641.968 393.485 646.227 394.293 647.305H410.465Z" fill="#82DAAB"/>
<path d="M398.336 360.425C408.664 379.952 410.465 393.769 410.465 411.189C410.465 417.253 408.051 445.149 389.354 475.878C389.354 475.878 386.876 487.234 384.584 496.902C394.559 488.816 416.126 465.69 422.595 437.873C429.064 410.057 414.802 357.82 406.862 335.179C402.784 340.705 399.081 345.617 397.175 348.117C397.864 354.942 398.336 360.425 398.336 360.425Z" fill="#01ABEA"/>
<path d="M477.581 179.924C481.462 173.455 480.276 160.518 479.198 154.857C477.581 161.596 472.406 175.234 464.643 175.881C462.339 176.073 459.852 176.037 457.324 176.001C449.205 175.883 440.657 175.76 436.341 183.159C433.791 187.531 438.299 196.827 443.653 207.868C444.477 209.567 445.321 211.308 446.163 213.078C448.221 202.087 451.434 197.561 460.6 191.728C462.55 189.797 465.338 188.375 468.149 186.941C471.89 185.033 475.673 183.104 477.581 179.924Z" fill="#27A68B"/>
<path d="M385.373 201.757C387.546 205.531 391.241 216.797 388.633 231.676C387.144 240.169 377.329 256.443 366.619 272.107C366.619 272.107 367.609 276.15 367.609 281.001C367.609 285.853 365.649 289.927 365.649 289.927L371.14 297.174L374.078 282.619L379.738 296.711L383.781 283.427C391.598 273.454 407.393 249.142 408.04 231.676C408.687 214.21 406.153 196.625 404.805 190.016C403.434 189.725 402.219 189.423 401.192 189.146C398.87 188.518 397.515 188.011 397.515 188.011C396.723 188.987 395.918 189.962 395.102 190.934C392.026 194.597 388.782 198.224 385.373 201.757Z" fill="#27A68B"/>
<path d="M404.805 190.016C407.114 190.507 409.863 190.97 412.891 191.245C414.794 191.418 416.696 191.628 418.503 191.827C425.147 192.561 430.508 193.152 429.872 191.245C429.511 190.161 426.728 189.077 423.759 187.921C420.084 186.49 416.126 184.948 416.126 183.159C416.126 181.596 419.526 179.654 422.948 177.701C426.607 175.612 430.29 173.509 429.872 171.838C429.315 169.609 419.153 171.494 412.891 172.881C409.353 179.971 406.78 183.525 401.192 189.146C402.219 189.423 403.434 189.725 404.805 190.016Z" fill="#FFFEFC"/>
<path d="M361.14 164.686C369.173 159.899 375.836 155.6 381.355 151.785C381.355 151.785 376.504 149.197 375.695 145.963C374.886 142.728 378.121 137.068 376.504 136.259C375.029 135.522 370.189 138.821 365.668 146.771C365.233 147.536 364.8 148.345 364.374 149.197C359.523 158.9 361.14 164.686 361.14 164.686Z" fill="#FFFEFC"/>
<path d="M375.695 145.963C376.504 149.197 381.355 151.785 381.355 151.785C383.082 150.591 384.697 149.445 386.207 148.346C381.355 137.579 371.975 114.265 373.269 107.149C374.563 100.033 383.699 93.4025 388.105 90.9766C387.308 86.0849 386.888 80.6984 387.016 74.8043C387.077 71.9987 387.152 69.3036 387.238 66.7181L378.929 53.7803C380.816 58.632 383.943 70.5995 381.355 79.656C379.87 84.8552 376.338 87.496 372.56 90.32C368.113 93.645 363.326 97.224 361.14 105.532C357.905 117.823 362.811 138.146 365.668 146.771C370.189 138.821 375.029 135.522 376.504 136.259C378.121 137.068 374.886 142.728 375.695 145.963Z" fill="#82DAAB"/>
<path d="M313.432 117.661C313.432 117.661 298.876 133.025 289.982 158.092C286.343 168.347 284.463 177.754 283.513 185.291C289.067 181.105 292.606 179.805 299.619 179.116C300.353 172.94 301.411 165.839 302.92 158.9C306.963 140.302 313.432 117.661 313.432 117.661Z" fill="#82DAAB"/>
<path d="M282.704 203.162C286.767 201.828 291.813 199.933 298.068 197.259C298.068 197.259 298.386 189.493 299.619 179.116C292.606 179.805 289.067 181.105 283.513 185.291C282.139 196.177 282.704 203.162 282.704 203.162Z" fill="#27A68B"/>
<path d="M254.402 647.305C254.402 647.305 257.637 627.089 267.34 601.214C270.277 593.383 273.361 586.156 276.235 579.883C276.235 579.883 258.446 587.467 244.699 609.3C230.953 631.132 226.101 647.305 226.101 647.305H254.402Z" fill="#8286F4"/>
<path d="M313.432 593.127C313.979 605.716 317.119 626.083 319.092 637.932C319.092 637.932 334.456 614.96 337.69 608.491C338.177 607.516 338.867 606.119 339.686 604.448C339.686 604.448 338.499 561.591 336.881 558.357C335.264 555.122 318.119 545.419 318.119 545.419C316.346 555.972 312.822 579.112 313.432 593.127Z" fill="#8286F4"/>
<path d="M394.293 610.108C391.867 600.405 376.504 589.893 370.035 569.678C364.86 553.505 378.66 533.829 386.207 526.012C382.508 527.133 377.047 529.951 371.557 534.907C368.536 537.634 365.507 541.009 362.757 545.105C358.487 551.465 354.893 559.564 353.054 569.678C352.552 572.438 352.605 574.76 353.054 576.931C353.456 578.878 354.176 580.704 355.1 582.615C369.424 603.526 377.975 609.81 394.293 610.108Z" fill="#8286F4"/>
<path d="M394.293 647.305C393.485 646.227 391.706 641.968 391.059 633.558C390.68 628.63 391.9 625.301 393.054 622.155C394.361 618.591 395.582 615.262 394.293 610.108C377.975 609.81 369.424 603.526 355.1 582.615C355.739 583.937 356.474 585.3 357.269 586.772C359.989 591.811 363.403 598.136 365.992 608.491C369.415 622.185 366.429 631.174 364.191 637.912C362.973 641.577 361.977 644.576 362.354 647.305H394.293Z" fill="#4E59B1"/>
<path d="M408.04 174.03C404.812 178.647 401.301 183.346 397.515 188.011C397.515 188.011 398.87 188.518 401.192 189.146C406.78 183.525 409.353 179.971 412.891 172.881C410.069 173.506 408.04 174.03 408.04 174.03Z" fill="#ECEEF2"/>
<ellipse cx="209.929" cy="282.618" rx="4.04308" ry="5.66032" fill="black"/>
<g opacity="0.5">
<circle cx="296.451" cy="309.303" r="3.23447" fill="#21C9BD"/>
<circle cx="308.58" cy="321.433" r="2.42585" fill="#21C9BD"/>
<circle cx="299.685" cy="330.326" r="1.61723" fill="#21C9BD"/>
<circle cx="311.006" cy="330.327" r="3.23447" fill="#21C9BD"/>
<circle cx="325.561" cy="343.265" r="3.23447" fill="#21C9BD"/>
<circle cx="353.054" cy="365.906" r="3.23447" fill="#21C9BD"/>
<circle cx="324.752" cy="368.331" r="2.42585" fill="#21C9BD"/>
<circle cx="334.456" cy="376.418" r="2.42585" fill="#21C9BD"/>
<circle cx="327.178" cy="395.016" r="3.23447" fill="#21C9BD"/>
<circle cx="354.671" cy="401.485" r="1.61723" fill="#21C9BD"/>
<circle cx="300.494" cy="413.614" r="2.42585" fill="#21C9BD"/>
<circle cx="286.747" cy="506.606" r="3.23447" fill="#21C9BD"/>
<circle cx="270.575" cy="513.074" r="1.61723" fill="#21C9BD"/>
<circle cx="239.847" cy="519.544" r="1.61723" fill="#21C9BD"/>
</g>
</g>
</g>
<path d="M-480.396 574.379C-534.572 536.783 -548.503 462.644 -511.671 407.946L-234.418 -3.78978C-197.217 -59.035 -122.275 -73.6627 -67.0295 -36.4619L433.766 300.762C474.605 328.262 494.626 377.827 484.344 425.977L370.065 961.128C352.077 1045.36 254.135 1084.12 183.373 1035.02L-480.396 574.379Z" fill="url(#paint0_linear_446_5947)"/>
<mask id="mask0_446_5947" style="mask-type:alpha" maskUnits="userSpaceOnUse" x="-601" y="-58" width="1085" height="1223">
<path d="M-548.391 674.859C-602.39 637.2 -616.209 563.193 -579.437 508.585L-234.417 -3.78785C-197.216 -59.033 -122.274 -73.6608 -67.029 -36.46L430.073 298.277C472.737 327.006 492.484 379.632 479.25 429.335L307.482 1074.48C285.951 1155.35 190.607 1190.24 121.963 1142.36L-548.391 674.859Z" fill="url(#paint1_linear_446_5947)"/>
</mask>
<g mask="url(#mask0_446_5947)">
<path opacity="0.1" d="M-7.99988 110H155C150.86 106.16 141.65 98.6345 137.924 99.2489C134.198 99.8632 128.61 102.577 126.281 103.857C125.505 100.273 122.09 92.4908 114.638 90.0335C107.187 87.5762 96.0096 90.0335 91.3525 91.5694C88.5065 84.9137 78.4677 71.2953 61.0811 70.0666C43.6944 68.8379 31.5858 84.9136 27.7049 93.1051C25.8938 91.3132 20.2535 87.883 12.1811 88.4974C4.1087 89.1117 -4.63638 103.088 -7.99988 110Z" fill="white"/>
<path opacity="0.4" d="M291 207H65.0001C70.7398 201.816 83.5106 191.657 88.6763 192.486C93.842 193.315 101.591 196.978 104.819 198.706C105.895 193.868 110.631 183.363 120.962 180.045C131.293 176.728 146.791 180.045 153.248 182.119C157.194 173.134 171.113 154.749 195.219 153.09C219.326 151.431 236.114 173.133 241.495 184.192C244.006 181.773 251.827 177.142 263.019 177.971C274.212 178.801 286.337 197.669 291 207Z" fill="white"/>
<path opacity="0.2" d="M513 299H287C292.74 293.816 305.511 283.657 310.676 284.486C315.842 285.315 323.591 288.978 326.819 290.706C327.895 285.868 332.631 275.363 342.962 272.045C353.293 268.728 368.791 272.045 375.248 274.119C379.194 265.134 393.112 246.749 417.219 245.09C441.326 243.431 458.114 265.133 463.495 276.192C466.006 273.773 473.827 269.142 485.019 269.971C496.212 270.801 508.337 289.669 513 299Z" fill="white"/>
<path opacity="0.1" d="M392 58H238C241.911 54.3523 250.613 47.2028 254.133 47.7864C257.653 48.3701 262.933 50.9478 265.133 52.1637C265.867 48.7591 269.093 41.3662 276.133 39.0318C283.173 36.6974 293.733 39.0318 298.133 40.4909C300.822 34.1681 310.307 21.2306 326.733 20.0633C343.16 18.896 354.6 34.1679 358.267 41.9498C359.978 40.2475 365.307 36.9889 372.933 37.5725C380.56 38.1562 388.822 51.434 392 58Z" fill="white"/>
<path opacity="0.3" d="M110 329H-43.9999C-40.0888 325.352 -31.3865 318.203 -27.8665 318.786C-24.3465 319.37 -19.0665 321.948 -16.8665 323.164C-16.1332 319.759 -12.9065 312.366 -5.86654 310.032C1.17346 307.697 11.7335 310.032 16.1335 311.491C18.8223 305.168 28.3068 292.231 44.7335 291.063C61.1601 289.896 72.6001 305.168 76.2668 312.95C77.9779 311.248 83.3068 307.989 90.9335 308.573C98.5601 309.156 106.822 322.434 110 329Z" fill="white"/>
<path opacity="0.25" d="M-30.1639 627.265C-42.1077 637.563 -58.3645 645.418 -64.9999 648.059L557.07 654L572 585.676C563.374 575.114 534.775 554.188 489.389 554.98C432.656 555.971 420.713 593.598 365.97 596.569C311.228 599.539 296.299 566.863 274.402 558.941C252.505 551.02 205.725 551.02 171.885 558.941C138.044 566.863 138.044 584.686 101.217 593.598C64.3907 602.51 41.4986 591.618 17.6111 596.569C-6.27644 601.52 -15.2343 614.392 -30.1639 627.265Z" fill="white"/>
<rect width="50.9018" height="154.387" transform="matrix(-1 0 0 1 44.2236 506.752)" fill="#C5AFE7"/>
<rect width="36.3584" height="5.93794" transform="matrix(-1 0 0 1 36.9521 500.813)" fill="#C5AFE7"/>
<rect width="25.6933" height="5.93794" transform="matrix(-1 0 0 1 31.6194 494.876)" fill="#C5AFE7"/>
<rect width="16.9673" height="5.93794" transform="matrix(-1 0 0 1 27.2563 488.938)" fill="#C5AFE7"/>
<rect width="9.2108" height="5.93794" transform="matrix(-1 0 0 1 23.3782 483)" fill="#C5AFE7"/>
<rect width="5.81735" height="10.6883" rx="2.90867" transform="matrix(-1 0 0 1 6.41077 516.253)" fill="#ECE7FF"/>
<rect width="5.81735" height="10.6883" rx="2.90867" transform="matrix(-1 0 0 1 37.9215 535.254)" fill="#ECE7FF"/>
<rect width="5.81735" height="10.6883" rx="2.90867" transform="matrix(-1 0 0 1 32.1042 563.162)" fill="#ECE7FF"/>
<rect width="5.81735" height="10.6883" rx="2.90867" transform="matrix(-1 0 0 1 6.41077 552.474)" fill="#ECE7FF"/>
<rect width="5.81735" height="10.6883" rx="2.90867" transform="matrix(-1 0 0 1 6.41077 614.822)" fill="#ECE7FF"/>
<rect width="5.81735" height="10.6883" rx="2.90867" transform="matrix(-1 0 0 1 37.9215 593.445)" fill="#ECE7FF"/>
<path d="M103.287 528.787L157.607 514.479V664H103.287V528.787Z" fill="#C5AFE7"/>
<rect x="143.639" y="537.107" width="6.20806" height="9.36093" rx="3.10403" fill="#ECE7FF"/>
<rect x="110.012" y="553.749" width="6.20806" height="9.36093" rx="3.10403" fill="#ECE7FF"/>
<rect x="116.22" y="578.191" width="6.20806" height="9.36093" rx="3.10403" fill="#ECE7FF"/>
<rect x="143.639" y="568.831" width="6.20806" height="9.36093" rx="3.10403" fill="#ECE7FF"/>
<rect x="143.639" y="623.437" width="6.20806" height="9.36093" rx="3.10403" fill="#ECE7FF"/>
<rect x="110.012" y="604.715" width="6.20806" height="9.36093" rx="3.10403" fill="#ECE7FF"/>
<path d="M316.666 260.786C326.639 253.778 353.539 232.97 381.356 205.8C382.719 204.468 384.058 203.12 385.373 201.757C388.782 198.224 392.027 194.597 395.102 190.934C395.102 190.934 378.121 204.183 355.48 218.738C332.839 233.293 313.166 244.614 313.166 244.614C314.592 250.751 315.89 256.905 316.666 260.786Z" fill="#C1D3DC"/>
<path d="M408.04 174.03C420.634 156.015 428.908 139.245 432.298 130.599C388.558 171.664 361.783 192.075 298.068 209.993C303.069 213.331 306.068 220.726 308.58 227.633C309.926 231.333 311.621 237.964 313.166 244.614C313.166 244.614 332.839 233.293 355.48 218.738C378.121 204.183 395.102 190.934 395.102 190.934C395.918 189.962 396.723 188.987 397.515 188.011C401.301 183.346 404.812 178.647 408.04 174.03Z" fill="#ECEEF2"/>
<path d="M243.082 206.609C243.082 206.609 242.824 214.28 242.6 221.432C242.427 226.943 242.274 232.145 242.274 233.293C242.274 235.932 242.388 238.686 242.568 241.379C254.263 243.408 260.151 242.168 269.016 234.102C266.998 226.01 266.329 217.316 266.532 205.8C266.532 199.331 266.532 190.436 270.575 178.307C271.984 174.08 273.331 170.694 274.474 167.817C276.612 162.44 278.043 158.843 277.853 154.857C277.206 141.273 248.473 120.087 234.187 111.192C235.297 116.371 240.13 123.411 245.125 130.687C251.048 139.316 257.199 148.277 257.637 154.857C258.446 166.987 249.551 193.401 243.082 206.609Z" fill="#82DAAB"/>
<path d="M165.455 314.963L171.695 297.982C169.718 293.551 168.034 289.269 166.667 285.045H162.22C159.795 285.045 157.369 285.853 157.369 285.853C157.369 285.853 150.631 287.327 141.452 290.705C144.621 300.306 144.198 305.589 138.771 314.746C153.999 312.842 165.455 314.963 165.455 314.963Z" fill="#ECEEF2"/>
<path d="M112.086 306.069C92.6795 320.624 74.8899 338.413 74.8899 338.413C74.8899 338.413 96.7225 327.093 120.172 319.006C126.636 316.778 132.976 315.47 138.771 314.746C144.198 305.589 144.621 300.306 141.452 290.705C132.645 293.946 121.59 298.941 112.086 306.069Z" fill="white"/>
<path fill-rule="evenodd" clip-rule="evenodd" d="M213.972 293.939C232.57 300.274 263.298 300.408 263.298 300.408C263.241 300.182 263.503 299.389 263.9 298.189C265.671 292.832 270.12 279.373 260.872 272.107C256.938 269.016 251.05 265.069 244.499 260.995C234.311 254.66 222.518 248.016 213.972 243.805C213.972 243.805 219.632 242.188 230.144 234.102C235.371 230.168 238.17 227.592 242.6 221.432C242.824 214.28 243.082 206.609 243.082 206.609C241.195 206.339 235.805 205.962 229.336 206.609C222.867 207.256 217.476 208.496 215.589 209.035L213.163 190.436C211.87 176.205 214.781 169.412 216.398 167.795C213.972 168.604 207.341 172.162 200.226 179.924C193.11 187.687 194.565 205.8 196.182 213.886C194.749 215.266 193.072 217.219 191.331 219.703C184.542 229.389 176.795 247.148 178.856 270.489C178.856 270.489 195.374 287.605 213.972 293.939Z" fill="#FFFEFC"/>
<path d="M230.144 234.102C219.632 242.188 213.972 243.805 213.972 243.805C222.518 248.016 234.311 254.66 244.499 260.995L242.568 241.379C242.388 238.686 242.274 235.932 242.274 233.293C242.274 232.145 242.427 226.943 242.6 221.432C238.17 227.592 235.371 230.168 230.144 234.102Z" fill="#ECEEF2"/>
<path d="M260.872 311.729C266.263 311.19 278.338 308.656 283.513 302.834C284.398 301.838 285.091 299.567 285.624 296.365L278.661 291.514L286.741 285.045L279.47 279.384L287.127 273.724L280.278 268.872L287.186 264.829L280.278 259.977C274.695 250.328 271.121 242.543 269.016 234.102C260.151 242.168 254.263 243.408 242.568 241.379L244.499 260.995C251.05 265.069 256.938 269.016 260.872 272.107C270.12 279.373 265.671 292.832 263.9 298.189C263.503 299.389 263.241 300.182 263.298 300.408C263.945 302.996 261.95 309.034 260.872 311.729Z" fill="#27A68B"/>
<path fill-rule="evenodd" clip-rule="evenodd" d="M260.872 311.729C261.95 309.034 263.945 302.996 263.298 300.408C263.298 300.408 232.57 300.274 213.972 293.939C195.374 287.605 178.856 270.489 178.856 270.489C178.951 271.556 179.065 272.634 179.202 273.724C182.319 298.664 196.121 315.926 210.738 324.435C217.05 328.11 223.514 330.153 229.336 330.477C231.013 330.57 232.636 330.521 234.187 330.327C241.23 329.447 246.876 326.647 251.168 323.348C256.338 319.374 259.546 314.674 260.872 311.729ZM234.996 319.006C218.824 318.198 208.312 299.6 208.312 299.6L216.398 300.274L230.953 301.486L244.699 302.632L256.829 303.643C256.829 303.643 254.975 308.938 250.36 313.317C246.909 316.591 241.914 319.352 234.996 319.006Z" fill="#ECEEF2"/>
<path d="M256.829 303.643L244.699 302.632L250.36 313.317C254.975 308.938 256.829 303.643 256.829 303.643Z" fill="#FFFEFC"/>
<path d="M230.953 301.486L235.805 311.729L244.699 302.632L230.953 301.486Z" fill="#FFFEFC"/>
<path d="M216.398 300.274L222.058 309.303L230.953 301.486L216.398 300.274Z" fill="#FFFEFC"/>
<path d="M208.312 299.6C208.312 299.6 218.824 318.198 234.996 319.006C241.914 319.352 246.909 316.591 250.36 313.317L244.699 302.632L235.805 311.729L230.953 301.486L222.058 309.303L216.398 300.274L208.312 299.6Z" fill="#C1D3DC"/>
<path d="M163.029 250.274C163.093 249.718 163.166 249.179 163.245 248.657C163.245 248.657 158.177 255.934 157.369 267.255C156.56 278.576 157.369 285.853 157.369 285.853C157.369 285.853 159.795 285.045 162.22 285.045H166.667C162.978 273.645 161.6 262.661 163.029 250.274Z" fill="#FFFEFC"/>
<path d="M191.331 219.703C191.331 219.703 191.331 211.46 185.67 200.14C180.01 188.819 169.498 190.436 169.498 190.436L169.585 190.558C172.274 194.321 175.984 199.513 177.584 216.312C178.395 224.829 175.342 228.057 171.79 231.812C168.447 235.345 164.664 239.345 163.245 248.657C163.166 249.179 163.093 249.718 163.029 250.274C161.6 262.661 162.978 273.645 166.667 285.045C168.034 289.269 169.718 293.551 171.695 297.982C173.437 301.888 175.406 305.91 177.584 310.112C179.799 314.382 182.477 319.288 185.366 324.435C185.366 324.435 197.8 333.562 207.503 339.222C217.206 344.882 228.598 349.734 228.598 349.734C222.089 340.05 215.582 330.952 210.738 324.435C196.121 315.926 182.319 298.664 179.202 273.724C179.065 272.634 178.951 271.556 178.856 270.489C176.795 247.148 184.542 229.389 191.331 219.703Z" fill="#82DAAB"/>
<path d="M235.805 375.61L234.187 389.356L232.57 409.572C237.437 412.339 243.987 416.755 250.36 422.253C251.977 419.643 255.05 411.189 254.403 398.251C253.975 389.701 241.281 368.605 228.598 349.734C228.598 349.734 217.206 344.882 207.503 339.222C197.8 333.562 185.366 324.435 185.366 324.435C194.295 340.342 205.239 358.563 210.738 367.523L217.206 381.14L225.293 369.141L226.101 383.955L235.805 375.61Z" fill="#27A68B"/>
<path d="M224.484 431.404C223.729 430.58 222.591 429.56 221.25 428.369C217.209 433.079 212.541 438.585 207.503 444.603C207.503 444.603 205.077 450.002 207.503 459.706C209.929 469.409 212.956 471.026 212.956 471.026C217.555 465.401 222.039 460.162 226.101 455.582C228.413 452.975 230.588 450.582 232.57 448.452C230.747 443.254 228.911 438.72 227.164 435.447C226.241 433.718 225.342 432.341 224.484 431.404Z" fill="#27A68B"/>
<path d="M159.795 603.639C161.088 631.456 151.708 644.34 146.857 647.305H201.843C200.225 640.836 197.476 625.149 199.417 614.151C201.843 600.405 207.503 602.022 203.46 589.084C199.417 576.147 171.695 572.103 171.695 542.993C171.695 535.981 175.375 526.596 181.072 516.309C181.072 516.309 158.38 535.716 150.9 548.654C143.42 561.591 143.42 569.678 143.42 569.678C150.698 577.157 158.986 586.254 159.795 603.639Z" fill="#27A68B"/>
<path d="M207.503 444.603C178.595 479.136 137.517 530.545 133.11 545.419C129.998 555.922 135.682 561.747 142.599 568.835L143.098 569.347L143.42 569.678C143.42 569.678 143.42 561.591 150.9 548.654C158.38 535.716 181.072 516.309 181.072 516.309C189.202 501.631 201.439 485.115 212.956 471.026C212.956 471.026 209.929 469.409 207.503 459.706C205.077 450.002 207.503 444.603 207.503 444.603Z" fill="#82DAAB"/>
<path fill-rule="evenodd" clip-rule="evenodd" d="M283.513 302.834C278.338 308.656 266.263 311.19 260.872 311.729C261.68 312.538 263.783 315.772 265.723 322.241C266.472 324.737 266.373 327.464 266.236 330.327C266.236 330.327 273.001 334.37 281.087 340.03C281.906 340.604 282.717 341.141 283.513 341.642C290.573 346.092 296.451 347.776 296.451 347.776C298.916 347.051 301.556 346.924 304.537 348.117C316.666 352.968 319.092 368.332 311.006 376.418C310.107 377.317 309.088 378.126 307.967 378.844C307.967 378.844 301.303 398.251 291.599 416.04C281.896 433.83 271.384 451.577 271.384 451.577C272.059 454.262 272.357 456.981 272.192 459.706C270.899 481.053 253.864 492.32 245.508 495.285C245.508 495.285 240.663 499.048 233.982 504.988C227.333 510.899 218.867 518.967 211.546 527.63C209.524 530.022 207.595 532.462 205.799 534.907C205.221 535.716 209.12 534.907 228.527 534.907C253.11 534.907 272.192 527.63 313.432 495.285C354.671 462.94 370.035 413.615 371.141 389.356C372.246 365.098 351.238 338.413 338.499 323.348C328.308 311.295 323.471 284.165 322.327 272.107C319.739 272.107 317.475 264.56 316.666 260.786C315.89 256.905 314.592 250.751 313.166 244.614C311.621 237.964 309.926 231.333 308.58 227.633C306.068 220.726 303.069 213.331 298.068 209.993C296.629 209.032 295.024 208.407 293.216 208.226C290.27 207.931 288.441 209.975 287.35 212.796C286.267 215.596 285.908 219.163 285.902 221.972C285.901 222.548 285.914 223.091 285.939 223.59C286.101 226.469 286.263 229.715 286.415 233.208C286.416 233.236 286.417 233.265 286.419 233.293C286.589 237.228 286.746 241.475 286.873 245.863C286.969 249.164 287.048 252.546 287.102 255.934C287.15 258.91 287.18 261.891 287.186 264.829C287.193 267.858 287.175 270.841 287.127 273.724C287.061 277.739 286.937 281.56 286.741 285.045C286.493 289.458 286.13 293.33 285.624 296.365C285.091 299.567 284.398 301.838 283.513 302.834ZM300.494 284.236C306.151 288.929 307.378 292.064 305.346 298.791C299.396 293.744 298.384 290.519 300.494 284.236Z" fill="#62EBE9"/>
<path d="M331.221 276.15C329.604 272.915 325.561 272.107 322.327 272.107C323.471 284.165 328.308 311.295 338.499 323.348C351.238 338.413 372.246 365.098 371.141 389.356C370.035 413.615 354.671 462.94 313.432 495.285C272.192 527.63 253.11 534.907 228.527 534.907C209.12 534.907 205.221 535.716 205.799 534.907C195.422 549.041 189.525 563.353 196.182 569.678C203.288 576.428 217.672 578.027 237.422 573.995C251.804 571.059 269.031 565.137 288.365 556.044C289.436 555.54 290.515 555.026 291.599 554.503C300.37 550.268 309.557 545.394 319.092 539.864C324.379 536.797 329.774 533.528 335.264 530.055C341.014 526.418 346.327 522.63 351.238 518.735C368.408 505.114 380.646 490.189 389.354 475.878C408.051 445.149 410.466 417.253 410.466 411.189C410.466 393.769 408.664 379.952 398.336 360.425C396.679 357.291 394.801 354.01 392.676 350.543C387.26 341.705 378.928 332.666 370.411 324.667C360.438 315.301 350.211 307.36 344.107 302.834C340.637 300.261 338.499 298.791 338.499 298.791V290.705C338.499 287.838 335.653 283.346 333.421 279.821C332.505 278.375 331.692 277.091 331.221 276.15Z" fill="#2BCBC0"/>
<path d="M296.451 347.776C296.451 347.776 290.573 346.092 283.513 341.642V353.379C287.938 352.494 291.898 349.115 296.451 347.776Z" fill="#21B8AE"/>
<path d="M311.006 376.418C319.092 368.332 316.666 352.968 304.537 348.117C301.556 346.924 298.916 347.051 296.451 347.776C291.898 349.115 287.938 352.494 283.513 353.379C289.929 364.889 289.715 371.269 285.13 382.566C293.829 383.806 302.234 382.516 307.967 378.844C309.088 378.126 310.107 377.317 311.006 376.418Z" fill="#2BCBC0"/>
<path d="M265.723 322.241C263.783 315.772 261.68 312.538 260.872 311.729C259.546 314.674 256.338 319.374 251.168 323.348C251.921 330.707 249.97 344.235 252.786 354.586C254.234 359.913 256.711 364.553 259.563 368.332C263.07 372.977 267.144 376.32 270.575 378.035C275.237 380.366 280.23 381.868 285.13 382.566C289.715 371.269 289.929 364.889 283.513 353.379C280.585 353.964 277.452 353.457 273.81 350.543C265.424 343.834 265.928 336.74 266.236 330.327C266.373 327.464 266.472 324.737 265.723 322.241Z" fill="#62EBE9"/>
<path d="M300.494 284.236C306.151 288.929 307.378 292.064 305.346 298.791C299.396 293.744 298.384 290.519 300.494 284.236Z" fill="black"/>
<path fill-rule="evenodd" clip-rule="evenodd" d="M502.648 56.2061C502.648 64.0227 498.282 83.6991 480.815 99.8714C463.349 116.044 441.193 127.095 432.298 130.599C388.558 171.664 361.783 192.075 298.068 209.993C296.629 209.032 295.024 208.407 293.216 208.226C290.27 207.931 288.441 209.975 287.35 212.796L277.853 218.738L285.902 221.972L277.853 227.633L286.419 233.293L278.661 239.762L286.873 245.863L279.47 250.274L287.102 255.934L280.278 259.977C274.695 250.328 271.121 242.543 269.016 234.102C266.998 226.01 266.329 217.316 266.532 205.8C266.532 205.8 269.128 207.617 282.704 203.162C286.767 201.828 291.814 199.933 298.068 197.259C307.799 193.099 320.455 187.054 336.882 178.307C346.107 173.395 354.144 168.855 361.14 164.686C369.173 159.899 375.836 155.6 381.356 151.785C383.082 150.591 384.697 149.445 386.207 148.346C404.037 135.37 407.231 128.982 407.231 128.982C407.231 128.982 392.342 116.956 388.106 90.9766C387.308 86.0849 386.888 80.6984 387.016 74.8043C387.077 71.9987 387.152 69.3036 387.238 66.7181C388.294 35.0255 391.059 19.8184 391.059 19.8184C391.059 19.8184 393.485 38.4165 403.188 60.2492C412.892 82.0818 424.212 92.5938 424.212 92.5938C424.212 92.5938 437.959 99.8714 467.069 82.0818C496.179 64.2923 502.648 56.2061 502.648 56.2061Z" fill="#FFFEFC"/>
<path d="M277.853 218.738L285.902 221.972C285.908 219.163 286.267 215.596 287.35 212.796L277.853 218.738Z" fill="white"/>
<path d="M285.939 223.59C285.914 223.091 285.901 222.548 285.902 221.972L277.853 227.633L286.419 233.293C286.417 233.265 286.416 233.236 286.415 233.208C286.263 229.715 286.101 226.469 285.939 223.59Z" fill="white"/>
<path d="M286.419 233.293L278.661 239.762L286.873 245.863C286.746 241.475 286.589 237.228 286.419 233.293Z" fill="white"/>
<path d="M286.873 245.863L279.47 250.274L287.102 255.934C287.048 252.546 286.969 249.164 286.873 245.863Z" fill="white"/>
<path d="M287.102 255.934L280.278 259.977L287.186 264.829C287.18 261.891 287.15 258.91 287.102 255.934Z" fill="white"/>
<path d="M287.186 264.829L280.278 268.872L287.127 273.724C287.175 270.841 287.193 267.858 287.186 264.829Z" fill="white"/>
<path d="M287.127 273.724L279.47 279.384L286.741 285.045C286.937 281.56 287.061 277.739 287.127 273.724Z" fill="white"/>
<path d="M286.741 285.045L278.661 291.514L285.624 296.365C286.13 293.33 286.493 289.458 286.741 285.045Z" fill="white"/>
<path d="M226.101 383.955C224.652 383.264 223.029 382.612 221.25 382.079C219.82 381.65 218.466 381.347 217.206 381.14C211.339 380.174 207.503 381.27 207.503 381.27C207.378 382.396 207.213 383.642 207.035 384.981C206.065 392.293 204.725 402.401 207.503 411.189C209.69 418.107 216.392 424.056 220.963 428.114L221.25 428.369C222.591 429.56 223.729 430.58 224.484 431.404C225.342 432.341 226.241 433.718 227.164 435.447C239.974 447.751 248.087 446.898 263.651 436.256C259.848 431.137 255.154 426.389 250.36 422.253C243.987 416.755 237.437 412.339 232.57 409.572L234.187 389.356C234.187 389.356 231.236 386.405 226.101 383.955Z" fill="#62EBE9"/>
<path d="M245.508 495.285C253.864 492.32 270.899 481.053 272.192 459.706C272.357 456.981 272.059 454.262 271.384 451.577C270.051 446.274 267.25 441.099 263.651 436.256C248.087 446.898 239.974 447.751 227.164 435.447C228.911 438.72 230.747 443.254 232.57 448.452C237.774 463.285 242.875 483.525 245.508 495.285Z" fill="#2BCBC0"/>
<path d="M291.599 416.04C301.303 398.251 307.967 378.844 307.967 378.844C302.234 382.516 293.829 383.806 285.13 382.566L291.599 416.04Z" fill="#21B8AE"/>
<path d="M374.887 296.365C373.486 296.54 372.238 296.829 371.141 297.174C367.169 298.422 365.183 300.408 365.183 300.408C365.183 300.408 368.929 305.26 370.035 311.729C377.348 326.134 382.716 330.564 395.102 330.327C393.485 319.012 387.016 300.408 387.016 300.408C387.016 300.408 383.943 297.775 379.738 296.711C378.236 296.332 376.589 296.152 374.887 296.365Z" fill="#62EBE9"/>
<path d="M335.264 530.055C329.774 533.528 324.379 536.797 319.092 539.864C319.092 539.864 318.699 541.968 318.119 545.419C318.119 545.419 335.264 555.122 336.882 558.357C336.882 558.357 343.351 556.815 349.011 554.503C354.671 552.19 362.757 545.105 362.757 545.105C362.757 545.105 361.14 536.524 358.714 530.864C356.288 525.204 351.238 518.735 351.238 518.735C346.327 522.63 341.014 526.418 335.264 530.055Z" fill="#21C9BD"/>
<path d="M353.054 576.931C352.605 574.76 352.552 572.438 353.054 569.678C354.893 559.564 358.488 551.465 362.757 545.105C362.757 545.105 354.671 552.19 349.011 554.503C343.351 556.815 336.882 558.357 336.882 558.357C338.499 561.591 339.686 604.448 339.686 604.448C339.886 604.04 340.094 603.615 340.309 603.177C345.047 593.495 353.054 576.931 353.054 576.931Z" fill="#1BE6E3"/>
<path d="M370.411 324.667C378.928 332.666 387.26 341.705 392.676 350.543C394.801 354.01 396.679 357.291 398.336 360.425C398.336 360.425 397.864 354.942 397.175 348.117C396.589 342.309 395.845 335.529 395.102 330.327C382.716 330.564 377.348 326.134 370.035 311.729C371.141 318.198 370.411 324.667 370.411 324.667Z" fill="#2BCBC0"/>
<path d="M361.949 285.045L365.183 300.408C365.183 300.408 367.169 298.422 371.141 297.174L365.649 289.927L361.949 285.045Z" fill="white"/>
<path d="M371.141 297.174C372.238 296.829 373.486 296.54 374.887 296.365C376.589 296.152 378.236 296.332 379.738 296.711L374.078 282.619L371.141 297.174Z" fill="white"/>
<path d="M387.016 300.408L383.781 283.427L379.738 296.711C383.943 297.775 387.016 300.408 387.016 300.408Z" fill="white"/>
<path d="M210.738 367.523L207.503 381.27C207.503 381.27 211.339 380.174 217.206 381.14L210.738 367.523Z" fill="white"/>
<path d="M221.25 382.079C223.029 382.612 224.652 383.264 226.101 383.955L225.293 369.141L217.206 381.14C218.466 381.347 219.82 381.65 221.25 382.079Z" fill="white"/>
<path d="M234.187 389.356L235.805 375.61L226.101 383.955C231.236 386.405 234.187 389.356 234.187 389.356Z" fill="white"/>
<path d="M254.403 398.251C255.05 411.189 251.977 419.643 250.36 422.253C255.154 426.389 259.848 431.137 263.651 436.256C263.651 436.256 264.915 424.935 263.651 403.103C262.388 381.27 259.563 368.332 259.563 368.332C256.711 364.553 254.234 359.913 252.786 354.586C249.97 344.235 251.921 330.707 251.168 323.348C246.876 326.647 241.23 329.447 234.187 330.327C232.636 330.521 231.013 330.57 229.336 330.477L228.598 349.734C241.281 368.605 253.975 389.701 254.403 398.251Z" fill="#82DAAB"/>
<path d="M245.508 495.285C242.875 483.525 237.774 463.285 232.57 448.452C230.588 450.582 228.413 452.975 226.101 455.582C226.101 455.582 226.91 460.514 228.527 479.921C230.144 499.328 233.982 504.988 233.982 504.988C240.663 499.048 245.508 495.285 245.508 495.285Z" fill="#27A68B"/>
<path d="M288.365 556.044C269.031 565.137 251.804 571.059 237.422 573.995C237.961 577.947 237.422 587.305 230.953 593.127C222.867 600.405 211.546 609.3 207.503 618.195C204.269 625.31 202.382 640.566 201.843 647.305H226.101C226.101 647.305 230.953 631.132 244.699 609.3C258.446 587.467 276.235 579.883 276.235 579.883C282.859 565.428 288.365 556.044 288.365 556.044Z" fill="#27A68B"/>
<path d="M287.556 647.305H320.709C320.709 647.305 320.034 643.589 319.092 637.932C317.12 626.083 313.979 605.716 313.432 593.127C312.822 579.112 316.346 555.972 318.119 545.419C318.699 541.968 319.092 539.864 319.092 539.864C309.557 545.394 300.37 550.268 291.599 554.503C289.443 570.073 284.807 603.801 283.513 614.151C282.219 624.502 285.669 640.566 287.556 647.305Z" fill="#27A68B"/>
<path d="M365.992 608.491C363.403 598.136 359.989 591.811 357.269 586.772C356.474 585.3 355.739 583.937 355.1 582.615C354.177 580.704 353.456 578.878 353.054 576.931C353.054 576.931 345.047 593.495 340.309 603.177C340.094 603.615 339.886 604.04 339.686 604.448C338.867 606.119 338.178 607.516 337.69 608.491C334.456 614.96 319.092 637.932 319.092 637.932C320.034 643.589 320.709 647.305 320.709 647.305H362.354C361.977 644.577 362.973 641.577 364.191 637.912C366.429 631.174 369.415 622.185 365.992 608.491Z" fill="#01ABEA"/>
<path d="M410.466 647.305C402.919 633.019 390.089 595.877 399.145 561.591C403.633 544.602 412.441 527.231 421.187 509.983C434.504 483.722 447.677 457.745 445.236 433.83C443.083 412.729 439.095 402.636 435.837 394.391C432.978 387.154 430.681 381.341 430.681 370.758C430.681 348.117 436.341 331.136 446.853 311.729C451.135 303.824 457.027 296.858 462.725 290.121C471.017 280.318 478.898 271 480.815 259.977C482.888 248.059 474.002 231.823 466.713 218.506C462.628 211.042 459.045 204.496 458.174 200.14C457.419 196.364 458.545 193.763 460.6 191.728C451.434 197.561 448.221 202.087 446.163 213.078C451.989 225.334 457.689 239.016 455.748 250.274C451.91 272.537 425.478 309.377 415.892 322.736C415.381 323.448 414.918 324.094 414.509 324.667C412.04 328.123 409.38 331.768 406.863 335.179C414.802 357.82 429.064 410.057 422.595 437.873C416.126 465.689 394.559 488.816 384.585 496.902C383.699 500.64 382.841 504.126 382.164 506.605C379.738 515.5 371.557 534.907 371.557 534.907C377.047 529.951 382.508 527.133 386.207 526.012C378.66 533.829 364.86 553.505 370.035 569.678C376.504 589.893 391.868 600.405 394.293 610.108C395.582 615.262 394.361 618.591 393.054 622.155C391.901 625.301 390.68 628.63 391.059 633.558C391.706 641.968 393.485 646.227 394.293 647.305H410.466Z" fill="#82DAAB"/>
<path d="M398.336 360.425C408.664 379.952 410.466 393.769 410.466 411.189C410.466 417.253 408.051 445.149 389.354 475.878C389.354 475.878 386.876 487.234 384.585 496.902C394.559 488.816 416.126 465.689 422.595 437.873C429.064 410.057 414.802 357.82 406.863 335.179C402.784 340.705 399.081 345.617 397.175 348.117C397.864 354.942 398.336 360.425 398.336 360.425Z" fill="#27A68B"/>
<path d="M477.581 179.924C481.462 173.455 480.276 160.518 479.198 154.857C477.581 161.596 472.406 175.234 464.643 175.881C462.339 176.073 459.852 176.037 457.324 176.001C449.205 175.883 440.658 175.76 436.341 183.159C433.791 187.531 438.299 196.827 443.654 207.868C444.477 209.567 445.321 211.308 446.163 213.078C448.221 202.087 451.434 197.561 460.6 191.728C462.551 189.797 465.338 188.375 468.15 186.941C471.891 185.033 475.673 183.104 477.581 179.924Z" fill="#01ABEA"/>
<path d="M385.373 201.757C387.546 205.531 391.241 216.797 388.633 231.676C387.144 240.169 377.329 256.443 366.62 272.107C366.62 272.107 367.609 276.15 367.609 281.001C367.609 285.853 365.649 289.927 365.649 289.927L371.141 297.174L374.078 282.619L379.738 296.711L383.781 283.427C391.598 273.454 407.393 249.142 408.04 231.676C408.687 214.21 406.153 196.625 404.805 190.016C403.435 189.725 402.219 189.423 401.192 189.146C398.871 188.518 397.515 188.011 397.515 188.011C396.723 188.987 395.918 189.962 395.102 190.934C392.027 194.597 388.782 198.224 385.373 201.757Z" fill="#27A68B"/>
<path d="M404.805 190.016C407.114 190.507 409.863 190.97 412.892 191.245C414.794 191.418 416.696 191.628 418.504 191.827C425.147 192.561 430.508 193.152 429.873 191.245C429.511 190.161 426.728 189.077 423.759 187.921C420.085 186.49 416.126 184.948 416.126 183.159C416.126 181.596 419.526 179.654 422.949 177.701C426.607 175.612 430.29 173.509 429.873 171.838C429.315 169.609 419.153 171.494 412.892 172.881C409.353 179.971 406.78 183.525 401.192 189.146C402.219 189.423 403.435 189.725 404.805 190.016Z" fill="#FFFEFC"/>
<path d="M361.14 164.686C369.173 159.899 375.836 155.6 381.356 151.785C381.356 151.785 376.504 149.197 375.695 145.963C374.887 142.728 378.121 137.068 376.504 136.259C375.029 135.522 370.189 138.821 365.668 146.771C365.233 147.536 364.801 148.345 364.375 149.197C359.523 158.9 361.14 164.686 361.14 164.686Z" fill="#FFFEFC"/>
<path d="M375.695 145.963C376.504 149.197 381.356 151.785 381.356 151.785C383.082 150.591 384.697 149.445 386.207 148.346C381.356 137.579 371.976 114.265 373.269 107.149C374.563 100.033 383.699 93.4025 388.106 90.9766C387.308 86.0849 386.888 80.6984 387.016 74.8043C387.077 71.9987 387.152 69.3036 387.238 66.7181L378.93 53.7803C380.816 58.632 383.943 70.5995 381.356 79.656C379.87 84.8552 376.338 87.496 372.561 90.32C368.113 93.645 363.327 97.224 361.14 105.532C357.906 117.823 362.811 138.146 365.668 146.771C370.189 138.821 375.029 135.522 376.504 136.259C378.121 137.068 374.887 142.728 375.695 145.963Z" fill="#82DAAB"/>
<path d="M313.432 117.661C313.432 117.661 298.877 133.025 289.982 158.092C286.343 168.347 284.464 177.754 283.513 185.291C289.067 181.105 292.606 179.805 299.619 179.116C300.353 172.94 301.411 165.839 302.92 158.9C306.963 140.302 313.432 117.661 313.432 117.661Z" fill="#82DAAB"/>
<path d="M282.704 203.162C286.767 201.828 291.814 199.933 298.068 197.259C298.068 197.259 298.386 189.493 299.619 179.116C292.606 179.805 289.067 181.105 283.513 185.291C282.14 196.177 282.704 203.162 282.704 203.162Z" fill="#27A68B"/>
<path d="M254.403 647.305C254.403 647.305 257.637 627.089 267.341 601.214C270.277 593.383 273.361 586.156 276.235 579.883C276.235 579.883 258.446 587.467 244.699 609.3C230.953 631.132 226.101 647.305 226.101 647.305H254.403Z" fill="#82DAAB"/>
<path d="M313.432 593.127C313.979 605.716 317.12 626.083 319.092 637.932C319.092 637.932 334.456 614.96 337.69 608.491C338.178 607.516 338.867 606.119 339.686 604.448C339.686 604.448 338.499 561.591 336.882 558.357C335.264 555.122 318.119 545.419 318.119 545.419C316.346 555.972 312.822 579.112 313.432 593.127Z" fill="#8286F4"/>
<path d="M394.293 610.108C391.868 600.405 376.504 589.893 370.035 569.678C364.86 553.505 378.66 533.829 386.207 526.012C382.508 527.133 377.047 529.951 371.557 534.907C368.537 537.634 365.507 541.009 362.757 545.105C358.488 551.465 354.893 559.564 353.054 569.678C352.552 572.438 352.605 574.76 353.054 576.931C353.456 578.878 354.177 580.704 355.1 582.615C369.424 603.526 377.975 609.81 394.293 610.108Z" fill="#8286F4"/>
<path d="M394.293 647.305C393.485 646.227 391.706 641.968 391.059 633.558C390.68 628.63 391.901 625.301 393.054 622.155C394.361 618.591 395.582 615.262 394.293 610.108C377.975 609.81 369.424 603.526 355.1 582.615C355.739 583.937 356.474 585.3 357.269 586.772C359.989 591.811 363.403 598.136 365.992 608.491C369.415 622.185 366.429 631.174 364.191 637.912C362.973 641.577 361.977 644.577 362.354 647.305H394.293Z" fill="#4E59B1"/>
<path d="M408.04 174.03C404.812 178.647 401.301 183.346 397.515 188.011C397.515 188.011 398.871 188.518 401.192 189.146C406.78 183.525 409.353 179.971 412.892 172.881C410.07 173.506 408.04 174.03 408.04 174.03Z" fill="#ECEEF2"/>
<path d="M365.183 300.408L361.949 285.045L365.649 289.927C365.649 289.927 367.609 285.853 367.609 281.001C367.609 276.15 366.62 272.107 366.62 272.107C358.568 283.883 350.01 295.315 344.107 302.834C350.211 307.36 360.438 315.301 370.411 324.667C370.411 324.667 371.141 318.198 370.035 311.729C368.929 305.26 365.183 300.408 365.183 300.408Z" fill="#82DAAB"/>
<ellipse cx="209.929" cy="282.618" rx="4.04308" ry="5.66032" fill="black"/>
<g opacity="0.5">
<circle cx="296.451" cy="309.303" r="3.23447" fill="#21C9BD"/>
<circle cx="308.58" cy="321.433" r="2.42585" fill="#21C9BD"/>
<circle cx="299.685" cy="330.326" r="1.61723" fill="#21C9BD"/>
<circle cx="311.006" cy="330.327" r="3.23447" fill="#21C9BD"/>
<circle cx="325.561" cy="343.265" r="3.23447" fill="#21C9BD"/>
<circle cx="353.054" cy="365.906" r="3.23447" fill="#21C9BD"/>
<circle cx="324.752" cy="368.331" r="2.42585" fill="#21C9BD"/>
<circle cx="334.456" cy="376.418" r="2.42585" fill="#21C9BD"/>
<circle cx="327.178" cy="395.016" r="3.23447" fill="#21C9BD"/>
<circle cx="354.671" cy="401.485" r="1.61723" fill="#21C9BD"/>
<circle cx="300.494" cy="413.614" r="2.42585" fill="#21C9BD"/>
<circle cx="286.748" cy="506.606" r="3.23447" fill="#21C9BD"/>
<circle cx="270.575" cy="513.074" r="1.61723" fill="#21C9BD"/>
<circle cx="239.848" cy="519.544" r="1.61723" fill="#21C9BD"/>
<circle cx="226.101" cy="525.204" r="2.42585" fill="#21C9BD"/>
</g>
<path d="M81.2609 607.174L84.3913 614.739L85.4348 612.13L86.4783 614.739L88.3044 608.217L90.4521 614.739C88.5893 565.845 85.7155 452.446 84.8846 419.087L82.3044 415.957L80.2174 419.087L81.2609 607.174Z" fill="#EAEAE7"/>
<path d="M84.6522 409.696H82.3044C82.2649 409.179 82.2215 408.68 82.1732 408.197L78.9131 411.261L76.4348 408.849V419.087L78.3913 415.957L80.2174 419.087L82.3044 415.957L84.8846 419.087C84.7355 413.104 84.6522 409.696 84.6522 409.696Z" fill="#F6CA34"/>
<path d="M76.4348 408.849L78.9131 411.261L82.1732 408.197C81.7168 403.637 80.8211 400.48 78.6892 396.652H76.4348V408.849Z" fill="#FFFFFD"/>
<path d="M76.4348 612.13L77.8696 614.739L81.2609 607.174L80.2174 419.087L78.3913 415.957L76.4348 419.087V612.13Z" fill="#FFFFFD"/>
<path d="M77.8696 614.739L76.4348 612.13V618.391H81.2609V607.174L77.8696 614.739Z" fill="#F6CA34"/>
<path d="M84.3913 614.739L81.2609 607.174V618.391H90.5942C90.5476 617.218 90.5002 616 90.4521 614.739L88.3044 608.217L86.4783 614.739L85.4348 612.13L84.3913 614.739Z" fill="#F6CA34"/>
<path d="M99 646.304C99 646.304 93.2609 641.087 91.6957 637.435C91.4276 636.809 91.0447 629.717 90.5942 618.391H81.2609C81.2806 632.189 82.664 638.755 87.7174 648.652H99V646.304Z" fill="#355B81"/>
<path fill-rule="evenodd" clip-rule="evenodd" d="M76.4348 393C77.3099 394.313 78.0544 395.512 78.6892 396.652H76.4348V393Z" fill="#F6CA34"/>
<path d="M76.4348 618.391V633.522V648.652H87.7174C82.664 638.755 81.2806 632.189 81.2609 618.391H76.4348Z" fill="#355B81"/>
<path d="M71.6366 607.174L68.5243 614.739L67.4868 612.13L66.4494 614.739L64.6339 608.217L62.4985 614.739C64.3506 565.845 67.2077 452.446 68.0339 419.087L70.5992 415.957L72.6741 419.087L71.6366 607.174Z" fill="#EAEAE7"/>
<path d="M68.2649 409.696H70.5992C70.6384 409.179 70.6815 408.68 70.7296 408.197L73.9709 411.261L76.4348 408.849V419.087L74.4896 415.957L72.6741 419.087L70.5992 415.957L68.0339 419.087C68.1821 413.104 68.2649 409.696 68.2649 409.696Z" fill="#F6CA34"/>
<path d="M76.4348 408.849L73.9709 411.261L70.7296 408.197C71.1833 403.637 72.0739 400.48 74.1934 396.652H76.4348V408.849Z" fill="#FFFFFD"/>
<path d="M76.4348 612.13L75.0083 614.739L71.6366 607.174L72.6741 419.087L74.4896 415.957L76.4348 419.087V612.13Z" fill="#FFFFFD"/>
<path d="M75.0083 614.739L76.4348 612.13V618.391H71.6366V607.174L75.0083 614.739Z" fill="#F6CA34"/>
<path d="M68.5243 614.739L71.6366 607.174V618.391H62.3573C62.4036 617.218 62.4507 616 62.4985 614.739L64.6339 608.217L66.4494 614.739L67.4868 612.13L68.5243 614.739Z" fill="#F6CA34"/>
<path d="M54 646.304C54 646.304 59.706 641.087 61.2622 637.435C61.5287 636.809 61.9094 629.717 62.3573 618.391H71.6366C71.617 632.189 70.2416 638.755 65.2174 648.652H54V646.304Z" fill="#355B81"/>
<path fill-rule="evenodd" clip-rule="evenodd" d="M76.4348 393C75.5648 394.313 74.8246 395.512 74.1934 396.652H76.4348V393Z" fill="#F6CA34"/>
<path d="M76.4348 618.391V633.522V648.652H65.2174C70.2416 638.755 71.617 632.189 71.6366 618.391H76.4348Z" fill="#355B81"/>
<rect x="-26.8616" y="646.795" width="436.741" height="26.2848" fill="#7A87AC"/>
<rect x="-26.9999" y="673" width="437" height="401" fill="#324065"/>
</g>
<path fill-rule="evenodd" clip-rule="evenodd" d="M500.873 665.244C500.873 665.244 501.472 677.086 505.063 692.645C508.653 708.205 522.237 727.587 522.237 727.587C533.424 723.931 542.667 721.448 542.667 721.448C542.667 721.448 528.403 701.889 523.423 682.363C518.444 662.837 519.173 650.978 519.173 650.978C517.419 653.078 515.396 655.222 513.078 657.454C509.276 661.115 505.031 663.599 500.873 665.244ZM276.241 735.47C276.241 735.47 288.425 718.378 298 699.228C307.575 680.078 315.355 661.103 315.355 661.103C310.691 657.117 306.227 652.205 304.342 647.491C302.424 642.696 299.685 635.439 300.338 627.563C300.338 627.563 296.752 647.491 280.811 680.37C264.869 713.25 248.927 723.712 248.927 723.712C248.927 723.712 258.433 729.561 276.241 735.47Z" fill="#E64054"/>
<path d="M341.207 673.396C337.387 672.566 328.453 670.108 323.272 666.92C320.882 665.448 318.084 663.434 315.355 661.103C315.355 661.103 307.575 680.078 298 699.228C288.425 718.378 276.241 735.47 276.241 735.47C299.358 743.141 336.464 750.914 384.93 746.13C443.371 740.362 498.346 735.396 522.237 727.587C522.237 727.587 508.653 708.205 505.063 692.645C501.472 677.086 500.873 665.244 500.873 665.244C493.264 668.254 485.95 668.453 482.191 667.916C480.697 673.894 476.068 681.862 470.733 688.839C464.761 696.649 456.433 702.122 451.802 705.279C440.842 712.752 412.446 719.726 392.519 715.741C372.592 711.756 365.119 705.279 356.152 696.81C348.978 690.035 343.2 678.378 341.207 673.396Z" fill="#C61D3A"/>
<path d="M352.874 726.678L368.813 715.253L366.223 764.601C364.551 760.98 364.096 760.159 362.836 756.279C358.453 742.777 352.874 726.678 352.874 726.678Z" fill="#3298D4"/>
<path d="M458.075 726.678C455.817 734.295 455.984 733.613 451.202 746.077C450.67 747.463 447.543 756.72 447.013 758.028L445.321 723.37L444.925 715.253C444.925 715.253 448.113 716.811 452.098 720.446C456.083 724.081 458.075 726.678 458.075 726.678Z" fill="#3298D4"/>
<path d="M468.834 737.064C472.022 740.388 476.273 746.758 478 749.528L477.307 756.279L468.834 838.85L435.361 785.36C436.138 783.546 437.048 781.456 438.045 779.162C440.684 773.095 443.942 765.606 447.013 758.028C447.543 756.72 450.67 747.463 451.202 746.077C455.984 733.613 455.817 734.295 458.075 726.678C460.333 728.755 465.647 733.741 468.834 737.064Z" fill="#AFDBF5"/>
<path d="M334.145 749.528L352.874 726.678C352.874 726.678 358.453 742.777 362.836 756.279C364.096 760.159 364.551 760.98 366.223 764.601C370.368 773.579 375.986 783.802 375.986 783.802L342.911 836.772L334.823 756.279L334.145 749.528Z" fill="#AFDBF5"/>
<path d="M135.298 981.661C137.041 979.876 140.355 977.277 144.796 975.062C149.828 972.551 156.308 970.534 163.591 970.755C180.726 971.275 209.019 978.026 222.567 981.661C233.406 984.569 250.196 992.22 257.236 995.682V1054.36H123.343C123.078 1049.34 123.343 1009.7 124.937 1001.39C126.531 993.086 132.509 984.777 135.298 981.661Z" fill="url(#paint2_linear_446_5947)"/>
<path d="M681.23 1058L552.517 1054.36L554.908 999.371C563.808 994.852 584.954 984.984 598.344 981.661C615.08 977.506 641.381 972.832 647.358 972.832C648.395 972.832 649.493 972.801 650.64 972.768L650.641 972.768C656.103 972.613 662.689 972.425 669.275 975.429C675.651 978.337 680.167 983.565 681.628 985.815C683.621 988.412 687.924 994.54 689.2 998.279C690.794 1002.95 692.786 1019.05 691.192 1032.55C689.917 1043.36 684.019 1054.02 681.23 1058Z" fill="url(#paint3_linear_446_5947)"/>
<path fill-rule="evenodd" clip-rule="evenodd" d="M368.813 715.253C368.813 715.253 397.681 733.528 414.697 735.321C431.713 737.113 445.321 723.37 445.321 723.37L447.013 758.028C443.942 765.606 440.684 773.095 438.045 779.162C437.048 781.456 436.138 783.546 435.361 785.36L428.9 817.783C428.9 817.783 409.231 836.64 405.98 836.772C402.728 836.905 383.06 817.783 383.06 817.783L375.986 783.802C375.986 783.802 370.368 773.579 366.223 764.601L368.813 715.253Z" fill="#FFCAA6"/>
<path d="M444.925 697.077V715.253L445.321 723.37C445.321 723.37 431.713 737.113 414.697 735.321C397.681 733.528 368.813 715.253 368.813 715.253V701.751L444.925 697.077Z" fill="#F4B689"/>
<path fill-rule="evenodd" clip-rule="evenodd" d="M187.469 863.057C201.372 841.592 230.974 796.391 238.155 787.308C244.604 779.151 259.701 772.537 272.796 766.8C277.928 764.551 282.753 762.437 286.629 760.418C297.641 754.681 323.347 755.268 334.823 756.279L342.911 836.772L375.986 783.802L383.06 817.783L384.143 822.987L388.657 844.673L391.877 860.141H262.416C262.416 860.141 256.041 859.103 253.65 863.777C252.55 865.926 252.125 868.075 251.986 869.77C251.823 871.761 252.056 873.124 252.056 873.124L252.722 888.892C252.722 888.892 238.155 884.236 217.808 876.343C203.36 870.739 192.533 865.578 187.469 863.057Z" fill="#55BBED"/>
<path d="M285.13 754.202C297.882 750.047 323.12 749.355 334.145 749.528L334.823 756.279C323.347 755.268 297.641 754.681 286.629 760.418C282.753 762.437 277.928 764.551 272.796 766.8C259.701 772.537 244.604 779.151 238.155 787.308C230.974 796.391 201.372 841.592 187.469 863.057C185.402 862.028 184.295 861.439 184.295 861.439C195.073 840.678 216.537 802.4 231.733 785.36C248.868 766.146 269.191 759.395 285.13 754.202Z" fill="#BBE4F8"/>
<path fill-rule="evenodd" clip-rule="evenodd" d="M477.307 756.279C486.559 756.328 507.935 757.463 519.425 761.613C521.017 762.188 522.843 762.798 524.857 763.471C541.023 768.873 569.29 778.32 585.255 805.832C599.617 830.584 621.161 860.116 630.138 871.787C623.639 874.515 612.608 879.015 600.216 883.514C580.467 890.685 559.426 895.455 559.426 895.455L560.487 871.047C560.487 871.047 560.583 869.679 560.4 867.978C560.209 866.202 559.716 864.064 558.495 862.738C556.104 860.141 554.111 860.141 554.111 860.141H420.083L423.542 844.673L427.863 822.987L428.9 817.783L435.361 785.36L468.834 838.85L477.307 756.279Z" fill="#55BBED"/>
<path d="M568.457 772.897C582.803 782.764 602.329 808.729 607.509 817.558C610.991 823.492 621.854 841.39 632.958 862.738C634.058 864.852 635.16 867 636.257 869.173C636.257 869.173 633.996 870.168 630.138 871.787C621.161 860.116 599.617 830.584 585.255 805.832C569.29 778.32 541.023 768.873 524.857 763.471C522.843 762.798 521.017 762.188 519.425 761.613C507.935 757.463 486.559 756.328 477.307 756.279L478 749.528C487.829 750.393 510.038 752.54 520.24 754.202C532.991 756.279 554.111 763.03 568.457 772.897Z" fill="#BBE4F8"/>
<path d="M253.65 863.777C256.041 859.103 262.416 860.141 262.416 860.141H391.877H420.083H554.111C554.111 860.141 556.104 860.141 558.495 862.738C559.716 864.064 560.209 866.202 560.4 867.978C560.4 867.978 555.931 865.587 552.938 864.99C549.946 864.392 264.487 863.795 260.298 864.99C256.109 866.185 251.986 869.77 251.986 869.77C252.125 868.075 252.55 865.926 253.65 863.777Z" fill="white"/>
<path d="M554.908 999.371L552.517 1054.36H257.236V995.682L257.064 991.617L252.722 888.892L252.056 873.124C252.056 873.124 251.823 871.761 251.986 869.77C251.986 869.77 256.109 866.185 260.298 864.99C264.487 863.795 549.946 864.392 552.938 864.99C555.931 865.587 560.4 867.978 560.4 867.978C560.583 869.679 560.487 871.047 560.487 871.047L559.426 895.455L555.225 992.093L554.908 999.371Z" fill="#EDEEEF"/>
<path d="M420.083 860.141H391.877L388.657 844.673L384.143 822.987C384.143 822.987 399.736 840.49 405.98 840.49C412.224 840.49 427.863 822.987 427.863 822.987L423.542 844.673L420.083 860.141Z" fill="url(#paint4_linear_446_5947)"/>
<path d="M405.98 836.772C409.231 836.64 428.9 817.783 428.9 817.783L427.863 822.987C427.863 822.987 412.224 840.49 405.98 840.49C399.736 840.49 384.143 822.987 384.143 822.987L383.06 817.783C383.06 817.783 402.728 836.905 405.98 836.772Z" fill="#EEEEEE"/>
<path fill-rule="evenodd" clip-rule="evenodd" d="M257.064 991.617C249.625 987.077 232.31 977.41 222.567 975.061C210.389 972.124 174.202 965.944 166.107 965.944C159.631 965.944 150.898 967.845 147.341 968.796C154.493 951.1 165.944 922.176 169.334 911.599C173.164 899.648 183.02 874.258 187.469 863.057C192.533 865.578 203.36 870.739 217.808 876.343C238.155 884.236 252.722 888.892 252.722 888.892L257.064 991.617Z" fill="#37A5E6"/>
<path fill-rule="evenodd" clip-rule="evenodd" d="M147.341 968.796C143.455 969.778 141.585 970.677 138.784 972.6C151.932 938.51 174.323 881.347 180.726 868.451C181.718 866.452 182.92 864.088 184.295 861.439C184.295 861.439 185.402 862.028 187.469 863.057C183.02 874.258 173.164 899.648 169.334 911.599C165.944 922.176 154.493 951.1 147.341 968.796Z" fill="#AFDBF5"/>
<path d="M144.796 975.062C140.355 977.277 137.041 979.876 135.298 981.661C136.362 978.889 137.531 975.849 138.784 972.6C141.585 970.677 143.455 969.778 147.341 968.796C146.411 971.096 145.555 973.205 144.798 975.061L144.796 975.062Z" fill="#39ADE2"/>
<path d="M222.567 981.661C209.019 978.026 180.726 971.275 163.591 970.755C156.309 970.535 149.83 972.551 144.798 975.061C145.555 973.205 146.411 971.096 147.341 968.796C150.898 967.845 159.631 965.944 166.107 965.944C174.202 965.944 210.389 972.124 222.567 975.061C232.31 977.41 249.625 987.077 257.064 991.617L257.236 995.682C250.196 992.22 233.406 984.569 222.567 981.661Z" fill="#2D8AC4"/>
<path fill-rule="evenodd" clip-rule="evenodd" d="M630.138 871.787C623.639 874.515 612.608 879.015 600.216 883.514C580.467 890.685 559.426 895.455 559.426 895.455L555.225 992.093C563.444 987.655 581.787 978.305 589.406 976.403C598.929 974.026 627.498 967.37 641.782 966.894C653.21 966.514 663.388 968.321 667.048 969.272C662.236 955.882 654.611 934.186 650.641 921.16C645.978 905.863 635.029 881.871 630.138 871.787Z" fill="#37A5E6"/>
<path d="M647.358 972.832C641.381 972.832 615.08 977.506 598.344 981.661C584.954 984.984 563.808 994.852 554.908 999.371L555.225 992.093C563.444 987.655 581.787 978.305 589.406 976.403C598.929 974.026 627.498 967.37 641.782 966.894C653.21 966.514 663.388 968.321 667.048 969.272C667.887 971.607 668.641 973.689 669.275 975.429C662.689 972.425 656.103 972.613 650.641 972.768L650.64 972.768C649.493 972.801 648.395 972.832 647.358 972.832Z" fill="#2D8AC4"/>
<path fill-rule="evenodd" clip-rule="evenodd" d="M677.236 972.768C669.758 950.863 657.876 917.391 648.554 895.455C644.805 886.634 640.566 877.706 636.257 869.173C636.257 869.173 633.996 870.168 630.138 871.787C635.029 881.871 645.978 905.863 650.641 921.16C654.611 934.186 662.236 955.882 667.048 969.272C667.048 969.272 668.923 969.747 672.256 970.698C675.589 971.649 677.236 972.768 677.236 972.768Z" fill="#AFDBF5"/>
<path d="M681.628 985.815C680.167 983.565 675.651 978.337 669.275 975.429C668.641 973.689 667.887 971.607 667.048 969.272C667.048 969.272 668.923 969.747 672.256 970.698C675.589 971.649 677.236 972.768 677.236 972.768C678.964 977.83 680.457 982.274 681.628 985.815Z" fill="#39ADE2"/>
<path d="M327.861 603.046V569.801C327.861 569.801 356.886 566.684 373.471 554.217C390.056 541.75 403.532 520.452 403.532 520.452C400.94 528.071 398.245 543.62 408.196 544.867C418.148 546.114 436.53 520.106 444.477 506.946C450.523 518.375 464.69 543.516 472.983 552.659C481.275 561.801 486.804 561.663 488.531 560.451C488.531 560.451 491.641 566.165 492.678 580.19C493.714 594.216 493.714 600.449 493.714 600.449C496.478 598.891 503.251 595.774 508.226 595.774C509.711 595.774 511.876 596.04 514.324 596.672C514.152 590.486 513.288 576.138 511.215 568.242C508.623 558.373 497.221 512.141 465.087 494.999C432.953 477.857 409.112 477.857 381.124 479.935C353.136 482.012 330.85 494.999 319.448 509.024C308.045 523.05 302.344 552.659 303.381 569.801C304.417 586.943 298.198 612.397 298.165 617.072C298.893 615.507 299.799 613.944 300.91 612.397C308.374 602.008 321.987 601.834 327.861 603.046Z" fill="#E64054"/>
<path d="M327.861 569.801V603.046C321.987 601.834 308.374 602.008 300.91 612.397C299.799 613.944 298.893 615.507 298.165 617.072C296.705 620.212 295.962 623.362 295.709 626.422C295.029 634.634 297.878 642.201 299.874 647.2C301.836 652.116 306.479 657.239 311.332 661.394C314.171 663.825 317.082 665.925 319.569 667.459C324.959 670.784 334.254 673.347 338.227 674.212C340.3 679.407 346.313 691.562 353.776 698.627C363.105 707.458 370.88 714.211 391.611 718.366C412.343 722.522 441.885 715.25 453.288 707.458C458.105 704.165 466.77 698.459 472.983 690.316C478.533 683.04 483.348 674.732 484.903 668.498C488.814 669.058 496.423 668.85 504.34 665.712C508.665 663.997 513.082 661.407 517.037 657.59C519.449 655.262 521.553 653.027 523.378 650.837C532.143 640.318 534.48 630.83 533.622 617.072C532.833 604.418 522.133 598.687 514.324 596.672C511.876 596.04 509.711 595.774 508.226 595.774C503.251 595.774 496.478 598.891 493.714 600.449C493.714 600.449 493.714 594.216 492.678 580.19C491.641 566.165 488.531 560.451 488.531 560.451C486.804 561.663 481.275 561.801 472.983 552.659C464.69 543.516 450.523 518.375 444.477 506.946C436.53 520.106 418.148 546.114 408.196 544.867C398.245 543.62 400.94 528.071 403.532 520.452C403.532 520.452 390.056 541.75 373.471 554.217C356.886 566.684 327.861 569.801 327.861 569.801Z" fill="#FFCAA6"/>
<path d="M397.571 584C397.571 584 399 592.378 397.571 607.844C396.143 623.311 389 618.156 389 627.178C389 636.2 399 642 399 642" stroke="#D89B6E" stroke-width="1.03823" stroke-linecap="round"/>
<path d="M384.176 612.539C384.176 612.539 387.232 609.461 396.145 609.461C405.058 609.461 408.114 613.052 408.114 613.052" stroke="white" stroke-width="4.18504"/>
<path d="M512.666 620.233C508.533 620.585 499.955 623.712 498.715 633.41M498.715 633.41C497.165 645.532 510.599 643.424 513.183 635.518C515.25 629.193 504.399 631.477 498.715 633.41ZM314.255 625.504C318.388 625.855 326.862 628.877 327.689 638.153M327.689 638.153C328.722 649.748 315.805 651.329 313.738 640.261C312.084 631.407 322.349 635.166 327.689 638.153Z" stroke="#D89B6E" stroke-width="1.04626"/>
<path d="M379.389 651.353C379.389 651.353 381.474 667.9 404.938 666.866C428.402 665.831 432.052 651.353 432.052 651.353" stroke="#D89B6E" stroke-width="1.04626"/>
<ellipse cx="368.018" cy="610.059" rx="5.38602" ry="7.77981" fill="#07042D"/>
<ellipse cx="435.643" cy="607.666" rx="5.98447" ry="7.77981" fill="#07042D"/>
<ellipse cx="459.552" cy="640.666" rx="12.1669" ry="14.9805" transform="rotate(83.472 459.552 640.666)" fill="#F6816F"/>
<ellipse cx="358.468" cy="648.216" rx="12.1669" ry="14.9805" transform="rotate(87.0317 358.468 648.216)" fill="#F6816F"/>
<ellipse cx="360.746" cy="574.548" rx="4.16431" ry="15.3319" transform="rotate(80.8833 360.746 574.548)" fill="#E2685A"/>
<ellipse cx="436.189" cy="570.938" rx="4.36527" ry="15.3319" transform="rotate(96.3578 436.189 570.938)" fill="#E2685A"/>
<circle cx="345.277" cy="614.847" r="38.0034" stroke="white" stroke-width="4.18504"/>
<circle cx="445.816" cy="614.847" r="38.0034" stroke="white" stroke-width="4.18504"/>
<circle cx="320.741" cy="657.337" r="5.98447" fill="white"/>
<ellipse cx="505.063" cy="651.951" rx="5.98447" ry="6.58292" fill="white"/>
<g opacity="0.75">
<path d="M404.952 931.008C404.952 925.495 398.886 921.025 391.404 921.025V931.008H404.952Z" fill="#C4CED9"/>
<path d="M415.647 932.434H405.664C397.788 932.434 391.403 938.818 391.403 946.695C391.403 954.571 397.788 960.956 405.664 960.956H415.647V932.434Z" fill="#C4CED9"/>
<path d="M415.647 932.434H405.664C397.788 932.434 391.403 938.818 391.403 946.695C391.403 954.571 397.788 960.956 405.664 960.956H415.647V932.434Z" fill="#C4CED9"/>
<mask id="mask1_446_5947" style="mask-type:alpha" maskUnits="userSpaceOnUse" x="391" y="932" width="25" height="29">
<path d="M415.647 932.434H405.664C397.788 932.434 391.403 938.818 391.403 946.695C391.403 954.571 397.788 960.956 405.664 960.956H415.647V932.434Z" fill="#C4CED9"/>
</mask>
<g mask="url(#mask1_446_5947)">
<circle cx="407.654" cy="940.991" r="16.2509" fill="#C4CED9"/>
</g>
<path d="M417.074 946.695V932.434H424.917L419.587 938.708L424.222 942.759L417.074 946.695Z" fill="#C4CED9"/>
<circle cx="4.54704" cy="4.54704" r="3.59276" transform="matrix(-1 0 0 1 413.453 934.963)" fill="#C4CED9" stroke="white" stroke-width="1.90857"/>
<path fill-rule="evenodd" clip-rule="evenodd" d="M416.979 960.956C417.01 960.957 417.042 960.957 417.073 960.957C419.83 960.957 422.065 958.85 422.065 956.251C422.065 952.833 417.087 948.135 417.074 948.122V960.956H416.979Z" fill="#C4CED9"/>
<path d="M415.648 931.008C415.648 926.676 410.859 923.164 404.952 923.164V931.008H415.648Z" fill="#C4CED9"/>
</g>
<g filter="url(#filter1_d_446_5947)">
<rect x="529" y="398" width="106" height="106" rx="21.2" fill="white"/>
<path d="M553.733 471.316H610.267" stroke="#D8D8DE" stroke-width="3.53333" stroke-linecap="round"/>
<path d="M570.517 482.8L610.267 482.8" stroke="#D8D8DE" stroke-width="3.53333" stroke-linecap="round"/>
<path d="M600.108 455.877L599.45 454.923C598.954 454.205 587.3 437.256 587.3 430.453C587.3 423.391 593.046 417.645 600.108 417.645C607.171 417.645 612.917 423.391 612.917 430.453C612.917 437.256 601.263 454.205 600.767 454.923L600.108 455.877ZM600.108 419.246C593.928 419.246 588.901 424.273 588.901 430.453C588.901 435.886 597.615 449.309 600.108 453.039C602.602 449.309 611.316 435.886 611.316 430.453C611.316 424.273 606.288 419.246 600.108 419.246Z" fill="#9382F2"/>
<path d="M600.108 419.246C593.928 419.246 588.901 424.273 588.901 430.453C588.901 435.886 597.615 449.309 600.108 453.039C602.602 449.309 611.316 435.886 611.316 430.453C611.316 424.273 606.288 419.246 600.108 419.246Z" fill="#9382F2"/>
<path d="M600.108 436.057C597.019 436.057 594.505 433.543 594.505 430.453C594.505 427.363 597.019 424.85 600.108 424.85C603.197 424.85 605.712 427.363 605.712 430.453C605.712 433.543 603.197 436.057 600.108 436.057ZM600.108 426.451C597.901 426.451 596.106 428.246 596.106 430.453C596.106 432.66 597.901 434.456 600.108 434.456C602.315 434.456 604.111 432.66 604.111 430.453C604.111 428.246 602.315 426.451 600.108 426.451Z" fill="white"/>
<path d="M600.108 426.451C597.901 426.451 596.106 428.246 596.106 430.453C596.106 432.66 597.901 434.456 600.108 434.456C602.315 434.456 604.111 432.66 604.111 430.453C604.111 428.246 602.315 426.451 600.108 426.451Z" fill="white"/>
</g>
<g filter="url(#filter2_d_446_5947)">
<path fill-rule="evenodd" clip-rule="evenodd" d="M629.5 580C606.028 580 587 599.028 587 622.5C587 622.737 587.002 622.973 587.006 623.208H587V665H628.083V664.977C628.554 664.992 629.026 665 629.5 665C652.972 665 672 645.972 672 622.5C672 599.028 652.972 580 629.5 580Z" fill="#9382F2"/>
</g>
<path d="M629.815 651.541C645.68 651.541 658.542 638.68 658.542 622.815C658.542 606.95 645.68 594.089 629.815 594.089C613.95 594.089 601.089 606.95 601.089 622.815C601.089 638.68 613.95 651.541 629.815 651.541Z" fill="#FFD42A"/>
<path d="M610.316 601.758C607.411 604.443 605.092 607.7 603.504 611.323C601.916 614.947 601.094 618.86 601.089 622.816C601.089 630.435 604.116 637.741 609.503 643.128C614.89 648.515 622.197 651.542 629.815 651.542C634.896 651.538 639.885 650.187 644.274 647.627C648.662 645.066 652.292 641.387 654.795 636.965C654.266 637.467 653.717 637.948 653.151 638.408C652.401 639.003 651.622 639.56 650.816 640.078C650.01 640.596 649.179 641.073 648.325 641.508C647.471 641.942 646.597 642.333 645.704 642.68C644.812 643.027 643.903 643.33 642.981 643.586C642.057 643.843 641.122 644.052 640.178 644.215C639.234 644.378 638.282 644.493 637.327 644.561C636.651 644.609 635.974 644.633 635.296 644.633C634.338 644.633 633.381 644.585 632.429 644.49C631.475 644.394 630.528 644.25 629.589 644.06C628.65 643.87 627.721 643.632 626.806 643.349C625.891 643.066 624.99 642.738 624.108 642.365C623.226 641.992 622.363 641.575 621.523 641.115C620.682 640.656 619.866 640.156 619.075 639.615C618.285 639.074 617.522 638.494 616.79 637.877C616.058 637.26 615.357 636.607 614.689 635.92C614.022 635.233 613.389 634.513 612.793 633.762C612.198 633.012 611.641 632.233 611.123 631.427C610.606 630.621 610.13 629.79 609.695 628.936C609.261 628.083 608.869 627.208 608.521 626.315C608.175 625.423 607.873 624.513 607.617 623.59C607.361 622.667 607.151 621.732 606.988 620.789C606.825 619.845 606.71 618.893 606.642 617.938C606.594 617.262 606.57 616.585 606.57 615.907C606.57 614.949 606.618 613.991 606.714 613.038C606.809 612.085 606.951 611.138 607.141 610.2C607.332 609.261 607.569 608.332 607.852 607.417C608.135 606.502 608.464 605.601 608.837 604.719C609.21 603.837 609.627 602.974 610.086 602.134C610.162 602.008 610.239 601.883 610.316 601.758Z" fill="#FFBC2A"/>
<path d="M629.142 635.616C625.286 635.616 622.132 632.461 622.132 628.605V625.1C622.132 624.136 622.92 623.348 623.884 623.348H634.4C635.364 623.348 636.152 624.136 636.152 625.1V628.605C636.152 632.461 632.998 635.616 629.142 635.616Z" fill="#1A1A1A"/>
<path d="M629.142 635.615C631.508 635.615 633.611 634.476 634.838 632.636C633.523 630.883 631.508 629.744 629.142 629.744C626.776 629.744 624.76 630.883 623.446 632.636C624.673 634.476 626.776 635.615 629.142 635.615Z" fill="#FF5555"/>
<path d="M653.59 612.481C655.168 609.414 655.168 605.909 652.714 603.455C650.26 601.002 645.353 601.44 643.688 604.945C642.111 601.44 637.204 601.002 634.75 603.455C632.296 605.909 631.946 608.976 633.523 612.218C636.24 617.827 641.059 620.543 642.987 621.419C643.513 621.682 644.039 621.682 644.477 621.419C646.317 620.455 650.961 617.651 653.59 612.481Z" fill="#FF5555"/>
<path d="M624.673 612.481C626.25 609.414 626.25 605.909 623.796 603.455C621.343 601.002 616.436 601.44 614.771 604.945C613.193 601.44 608.286 601.002 605.833 603.455C603.379 605.909 603.028 608.976 604.606 612.218C607.322 617.827 612.142 620.543 614.07 621.419C614.595 621.682 615.121 621.682 615.559 621.419C617.4 620.455 622.044 617.651 624.673 612.481Z" fill="#FF5555"/>
</g>
<defs>
<filter id="filter0_d_446_5947" x="74.8896" y="19.8184" width="435.798" height="639.546" filterUnits="userSpaceOnUse" color-interpolation-filters="sRGB">
<feFlood flood-opacity="0" result="BackgroundImageFix"/>
<feColorMatrix in="SourceAlpha" type="matrix" values="0 0 0 0 0 0 0 0 0 0 0 0 0 0 0 0 0 0 127 0" result="hardAlpha"/>
<feOffset dx="4.01983" dy="8.03966"/>
<feGaussianBlur stdDeviation="2.00992"/>
<feColorMatrix type="matrix" values="0 0 0 0 0 0 0 0 0 0 0 0 0 0 0 0 0 0 0.15 0"/>
<feBlend mode="normal" in2="BackgroundImageFix" result="effect1_dropShadow_446_5947"/>
<feBlend mode="normal" in="SourceGraphic" in2="effect1_dropShadow_446_5947" result="shape"/>
</filter>
<filter id="filter1_d_446_5947" x="521.933" y="390.933" width="127.2" height="127.2" filterUnits="userSpaceOnUse" color-interpolation-filters="sRGB">
<feFlood flood-opacity="0" result="BackgroundImageFix"/>
<feColorMatrix in="SourceAlpha" type="matrix" values="0 0 0 0 0 0 0 0 0 0 0 0 0 0 0 0 0 0 127 0" result="hardAlpha"/>
<feOffset dx="3.53333" dy="3.53333"/>
<feGaussianBlur stdDeviation="5.3"/>
<feComposite in2="hardAlpha" operator="out"/>
<feColorMatrix type="matrix" values="0 0 0 0 0 0 0 0 0 0 0 0 0 0 0 0 0 0 0.1 0"/>
<feBlend mode="normal" in2="BackgroundImageFix" result="effect1_dropShadow_446_5947"/>
<feBlend mode="normal" in="SourceGraphic" in2="effect1_dropShadow_446_5947" result="shape"/>
</filter>
<filter id="filter2_d_446_5947" x="579.99" y="572.99" width="106.031" height="106.031" filterUnits="userSpaceOnUse" color-interpolation-filters="sRGB">
<feFlood flood-opacity="0" result="BackgroundImageFix"/>
<feColorMatrix in="SourceAlpha" type="matrix" values="0 0 0 0 0 0 0 0 0 0 0 0 0 0 0 0 0 0 127 0" result="hardAlpha"/>
<feOffset dx="3.50515" dy="3.50515"/>
<feGaussianBlur stdDeviation="5.25773"/>
<feComposite in2="hardAlpha" operator="out"/>
<feColorMatrix type="matrix" values="0 0 0 0 0 0 0 0 0 0 0 0 0 0 0 0 0 0 0.1 0"/>
<feBlend mode="normal" in2="BackgroundImageFix" result="effect1_dropShadow_446_5947"/>
<feBlend mode="normal" in="SourceGraphic" in2="effect1_dropShadow_446_5947" result="shape"/>
</filter>
<linearGradient id="paint0_linear_446_5947" x1="9.00004" y1="32.5" x2="161.5" y2="792" gradientUnits="userSpaceOnUse">
<stop stop-color="#8478F4"/>
<stop offset="1" stop-color="#E1B7E4"/>
</linearGradient>
<linearGradient id="paint1_linear_446_5947" x1="-373.715" y1="186.095" x2="375.069" y2="693.321" gradientUnits="userSpaceOnUse">
<stop stop-color="#8478F4"/>
<stop offset="1" stop-color="#E1B7E4"/>
</linearGradient>
<linearGradient id="paint2_linear_446_5947" x1="408.114" y1="1058" x2="408.114" y2="866.783" gradientUnits="userSpaceOnUse">
<stop stop-color="#FFCAA6"/>
<stop offset="1" stop-color="white"/>
</linearGradient>
<linearGradient id="paint3_linear_446_5947" x1="408.114" y1="1058" x2="408.114" y2="866.783" gradientUnits="userSpaceOnUse">
<stop stop-color="#FFCAA6"/>
<stop offset="1" stop-color="white"/>
</linearGradient>
<linearGradient id="paint4_linear_446_5947" x1="405.72" y1="839.295" x2="406.317" y2="860.807" gradientUnits="userSpaceOnUse">
<stop stop-color="white"/>
<stop offset="1" stop-color="#F5F5F5"/>
</linearGradient>
<clipPath id="clip0_446_5947">
<rect width="720" height="1024" fill="white"/>
</clipPath>
<clipPath id="clip1_446_5947">
<rect width="463" height="531" fill="white" transform="translate(74 -13)"/>
</clipPath>
</defs>
</svg>
