<svg width="33" height="32" viewBox="0 0 33 32" fill="none" xmlns="http://www.w3.org/2000/svg">
<path d="M26.9 17.3V26.4C26.9 27.0896 26.6261 27.7509 26.1385 28.2385C25.6509 28.7261 24.9896 29 24.3 29C23.6104 29 22.9491 28.7261 22.4615 28.2385C21.9739 27.7509 21.7 27.0896 21.7 26.4V19.9H19.1V6.9C19.1 5.86566 19.5109 4.87368 20.2423 4.14228C20.9737 3.41089 21.9657 3 23 3H26.9V17.3ZM8.70001 16C8.01044 16 7.34912 15.7261 6.86153 15.2385C6.37393 14.7509 6.10001 14.0896 6.10001 13.4V4.3C6.10001 3.95522 6.23697 3.62456 6.48077 3.38076C6.72456 3.13696 7.05522 3 7.40001 3C7.74479 3 8.07545 3.13696 8.31925 3.38076C8.56304 3.62456 8.70001 3.95522 8.70001 4.3V9.5H10V4.3C10 3.95522 10.137 3.62456 10.3808 3.38076C10.6246 3.13696 10.9552 3 11.3 3C11.6448 3 11.9754 3.13696 12.2192 3.38076C12.463 3.62456 12.6 3.95522 12.6 4.3V9.5H13.9V4.3C13.9 3.95522 14.037 3.62456 14.2808 3.38076C14.5246 3.13696 14.8552 3 15.2 3C15.5448 3 15.8754 3.13696 16.1192 3.38076C16.363 3.62456 16.5 3.95522 16.5 4.3V13.4C16.5 14.0896 16.2261 14.7509 15.7385 15.2385C15.2509 15.7261 14.5896 16 13.9 16V26.4C13.9 27.0896 13.6261 27.7509 13.1385 28.2385C12.6509 28.7261 11.9896 29 11.3 29C10.6104 29 9.94912 28.7261 9.46153 28.2385C8.97393 27.7509 8.70001 27.0896 8.70001 26.4V16Z" fill="#90CBE0"/>
</svg>
