<svg width="12" height="13" viewBox="0 0 12 13" fill="none" xmlns="http://www.w3.org/2000/svg">
<path d="M6.86502 2.43341L7.74502 4.19341C7.86502 4.43841 8.18502 4.67341 8.45502 4.71841L10.05 4.98341C11.07 5.15341 11.31 5.89341 10.575 6.62341L9.33502 7.86341C9.12502 8.07341 9.01002 8.47841 9.07502 8.76841L9.43002 10.3034C9.71002 11.5184 9.06502 11.9884 7.99002 11.3534L6.49502 10.4684C6.22502 10.3084 5.78002 10.3084 5.50502 10.4684L4.01002 11.3534C2.94002 11.9884 2.29002 11.5134 2.57002 10.3034L2.92502 8.76841C2.99002 8.47841 2.87502 8.07341 2.66502 7.86341L1.42502 6.62341C0.695016 5.89341 0.930016 5.15341 1.95002 4.98341L3.54502 4.71841C3.81002 4.67341 4.13002 4.43841 4.25002 4.19341L5.13002 2.43341C5.61002 1.47841 6.39002 1.47841 6.86502 2.43341Z" fill="#FFCC73" stroke="#FFCC73" stroke-width="0.75" stroke-linecap="round" stroke-linejoin="round"/>
</svg>
