<svg width="17" height="17" viewBox="0 0 17 17" fill="none" xmlns="http://www.w3.org/2000/svg">
<path d="M7.65799 3.87874L8.05835 4.41387L8.4587 3.87874C9.04701 3.0924 9.98935 2.58173 11.0399 2.58173C12.823 2.58173 14.2736 4.03433 14.2736 5.83553C14.2736 6.58026 14.1548 7.26706 13.9486 7.90435L13.9476 7.90761C13.4529 9.47311 12.437 10.7406 11.3326 11.6897C10.226 12.6408 9.05928 13.2473 8.31363 13.501L8.31362 13.501L8.30828 13.5029C8.26428 13.5184 8.1737 13.5348 8.05835 13.5348C7.943 13.5348 7.85242 13.5184 7.80842 13.5029L7.80843 13.5028L7.80306 13.501C7.05742 13.2473 5.89065 12.6408 4.78405 11.6897C3.67965 10.7406 2.66379 9.47311 2.16909 7.90761L2.1691 7.9076L2.16805 7.90435C1.96187 7.26706 1.84314 6.58026 1.84314 5.83553C1.84314 4.03433 3.2937 2.58173 5.0768 2.58173C6.12734 2.58173 7.06969 3.0924 7.65799 3.87874Z" stroke="#8C9FB5"/>
</svg>
