<svg width="33" height="32" viewBox="0 0 33 32" fill="none" xmlns="http://www.w3.org/2000/svg">
<path d="M30.5625 8.62502V9.56252C30.5625 9.68684 30.5115 9.80607 30.4206 9.89397C30.3298 9.98188 30.2066 10.0313 30.0781 10.0313H28.625V10.7344C28.625 11.1227 28.2997 11.4375 27.8984 11.4375H4.16406C3.76282 11.4375 3.4375 11.1227 3.4375 10.7344V10.0313H1.98438C1.85591 10.0313 1.73271 9.98188 1.64187 9.89397C1.55103 9.80607 1.5 9.68684 1.5 9.56252V8.62502C1.5 8.53228 1.52843 8.44163 1.58168 8.36453C1.63493 8.28743 1.71062 8.22735 1.79916 8.19189L15.846 3.03564C15.9646 2.98812 16.0979 2.98812 16.2165 3.03564L30.2633 8.19189C30.3519 8.22735 30.4276 8.28743 30.4808 8.36453C30.5341 8.44163 30.5625 8.53228 30.5625 8.62502ZM29.1094 26.4375H2.95312C2.15058 26.4375 1.5 27.0671 1.5 27.8438V28.7813C1.5 28.9056 1.55103 29.0248 1.64187 29.1127C1.73271 29.2006 1.85591 29.25 1.98438 29.25H30.0781C30.2066 29.25 30.3298 29.2006 30.4206 29.1127C30.5115 29.0248 30.5625 28.9056 30.5625 28.7813V27.8438C30.5625 27.0671 29.9119 26.4375 29.1094 26.4375ZM6.34375 12.375V23.625H4.16406C3.76282 23.625 3.4375 23.9398 3.4375 24.3281V25.5H28.625V24.3281C28.625 23.9398 28.2997 23.625 27.8984 23.625H25.7188V12.375H21.8438V23.625H17.9688V12.375H14.0938V23.625H10.2188V12.375H6.34375Z" fill="#8C9FB5"/>
</svg>
