<svg width="33" height="32" viewBox="0 0 33 32" fill="none" xmlns="http://www.w3.org/2000/svg">
<path d="M30.4879 27.3404L25.3709 18.4776C25.1353 18.0684 24.7964 17.7282 24.3881 17.4911C23.9798 17.2539 23.5164 17.128 23.0443 17.1261C22.5721 17.1241 22.1077 17.2461 21.6975 17.4799C21.2872 17.7136 20.9455 18.051 20.7065 18.4582L22.5711 21.687C22.7129 21.9326 22.7514 22.2244 22.678 22.4983C22.6047 22.7723 22.4255 23.0058 22.1799 23.1477C21.9343 23.2895 21.6425 23.328 21.3686 23.2546C21.0946 23.1812 20.8611 23.0021 20.7192 22.7565L19.47 20.5931L19.4686 20.5956L15.9196 14.4489C15.6175 13.9253 15.1828 13.4906 14.6593 13.1883C14.1358 12.886 13.542 12.7268 12.9375 12.7268C12.333 12.7268 11.7392 12.886 11.2157 13.1883C10.6922 13.4906 10.2576 13.9253 9.95542 14.4489V14.4483L2.51208 27.3404C2.41822 27.5028 2.36878 27.6871 2.36874 27.8748C2.3687 28.0624 2.41806 28.2467 2.51186 28.4092C2.60565 28.5717 2.74058 28.7066 2.90306 28.8004C3.06555 28.8942 3.24987 28.9436 3.43749 28.9436H29.5625C29.7501 28.9436 29.9344 28.8942 30.0969 28.8004C30.2594 28.7066 30.3943 28.5717 30.4881 28.4092C30.5819 28.2467 30.6313 28.0624 30.6312 27.8748C30.6312 27.6871 30.5818 27.5028 30.4879 27.3404Z" fill="#14A7A0"/>
<path d="M21.4373 12.3186C23.995 12.3186 26.0684 10.2452 26.0684 7.68747C26.0684 5.12976 23.995 3.05634 21.4373 3.05634C18.8796 3.05634 16.8062 5.12976 16.8062 7.68747C16.8062 10.2452 18.8796 12.3186 21.4373 12.3186Z" fill="#FFCC73"/>
</svg>
